<?xml version="1.0" encoding="UTF-8" standalone="no"?>
<!-- Created with Inkscape (http://www.inkscape.org/) -->

<svg
   width="128"
   height="128"
   viewBox="0 0 33.866666 33.866668"
   version="1.1"
   id="svg5"
   xmlns:xlink="http://www.w3.org/1999/xlink"
   xmlns="http://www.w3.org/2000/svg"
   xmlns:svg="http://www.w3.org/2000/svg">
  <defs
     id="defs2">
    <linearGradient
       id="linearGradient11222">
      <stop
         style="stop-color:#ffffff;stop-opacity:0.31652638"
         offset="0"
         id="stop11218" />
      <stop
         style="stop-color:#ffffff;stop-opacity:0;"
         offset="1"
         id="stop11220" />
    </linearGradient>
    <mask
       maskUnits="userSpaceOnUse"
       id="mask2108">
      <path
         id="ellipse2110"
         d="M 31.749998,21.16667 A 14.816666,10.583335 0 0 1 16.933332,31.750005 14.816666,10.583335 0 0 1 2.1166668,21.16667 14.816666,10.583335 0 0 1 16.933332,10.583335 14.816666,10.583335 0 0 1 31.749998,21.16667 Z"
         style="opacity:1;fill:#ffffff;fill-opacity:1;fill-rule:evenodd;stroke:none;stroke-width:0.264583;stroke-linecap:round;stroke-linejoin:round;stroke-miterlimit:4;stroke-dasharray:none;stroke-opacity:1" />
    </mask>
    <clipPath
       clipPathUnits="userSpaceOnUse"
       id="clipPath2420">
      <path
         id="lpe_path-effect2424"
         style="opacity:1;fill:#ffffff;fill-opacity:1;fill-rule:evenodd;stroke:none;stroke-width:0.264583;stroke-linecap:round;stroke-linejoin:round;stroke-miterlimit:4;stroke-dasharray:none;stroke-opacity:1"
         class="powerclip"
         d="M -2.8833334,11.933332 H 36.749998 V 26.166666 H -2.8833334 Z M 31.749998,17.197918 A 14.816666,10.583335 0 0 0 16.933332,6.614583 14.816666,10.583335 0 0 0 2.1166668,17.197918 14.816666,10.583335 0 0 0 16.933332,27.781253 14.816666,10.583335 0 0 0 31.749998,17.197918 Z" />
    </clipPath>
    <clipPath
       clipPathUnits="userSpaceOnUse"
       id="clipPath2502">
      <path
         id="lpe_path-effect2506"
         style="opacity:1;fill:#ffffff;fill-opacity:1;fill-rule:evenodd;stroke:none;stroke-width:0.264583;stroke-linecap:round;stroke-linejoin:round;stroke-miterlimit:4;stroke-dasharray:none;stroke-opacity:1"
         class="powerclip"
         d="M -2.8833332,16.166668 H 36.749998 V 36.750002 H -2.8833332 Z m 34.6333312,1.03125 A 14.816666,10.583335 0 0 0 16.933332,6.614583 14.816666,10.583335 0 0 0 2.1166668,17.197918 14.816666,10.583335 0 0 0 16.933332,27.781253 14.816666,10.583335 0 0 0 31.749998,17.197918 Z" />
    </clipPath>
    <clipPath
       clipPathUnits="userSpaceOnUse"
       id="clipPath2420-3">
      <path
         id="lpe_path-effect2424-6"
         style="opacity:1;fill:#ffffff;fill-opacity:1;fill-rule:evenodd;stroke:none;stroke-width:0.264583;stroke-linecap:round;stroke-linejoin:round;stroke-miterlimit:4;stroke-dasharray:none;stroke-opacity:1"
         class="powerclip"
         d="M -2.8833334,11.933332 H 36.749998 V 26.166666 H -2.8833334 Z M 31.749998,17.197918 A 14.816666,10.583335 0 0 0 16.933332,6.614583 14.816666,10.583335 0 0 0 2.1166668,17.197918 14.816666,10.583335 0 0 0 16.933332,27.781253 14.816666,10.583335 0 0 0 31.749998,17.197918 Z" />
    </clipPath>
    <clipPath
       clipPathUnits="userSpaceOnUse"
       id="clipPath2502-7">
      <path
         id="lpe_path-effect2506-5"
         style="opacity:1;fill:#ffffff;fill-opacity:1;fill-rule:evenodd;stroke:none;stroke-width:0.264583;stroke-linecap:round;stroke-linejoin:round;stroke-miterlimit:4;stroke-dasharray:none;stroke-opacity:1"
         class="powerclip"
         d="M -2.8833332,16.166668 H 36.749998 V 36.750002 H -2.8833332 Z m 34.6333312,1.03125 A 14.816666,10.583335 0 0 0 16.933332,6.614583 14.816666,10.583335 0 0 0 2.1166668,17.197918 14.816666,10.583335 0 0 0 16.933332,27.781253 14.816666,10.583335 0 0 0 31.749998,17.197918 Z" />
    </clipPath>
    <mask
       maskUnits="userSpaceOnUse"
       id="mask2108-3">
      <path
         id="ellipse2110-5"
         d="M 31.749998,21.16667 A 14.816666,10.583335 0 0 1 16.933332,31.750005 14.816666,10.583335 0 0 1 2.1166668,21.16667 14.816666,10.583335 0 0 1 16.933332,10.583335 14.816666,10.583335 0 0 1 31.749998,21.16667 Z"
         style="opacity:1;fill:#ffffff;fill-opacity:1;fill-rule:evenodd;stroke:none;stroke-width:0.264583;stroke-linecap:round;stroke-linejoin:round;stroke-miterlimit:4;stroke-dasharray:none;stroke-opacity:1" />
    </mask>
    <filter
       id="mask-powermask-path-effect4077_inverse"
       style="color-interpolation-filters:sRGB"
       height="100"
       width="100"
       x="-50"
       y="-50">
      <feColorMatrix
         id="mask-powermask-path-effect4077_primitive1"
         values="1"
         type="saturate"
         result="fbSourceGraphic" />
      <feColorMatrix
         id="mask-powermask-path-effect4077_primitive2"
         values="-1 0 0 0 1 0 -1 0 0 1 0 0 -1 0 1 0 0 0 1 0 "
         in="fbSourceGraphic" />
    </filter>
    <mask
       maskUnits="userSpaceOnUse"
       id="mask4084">
      <ellipse
         style="opacity:1;fill:#ffffff;fill-opacity:1;fill-rule:evenodd;stroke:none;stroke-width:0.132292;stroke-linecap:round;stroke-linejoin:round;stroke-miterlimit:4;stroke-dasharray:none;stroke-opacity:1"
         id="ellipse4086"
         cx="16.933332"
         cy="21.16667"
         rx="14.162226"
         ry="9.9288921"
         d="M 31.095558,21.16667 A 14.162226,9.9288921 0 0 1 16.933332,31.095562 14.162226,9.9288921 0 0 1 2.7711067,21.16667 14.162226,9.9288921 0 0 1 16.933332,11.237778 14.162226,9.9288921 0 0 1 31.095558,21.16667 Z" />
    </mask>
    <clipPath
       clipPathUnits="userSpaceOnUse"
       id="clipPath4162">
      <ellipse
         style="display:none;opacity:1;fill:#ffffff;fill-opacity:1;fill-rule:evenodd;stroke:none;stroke-width:0.132292;stroke-linecap:round;stroke-linejoin:round;stroke-miterlimit:4;stroke-dasharray:none;stroke-opacity:1"
         id="ellipse4164"
         cx="16.933332"
         cy="19.843624"
         rx="14.162226"
         ry="9.9288921"
         d="M 31.095558,19.843624 A 14.162226,9.9288921 0 0 1 16.933332,29.772516 14.162226,9.9288921 0 0 1 2.7711067,19.843624 14.162226,9.9288921 0 0 1 16.933332,9.914732 14.162226,9.9288921 0 0 1 31.095558,19.843624 Z" />
      <path
         id="lpe_path-effect4166"
         style="opacity:1;fill:#ffffff;fill-opacity:1;fill-rule:evenodd;stroke:none;stroke-width:0.132292;stroke-linecap:round;stroke-linejoin:round;stroke-miterlimit:4;stroke-dasharray:none;stroke-opacity:1"
         class="powerclip"
         d="M -2.2950388,14.77748 H 36.161707 V 26.232816 H -2.2950388 Z M 31.095558,19.843624 A 14.162226,9.9288921 0 0 0 16.933332,9.914732 14.162226,9.9288921 0 0 0 2.7711067,19.843624 14.162226,9.9288921 0 0 0 16.933332,29.772516 14.162226,9.9288921 0 0 0 31.095558,19.843624 Z" />
    </clipPath>
    <clipPath
       clipPathUnits="userSpaceOnUse"
       id="clipPath4244">
      <ellipse
         style="display:none;opacity:1;fill:#ffffff;fill-opacity:1;fill-rule:evenodd;stroke:none;stroke-width:0.132292;stroke-linecap:round;stroke-linejoin:round;stroke-miterlimit:4;stroke-dasharray:none;stroke-opacity:1"
         id="ellipse4246"
         cx="16.933332"
         cy="19.843624"
         rx="14.162226"
         ry="9.9288921"
         d="M 31.095558,19.843624 A 14.162226,9.9288921 0 0 1 16.933332,29.772516 14.162226,9.9288921 0 0 1 2.7711067,19.843624 14.162226,9.9288921 0 0 1 16.933332,9.914732 14.162226,9.9288921 0 0 1 31.095558,19.843624 Z" />
      <path
         id="lpe_path-effect4248"
         style="opacity:1;fill:#ffffff;fill-opacity:1;fill-rule:evenodd;stroke:none;stroke-width:0.132292;stroke-linecap:round;stroke-linejoin:round;stroke-miterlimit:4;stroke-dasharray:none;stroke-opacity:1"
         class="powerclip"
         d="M -2.2288933,16.100524 H 36.095558 V 36.095562 H -2.2288933 Z m 33.3244513,3.7431 A 14.162226,9.9288921 0 0 0 16.933332,9.914732 14.162226,9.9288921 0 0 0 2.7711067,19.843624 14.162226,9.9288921 0 0 0 16.933332,29.772516 14.162226,9.9288921 0 0 0 31.095558,19.843624 Z" />
    </clipPath>
    <mask
       maskUnits="userSpaceOnUse"
       id="mask6806">
      <ellipse
         style="opacity:1;fill:#ffffff;fill-opacity:1;fill-rule:evenodd;stroke:none;stroke-width:0.132292;stroke-linecap:round;stroke-linejoin:round;stroke-miterlimit:4;stroke-dasharray:none;stroke-opacity:1"
         id="ellipse6808"
         cx="16.933332"
         cy="21.16667"
         rx="14.162226"
         ry="9.9288921" />
    </mask>
    <filter
       id="mask-powermask-path-effect7182_inverse"
       style="color-interpolation-filters:sRGB"
       height="100"
       width="100"
       x="-50"
       y="-50">
      <feColorMatrix
         id="mask-powermask-path-effect7182_primitive1"
         values="1"
         type="saturate"
         result="fbSourceGraphic" />
      <feColorMatrix
         id="mask-powermask-path-effect7182_primitive2"
         values="-1 0 0 0 1 0 -1 0 0 1 0 0 -1 0 1 0 0 0 1 0 "
         in="fbSourceGraphic" />
    </filter>
    <filter
       id="mask-powermask-path-effect7216_inverse"
       style="color-interpolation-filters:sRGB"
       height="100"
       width="100"
       x="-50"
       y="-50">
      <feColorMatrix
         id="mask-powermask-path-effect7216_primitive1"
         values="1"
         type="saturate"
         result="fbSourceGraphic" />
      <feColorMatrix
         id="mask-powermask-path-effect7216_primitive2"
         values="-1 0 0 0 1 0 -1 0 0 1 0 0 -1 0 1 0 0 0 1 0 "
         in="fbSourceGraphic" />
    </filter>
    <clipPath
       clipPathUnits="userSpaceOnUse"
       id="clipPath7222">
      <ellipse
         style="display:none;opacity:1;fill:#ffffff;fill-opacity:1;fill-rule:evenodd;stroke:none;stroke-width:0.132292;stroke-linecap:round;stroke-linejoin:round;stroke-miterlimit:4;stroke-dasharray:none;stroke-opacity:1"
         id="ellipse7224"
         ry="9.9288921"
         rx="14.162226"
         cy="19.843624"
         cx="16.933332"
         d="M 31.095558,19.843624 A 14.162226,9.9288921 0 0 1 16.933332,29.772516 14.162226,9.9288921 0 0 1 2.7711067,19.843624 14.162226,9.9288921 0 0 1 16.933332,9.914732 14.162226,9.9288921 0 0 1 31.095558,19.843624 Z" />
      <path
         id="lpe_path-effect7226"
         style="opacity:1;fill:#ffffff;fill-opacity:1;fill-rule:evenodd;stroke:none;stroke-width:0.132292;stroke-linecap:round;stroke-linejoin:round;stroke-miterlimit:4;stroke-dasharray:none;stroke-opacity:1"
         class="powerclip"
         d="M -2.2950393,6.1716298 H 36.161704 V 36.161706 H -2.2950393 Z M 31.095558,19.843624 A 14.162226,9.9288921 0 0 0 16.933332,9.914732 14.162226,9.9288921 0 0 0 2.7711067,19.843624 14.162226,9.9288921 0 0 0 16.933332,29.772516 14.162226,9.9288921 0 0 0 31.095558,19.843624 Z" />
    </clipPath>
    <filter
       id="mask-powermask-path-effect7900_inverse"
       style="color-interpolation-filters:sRGB"
       height="100"
       width="100"
       x="-50"
       y="-50">
      <feColorMatrix
         id="mask-powermask-path-effect7900_primitive1"
         values="1"
         type="saturate"
         result="fbSourceGraphic" />
      <feColorMatrix
         id="mask-powermask-path-effect7900_primitive2"
         values="-1 0 0 0 1 0 -1 0 0 1 0 0 -1 0 1 0 0 0 1 0 "
         in="fbSourceGraphic" />
    </filter>
    <clipPath
       clipPathUnits="userSpaceOnUse"
       id="clipPath7906">
      <ellipse
         style="display:none;fill:#ffffff;fill-opacity:1;fill-rule:evenodd;stroke:none;stroke-width:0.132292;stroke-linecap:round;stroke-linejoin:round;stroke-miterlimit:4;stroke-dasharray:none;stroke-opacity:1"
         id="ellipse7908"
         cx="16.933332"
         cy="17.197916"
         rx="14.424001"
         ry="10.190685"
         d="M 31.357333,17.197916 A 14.424001,10.190685 0 0 1 16.933332,27.388601 14.424001,10.190685 0 0 1 2.5093317,17.197916 14.424001,10.190685 0 0 1 16.933332,7.0072308 14.424001,10.190685 0 0 1 31.357333,17.197916 Z" />
      <path
         id="lpe_path-effect7910"
         style="fill:#ffffff;fill-opacity:1;fill-rule:evenodd;stroke:none;stroke-width:0.132292;stroke-linecap:round;stroke-linejoin:round;stroke-miterlimit:4;stroke-dasharray:none;stroke-opacity:1"
         class="powerclip"
         d="M -2.9494792,1.5484361 H 36.816144 V 32.847396 H -2.9494792 Z M 31.357333,17.197916 A 14.424001,10.190685 0 0 0 16.933332,7.0072308 14.424001,10.190685 0 0 0 2.5093317,17.197916 14.424001,10.190685 0 0 0 16.933332,27.388601 14.424001,10.190685 0 0 0 31.357333,17.197916 Z" />
    </clipPath>
    <clipPath
       clipPathUnits="userSpaceOnUse"
       id="clipPath7988">
      <ellipse
         style="display:none;fill:#ffffff;fill-opacity:1;fill-rule:evenodd;stroke:none;stroke-width:0.132292;stroke-linecap:round;stroke-linejoin:round;stroke-miterlimit:4;stroke-dasharray:none;stroke-opacity:1"
         id="ellipse7990"
         cx="16.93331"
         cy="17.197916"
         rx="14.424001"
         ry="10.190685"
         d="M 31.35731,17.197916 A 14.424001,10.190685 0 0 1 16.93331,27.388601 14.424001,10.190685 0 0 1 2.5093088,17.197916 14.424001,10.190685 0 0 1 16.93331,7.0072308 14.424001,10.190685 0 0 1 31.35731,17.197916 Z" />
      <path
         id="lpe_path-effect7992"
         style="fill:#ffffff;fill-opacity:1;fill-rule:evenodd;stroke:none;stroke-width:0.132292;stroke-linecap:round;stroke-linejoin:round;stroke-miterlimit:4;stroke-dasharray:none;stroke-opacity:1"
         class="powerclip"
         d="M -2.9494792,5.517188 H 36.816144 v 31.29896 H -2.9494792 Z M 31.35731,17.197916 A 14.424001,10.190685 0 0 0 16.93331,7.0072308 14.424001,10.190685 0 0 0 2.5093088,17.197916 14.424001,10.190685 0 0 0 16.93331,27.388601 14.424001,10.190685 0 0 0 31.35731,17.197916 Z" />
    </clipPath>
    <clipPath
       clipPathUnits="userSpaceOnUse"
       id="clipPath8594">
      <ellipse
         style="display:none;opacity:1;fill:#ffffff;fill-opacity:1;fill-rule:evenodd;stroke:none;stroke-width:0.146466;stroke-linecap:round;stroke-linejoin:round;stroke-miterlimit:4;stroke-dasharray:none;stroke-opacity:0.999058"
         id="ellipse8596"
         cx="17.462498"
         cy="23.283333"
         rx="16.404167"
         ry="11.131399"
         d="M 33.866665,23.283333 A 16.404167,11.131399 0 0 1 17.462498,34.414732 16.404167,11.131399 0 0 1 1.0583305,23.283333 16.404167,11.131399 0 0 1 17.462498,12.151934 16.404167,11.131399 0 0 1 33.866665,23.283333 Z" />
      <path
         id="lpe_path-effect8598"
         style="opacity:1;fill:#ffffff;fill-opacity:1;fill-rule:evenodd;stroke:none;stroke-width:0.146466;stroke-linecap:round;stroke-linejoin:round;stroke-miterlimit:4;stroke-dasharray:none;stroke-opacity:0.999058"
         class="powerclip"
         d="M -2.8833332,6.2379017 H 36.749998 V 36.346235 H -2.8833332 Z M 33.866665,23.283333 A 16.404167,11.131399 0 0 0 17.462498,12.151934 16.404167,11.131399 0 0 0 1.0583305,23.283333 16.404167,11.131399 0 0 0 17.462498,34.414732 16.404167,11.131399 0 0 0 33.866665,23.283333 Z" />
    </clipPath>
    <clipPath
       clipPathUnits="userSpaceOnUse"
       id="clipath_lpe_path-effect8848">
      <ellipse
         style="display:none;fill:#ffffff;fill-opacity:1;fill-rule:evenodd;stroke:none;stroke-width:0.132292;stroke-linecap:round;stroke-linejoin:round;stroke-miterlimit:4;stroke-dasharray:none;stroke-opacity:1"
         id="ellipse8850"
         cx="16.93331"
         cy="17.197916"
         rx="14.424001"
         ry="10.190685" />
    </clipPath>
    <filter
       id="mask-powermask-path-effect9517_inverse"
       style="color-interpolation-filters:sRGB"
       height="100"
       width="100"
       x="-50"
       y="-50">
      <feColorMatrix
         id="mask-powermask-path-effect9517_primitive1"
         values="1"
         type="saturate"
         result="fbSourceGraphic" />
      <feColorMatrix
         id="mask-powermask-path-effect9517_primitive2"
         values="-1 0 0 0 1 0 -1 0 0 1 0 0 -1 0 1 0 0 0 1 0 "
         in="fbSourceGraphic" />
    </filter>
    <mask
       maskUnits="userSpaceOnUse"
       id="mask9709">
      <ellipse
         style="opacity:1;fill:#ffffff;fill-opacity:0.998739;fill-rule:evenodd;stroke:none;stroke-width:0.857591;stroke-linecap:round;stroke-linejoin:round;stroke-miterlimit:4;stroke-dasharray:none;stroke-opacity:0.999058"
         id="ellipse9711"
         cx="16.941353"
         cy="21.992889"
         rx="14.808645"
         ry="9.7572317"
         d="M 31.749998,21.992889 A 14.808645,9.7572317 0 0 1 16.941353,31.750121 14.808645,9.7572317 0 0 1 2.1327076,21.992889 14.808645,9.7572317 0 0 1 16.941353,12.235658 14.808645,9.7572317 0 0 1 31.749998,21.992889 Z" />
    </mask>
    <filter
       id="mask-powermask-path-effect9911_inverse"
       style="color-interpolation-filters:sRGB"
       height="100"
       width="100"
       x="-50"
       y="-50">
      <feColorMatrix
         id="mask-powermask-path-effect9911_primitive1"
         values="1"
         type="saturate"
         result="fbSourceGraphic" />
      <feColorMatrix
         id="mask-powermask-path-effect9911_primitive2"
         values="-1 0 0 0 1 0 -1 0 0 1 0 0 -1 0 1 0 0 0 1 0 "
         in="fbSourceGraphic" />
    </filter>
    <clipPath
       clipPathUnits="userSpaceOnUse"
       id="clipPath9937">
      <ellipse
         style="display:none;opacity:1;fill:#ffffff;fill-opacity:0.998739;fill-rule:evenodd;stroke:none;stroke-width:0.704427;stroke-linecap:round;stroke-linejoin:round;stroke-miterlimit:4;stroke-dasharray:none;stroke-opacity:0.999058"
         id="ellipse9939"
         ry="10.583333"
         rx="14.816089"
         cy="17.197916"
         cx="16.933912"
         d="M 31.750001,17.197916 A 14.816089,10.583333 0 0 1 16.933912,27.781249 14.816089,10.583333 0 0 1 2.1178236,17.197916 14.816089,10.583333 0 0 1 16.933912,6.614583 14.816089,10.583333 0 0 1 31.750001,17.197916 Z" />
      <path
         id="lpe_path-effect9941"
         style="opacity:1;fill:#ffffff;fill-opacity:0.998739;fill-rule:evenodd;stroke:none;stroke-width:0.704427;stroke-linecap:round;stroke-linejoin:round;stroke-miterlimit:4;stroke-dasharray:none;stroke-opacity:0.999058"
         class="powerclip"
         d="m 5.583334,20.399998 h 13.175 v 16.350123 h -13.175 z M 31.750001,17.197916 A 14.816089,10.583333 0 0 0 16.933912,6.614583 14.816089,10.583333 0 0 0 2.1178236,17.197916 14.816089,10.583333 0 0 0 16.933912,27.781249 14.816089,10.583333 0 0 0 31.750001,17.197916 Z" />
    </clipPath>
    <clipPath
       clipPathUnits="userSpaceOnUse"
       id="clipPath10215">
      <ellipse
         style="display:none;opacity:1;fill:#ffffff;fill-opacity:0.998739;fill-rule:evenodd;stroke:none;stroke-width:0.700011;stroke-linecap:round;stroke-linejoin:round;stroke-miterlimit:4;stroke-dasharray:none;stroke-opacity:0.999058"
         id="ellipse10217"
         cx="16.933813"
         cy="17.065624"
         rx="14.816089"
         ry="10.451042"
         d="M 31.749902,17.065624 A 14.816089,10.451042 0 0 1 16.933813,27.516666 14.816089,10.451042 0 0 1 2.1177244,17.065624 14.816089,10.451042 0 0 1 16.933813,6.6145821 14.816089,10.451042 0 0 1 31.749902,17.065624 Z" />
      <path
         id="lpe_path-effect10219"
         style="opacity:1;fill:#ffffff;fill-opacity:0.998739;fill-rule:evenodd;stroke:none;stroke-width:0.700011;stroke-linecap:round;stroke-linejoin:round;stroke-miterlimit:4;stroke-dasharray:none;stroke-opacity:0.999058"
         class="powerclip"
         d="M 2.4083328,19.341667 H 14.524999 v 16.35 H 2.4083328 Z M 31.749902,17.065624 A 14.816089,10.451042 0 0 0 16.933813,6.6145821 14.816089,10.451042 0 0 0 2.1177244,17.065624 14.816089,10.451042 0 0 0 16.933813,27.516666 14.816089,10.451042 0 0 0 31.749902,17.065624 Z" />
    </clipPath>
    <mask
       maskUnits="userSpaceOnUse"
       id="mask10225">
      <ellipse
         style="opacity:1;fill:#ffffff;fill-opacity:0.998739;fill-rule:evenodd;stroke:none;stroke-width:0.857591;stroke-linecap:round;stroke-linejoin:round;stroke-miterlimit:4;stroke-dasharray:none;stroke-opacity:0.999058"
         id="ellipse10227"
         cx="16.941452"
         cy="21.992889"
         rx="14.808645"
         ry="9.7572317"
         d="M 31.750097,21.992889 A 14.808645,9.7572317 0 0 1 16.941452,31.750121 14.808645,9.7572317 0 0 1 2.1328068,21.992889 14.808645,9.7572317 0 0 1 16.941452,12.235658 14.808645,9.7572317 0 0 1 31.750097,21.992889 Z" />
    </mask>
    <clipPath
       clipPathUnits="userSpaceOnUse"
       id="clipPath10465">
      <ellipse
         style="display:none;opacity:1;fill:#ffffff;fill-opacity:0.998739;fill-rule:evenodd;stroke:none;stroke-width:0.702911;stroke-linecap:round;stroke-linejoin:round;stroke-miterlimit:4;stroke-dasharray:none;stroke-opacity:0.999058"
         id="ellipse10467"
         cx="16.933813"
         cy="17.152369"
         rx="14.816089"
         ry="10.537788"
         d="M 31.749902,17.152369 A 14.816089,10.537788 0 0 1 16.933813,27.690157 14.816089,10.537788 0 0 1 2.1177244,17.152369 14.816089,10.537788 0 0 1 16.933813,6.6145802 14.816089,10.537788 0 0 1 31.749902,17.152369 Z" />
      <path
         id="lpe_path-effect10469"
         style="opacity:1;fill:#ffffff;fill-opacity:0.998739;fill-rule:evenodd;stroke:none;stroke-width:0.702911;stroke-linecap:round;stroke-linejoin:round;stroke-miterlimit:4;stroke-dasharray:none;stroke-opacity:0.999058"
         class="powerclip"
         d="M 9.8166656,21.458332 H 20.874999 V 36.750121 H 9.8166656 Z M 31.749902,17.152369 A 14.816089,10.537788 0 0 0 16.933813,6.6145802 14.816089,10.537788 0 0 0 2.1177244,17.152369 14.816089,10.537788 0 0 0 16.933813,27.690157 14.816089,10.537788 0 0 0 31.749902,17.152369 Z" />
    </clipPath>
    <mask
       maskUnits="userSpaceOnUse"
       id="mask10475">
      <ellipse
         style="opacity:1;fill:#ffffff;fill-opacity:0.998739;fill-rule:evenodd;stroke:none;stroke-width:0.857591;stroke-linecap:round;stroke-linejoin:round;stroke-miterlimit:4;stroke-dasharray:none;stroke-opacity:0.999058"
         id="ellipse10477"
         cx="16.941452"
         cy="21.992889"
         rx="14.808645"
         ry="9.7572317"
         d="M 31.750097,21.992889 A 14.808645,9.7572317 0 0 1 16.941452,31.750121 14.808645,9.7572317 0 0 1 2.1328068,21.992889 14.808645,9.7572317 0 0 1 16.941452,12.235658 14.808645,9.7572317 0 0 1 31.750097,21.992889 Z" />
    </mask>
    <radialGradient
       xlink:href="#linearGradient11222"
       id="radialGradient11224"
       cx="16.933332"
       cy="13.91397"
       fx="16.933332"
       fy="13.91397"
       r="13.758332"
       gradientTransform="matrix(1,0,0,0.65384621,0,4.1315708)"
       gradientUnits="userSpaceOnUse" />
    <filter
       style="color-interpolation-filters:sRGB"
       id="filter11938"
       x="-0.033779537"
       y="-0.047102343"
       width="1.0675591"
       height="1.0942047">
      <feGaussianBlur
         stdDeviation="0.30137266"
         id="feGaussianBlur11940" />
    </filter>
    <mask
       maskUnits="userSpaceOnUse"
       id="mask12138">
      <ellipse
         style="opacity:1;fill:#ffffff;fill-opacity:1;fill-rule:evenodd;stroke:none;stroke-width:0.132292;stroke-linecap:round;stroke-linejoin:round;stroke-miterlimit:4;stroke-dasharray:none;stroke-opacity:0.999058"
         id="ellipse12140"
         cx="16.933332"
         cy="19.049999"
         rx="13.758332"
         ry="8.4666662" />
    </mask>
    <mask
       maskUnits="userSpaceOnUse"
       id="mask12144">
      <ellipse
         style="opacity:1;fill:#ffffff;fill-opacity:1;fill-rule:evenodd;stroke:none;stroke-width:0.132292;stroke-linecap:round;stroke-linejoin:round;stroke-miterlimit:4;stroke-dasharray:none;stroke-opacity:0.999058"
         id="ellipse12146"
         cx="16.933332"
         cy="19.049999"
         rx="13.758332"
         ry="8.4666662" />
    </mask>
    <mask
       maskUnits="userSpaceOnUse"
       id="mask12150">
      <ellipse
         style="opacity:1;fill:#ffffff;fill-opacity:1;fill-rule:evenodd;stroke:none;stroke-width:0.132292;stroke-linecap:round;stroke-linejoin:round;stroke-miterlimit:4;stroke-dasharray:none;stroke-opacity:0.999058"
         id="ellipse12152"
         cx="16.933332"
         cy="19.049999"
         rx="13.758332"
         ry="8.4666662" />
    </mask>
    <mask
       maskUnits="userSpaceOnUse"
       id="mask12156">
      <ellipse
         style="opacity:1;fill:#ffffff;fill-opacity:1;fill-rule:evenodd;stroke:none;stroke-width:0.132292;stroke-linecap:round;stroke-linejoin:round;stroke-miterlimit:4;stroke-dasharray:none;stroke-opacity:0.999058"
         id="ellipse12158"
         cx="16.933332"
         cy="19.049999"
         rx="13.758332"
         ry="8.4666662" />
    </mask>
    <mask
       maskUnits="userSpaceOnUse"
       id="mask6806-6">
      <ellipse
         style="opacity:1;fill:#ffffff;fill-opacity:1;fill-rule:evenodd;stroke:none;stroke-width:0.132292;stroke-linecap:round;stroke-linejoin:round;stroke-miterlimit:4;stroke-dasharray:none;stroke-opacity:1"
         id="ellipse6808-2"
         cx="16.933332"
         cy="21.16667"
         rx="14.162226"
         ry="9.9288921" />
    </mask>
    <filter
       style="color-interpolation-filters:sRGB"
       id="filter13858"
       x="-0.11978754"
       y="-0.17989869"
       width="1.2395751"
       height="1.3597974">
      <feGaussianBlur
         stdDeviation="1.4136357"
         id="feGaussianBlur13860" />
    </filter>
    <mask
       maskUnits="userSpaceOnUse"
       id="mask6806-9">
      <ellipse
         style="opacity:1;fill:#ffffff;fill-opacity:1;fill-rule:evenodd;stroke:none;stroke-width:0.132292;stroke-linecap:round;stroke-linejoin:round;stroke-miterlimit:4;stroke-dasharray:none;stroke-opacity:1"
         id="ellipse6808-1"
         cx="16.933332"
         cy="21.16667"
         rx="14.162226"
         ry="9.9288921" />
    </mask>
  </defs>
  <g
     id="layer5"
     style="display:inline;opacity:0.488243;filter:url(#filter13858)">
    <ellipse
       style="display:inline;fill:#000000;fill-opacity:1;fill-rule:evenodd;stroke:none;stroke-width:0.132292;stroke-linecap:round;stroke-linejoin:round;stroke-miterlimit:4;stroke-dasharray:none;stroke-opacity:1"
       id="ellipse13572"
       cx="16.933332"
       cy="21.66522"
       rx="14.16143"
       ry="9.4295454"
       mask="url(#mask6806-6)"
       transform="translate(3.5676271e-7,-0.59400856)" />
  </g>
  <g
     id="layer1"
     style="display:inline">
    <ellipse
       style="opacity:1;fill:none;fill-rule:evenodd;stroke:#003266;stroke-width:0.132292;stroke-linecap:round;stroke-linejoin:round;stroke-miterlimit:4;stroke-dasharray:none;stroke-opacity:1"
       id="ellipse1758"
       clip-path="url(#clipPath7222)"
       d="M 31.095558,21.166668 A 14.162226,9.9288921 0 0 1 16.933332,31.09556 14.162226,9.9288921 0 0 1 2.7711067,21.166668 14.162226,9.9288921 0 0 1 16.933332,11.237776 14.162226,9.9288921 0 0 1 31.095558,21.166668 Z"
       transform="translate(0,-2.6458319)" />
    <ellipse
       style="opacity:0.75;fill:#76abe2;fill-opacity:1;fill-rule:evenodd;stroke:#76abe2;stroke-width:0.132292;stroke-linecap:round;stroke-linejoin:round;stroke-miterlimit:4;stroke-dasharray:none;stroke-opacity:1"
       id="ellipse3286"
       cx="16.933332"
       cy="17.197792"
       rx="14.162226"
       ry="9.9288921" />
    <path
       d="M 0,0"
       id="path2823"
       style="stroke:#d53d3d;stroke-width:0.132292;stroke-miterlimit:4;stroke-dasharray:none;stroke-opacity:1" />
    <g
       id="g5750"
       transform="translate(0,-2.6457075)"
       style="opacity:0.5;stroke:#003266;stroke-width:0.132292;stroke-miterlimit:4;stroke-dasharray:none;stroke-opacity:1">
      <path
         style="opacity:1;fill:#003266;fill-opacity:1;fill-rule:evenodd;stroke:#003266;stroke-width:0.132292;stroke-linecap:round;stroke-linejoin:round;stroke-miterlimit:4;stroke-dasharray:none;stroke-opacity:1"
         id="rect3763"
         width="28.324453"
         height="1.3230438"
         x="2.7711072"
         y="19.843626"
         ry="7.5199085e-15"
         clip-path="url(#clipPath4162)"
         d="M 2.7711072,19.843626 H 31.095561 c 0,0 0,0 0,0 v 1.323044 c 0,0 0,0 0,0 H 2.7711072 c 0,0 0,0 0,0 v -1.323044 c 0,0 0,0 0,0 z" />
      <path
         style="fill:#003266;fill-opacity:1;fill-rule:evenodd;stroke:#003266;stroke-width:0.132292;stroke-linecap:round;stroke-linejoin:round;stroke-miterlimit:4;stroke-dasharray:none;stroke-opacity:1"
         id="rect3917"
         width="28.293295"
         x="2.8022647"
         y="21.16667"
         height="10.583328"
         mask="url(#mask4084)"
         clip-path="url(#clipPath4244)"
         d="M 2.8022647,21.16667 H 31.09556 V 31.749998 H 2.8022647 Z" />
    </g>
    <path
       style="opacity:0.5;fill:#003266;fill-opacity:1;stroke:#003266;stroke-width:0.132292;stroke-linecap:butt;stroke-linejoin:miter;stroke-miterlimit:4;stroke-dasharray:none;stroke-opacity:1"
       d="m 2.7711067,17.197792 v 1.323046"
       id="path4289" />
    <path
       style="opacity:0.5;fill:none;stroke:#003266;stroke-width:0.132292;stroke-linecap:butt;stroke-linejoin:miter;stroke-miterlimit:4;stroke-dasharray:none;stroke-opacity:1"
       d="m 31.095562,17.197794 v 1.323044"
       id="path4404" />
    <ellipse
       style="opacity:0.5;fill:#003266;fill-opacity:1;fill-rule:evenodd;stroke:#003266;stroke-width:0.132292;stroke-linecap:round;stroke-linejoin:round;stroke-miterlimit:4;stroke-dasharray:none;stroke-opacity:1"
       id="ellipse6328"
       cx="16.933332"
       cy="21.66522"
       rx="14.16143"
       ry="9.4295454"
       mask="url(#mask6806)"
       transform="translate(-1.254427e-4,-2.6458502)" />
  </g>
  <g
     id="layer3"
     style="display:inline;opacity:0.645986;filter:url(#filter11938)">
    <rect
       style="fill:#000000;fill-opacity:1;fill-rule:evenodd;stroke:none;stroke-width:0.326682;stroke-linecap:round;stroke-linejoin:round;stroke-miterlimit:4;stroke-dasharray:none;stroke-opacity:1"
       id="rect1839"
       width="6.1721992"
       height="4.4264045"
       x="6.3900189"
       y="22.639067"
       mask="url(#mask12144)"
       transform="translate(0,-2.6458319)" />
    <rect
       style="fill:#000000;fill-opacity:1;fill-rule:evenodd;stroke:none;stroke-width:0.326682;stroke-linecap:round;stroke-linejoin:round;stroke-miterlimit:4;stroke-dasharray:none;stroke-opacity:1"
       id="rect1841"
       width="6.1721992"
       height="4.4264045"
       x="14.010019"
       y="19.993235" />
    <rect
       style="fill:#000000;fill-opacity:1;fill-rule:evenodd;stroke:none;stroke-width:0.326682;stroke-linecap:round;stroke-linejoin:round;stroke-miterlimit:4;stroke-dasharray:none;stroke-opacity:1"
       id="rect1843"
       width="6.1721992"
       height="4.4264045"
       x="21.630024"
       y="22.639067"
       mask="url(#mask12138)"
       transform="translate(0,-2.6458319)" />
    <rect
       style="fill:#000000;fill-opacity:1;fill-rule:evenodd;stroke:none;stroke-width:0.326682;stroke-linecap:round;stroke-linejoin:round;stroke-miterlimit:4;stroke-dasharray:none;stroke-opacity:1"
       id="rect1845"
       width="6.1721992"
       height="4.4264045"
       x="21.630024"
       y="14.528532" />
    <rect
       style="fill:#000000;fill-opacity:1;fill-rule:evenodd;stroke:none;stroke-width:0.326682;stroke-linecap:round;stroke-linejoin:round;stroke-miterlimit:4;stroke-dasharray:none;stroke-opacity:1"
       id="rect1847"
       width="6.1721992"
       height="4.4264045"
       x="14.010019"
       y="9.0638351" />
    <rect
       style="opacity:0.574094;fill:#ffffff;fill-opacity:1;fill-rule:evenodd;stroke:none;stroke-width:0.326682;stroke-linecap:round;stroke-linejoin:round;stroke-miterlimit:4;stroke-dasharray:none;stroke-opacity:1"
       id="rect2202"
       width="6.1721992"
       height="4.4264045"
       x="14.010019"
       y="14.528532" />
    <rect
       style="opacity:0.574094;fill:#ffffff;fill-opacity:1;fill-rule:evenodd;stroke:none;stroke-width:0.326682;stroke-linecap:round;stroke-linejoin:round;stroke-miterlimit:4;stroke-dasharray:none;stroke-opacity:1"
       id="rect2204"
       width="6.1721992"
       height="4.4264045"
       x="21.630024"
       y="11.709667"
       mask="url(#mask12156)"
       transform="translate(0,-2.6458319)" />
    <rect
       style="opacity:0.574094;fill:#ffffff;fill-opacity:1;fill-rule:evenodd;stroke:none;stroke-width:0.326682;stroke-linecap:round;stroke-linejoin:round;stroke-miterlimit:4;stroke-dasharray:none;stroke-opacity:1"
       id="rect2206"
       width="6.1721992"
       height="4.4264045"
       x="6.3900189"
       y="11.709667"
       mask="url(#mask12150)"
       transform="translate(0,-2.6458319)" />
    <rect
       style="opacity:0.574094;fill:#ffffff;fill-opacity:1;fill-rule:evenodd;stroke:none;stroke-width:0.326682;stroke-linecap:round;stroke-linejoin:round;stroke-miterlimit:4;stroke-dasharray:none;stroke-opacity:1"
       id="rect2208"
       width="6.1721992"
       height="4.4264045"
       x="6.3900189"
       y="14.528532" />
  </g>
  <g
     id="layer4"
     style="display:inline">
    <path
       style="fill:#000000;fill-opacity:1;stroke:#000000;stroke-width:0.264583px;stroke-linecap:butt;stroke-linejoin:miter;stroke-opacity:1"
       d="m 20.108333,11.112501 c -0.15272,-0.442164 -0.226982,-0.861256 -0.428017,-1.2649509 -0.02978,-0.0598 -0.04154,-0.140368 -0.09169,-0.188697 -0.104346,-0.100549 -0.02734,0.03608 -0.12893,-0.06505 -0.01662,-0.01655 -0.01571,-0.04612 -0.03265,-0.06234 -0.05839,-0.05592 -0.388923,-0.2437 -0.452615,-0.258509 -0.121871,-0.02834 -0.01489,0.05738 -0.180335,-0.03266 -0.02699,-0.01469 -0.03767,-0.0515 -0.06518,-0.06518 -0.08859,-0.04408 -0.204325,-0.04668 -0.297705,-0.06553 -0.01005,-0.002 -0.188093,-0.06491 -0.198631,-0.06666 -0.09679,-0.01609 -0.20148,0.01576 -0.298338,0 -0.314744,-0.0512 -0.639196,-0.05045 -0.948846,0.0067 -0.18152,0.0335 -0.405106,0 -0.590494,0 -0.170712,0 -0.3784,-0.02816 -0.546515,0 -0.12108,0.02029 -0.241499,0.05677 -0.363402,0.07415 -0.265927,0.03792 -0.701526,-0.04576 -0.872123,0.234045 -0.04435,0.07274 -0.04174,0.158563 -0.06573,0.23162 -0.03029,0.09222 -0.102215,0.163338 -0.122055,0.272835 -0.01418,0.07826 0.02313,0.1812029 0,0.2574039 -0.07327,0.241317 -0.03959,0.523564 -0.03959,0.782227 0,0.131666 0.02671,0.295926 0,0.425474 -0.04334,0.210227 -0.239083,0.886734 -0.171956,1.08461 0.04341,0.127961 0.264238,0.220119 0.360605,0.279108 0.07085,0.04337 0.13026,0.108497 0.196241,0.157932 0.115615,0.08662 0.503753,0.234734 0.633517,0.273871 0.125398,0.03782 0.214841,0.01822 0.338373,0.03371 0.522477,0.06552 1.062795,0.03307 1.591389,0.03307 0.340996,0 1.264934,0.0719 1.545339,-0.0715 0.02807,-0.01436 0.04039,-0.04964 0.0666,-0.06718 0.256555,-0.171748 0.503247,-0.334479 0.689606,-0.584425 0.135264,-0.181418 0.300311,-0.335947 0.441153,-0.512782 0.03723,-0.04674 0.05634,-0.147012 0.09806,-0.18885 0.0081,-0.0082 0.04993,-0.0475 0.0567,-0.06914 0.0249,-0.07959 0,-0.21983 0,-0.3029 0,-0.167447 0.02397,-0.184791 -0.122769,-0.280407 z"
       id="path12647" />
    <path
       style="fill:#000000;fill-opacity:1;stroke:#000000;stroke-width:0.264583px;stroke-linecap:butt;stroke-linejoin:miter;stroke-opacity:1"
       d="m 27.516667,16.044256 c -0.148198,-0.993916 -0.335375,-0.983865 -1.185497,-1.125552 -0.102312,-0.01705 -0.214252,-0.04632 -0.316597,-0.06519 -0.104022,-0.01919 -0.229993,0.01269 -0.333737,0 -0.345436,-0.04224 0.13176,-0.03228 -0.199142,-0.03228 -0.520104,0 -1.186701,-0.08019 -1.657613,0.158997 -0.08087,0.04107 -0.123587,0.01307 -0.194995,0.03885 -0.168616,0.06087 -0.348171,0.07076 -0.525772,0.122781 -0.105259,0.03083 -0.235399,-0.02025 -0.343713,0 -0.09839,0.01839 -0.205598,0.06675 -0.30089,0.09783 -0.337328,0.110013 -0.412351,0.409975 -0.462544,0.703149 -0.01717,0.100312 -0.08517,0.193933 -0.09922,0.294929 0,0.368835 0.02025,-0.0091 -0.03134,0.203258 -0.04701,0.193514 0,0.649726 0,0.85623 0,0.186931 0.07143,0.200714 0.15316,0.358191 0.06998,0.13483 0.07149,0.316841 0.122504,0.42048 0.01396,0.02836 0.06342,0.0073 0.09302,0.01842 0.102188,0.03832 0.181437,0.108358 0.282786,0.151256 0.203764,0.08625 0.39567,0.205804 0.611324,0.264584 0.372353,0.10149 1.075761,0.155598 1.461716,0.09974 0.160292,-0.0232 0.389145,-0.07676 0.549286,-0.125434 0.13273,-0.04035 0.249803,-0.138919 0.386364,-0.16478 0.265126,-0.05021 0.578746,-0.108374 0.831351,-0.225991 0.215604,-0.100389 0.342897,-0.257362 0.521478,-0.410862 0.214196,-0.184115 0.451419,-0.343516 0.631335,-0.56728 0.04539,-0.05645 0.01683,-0.07667 0.02665,-0.142357 0.04154,-0.27759 0.0054,0.04174 0.05764,-0.162631 0.0489,-0.191224 -5.29e-4,-0.583964 -0.07756,-0.766323 z"
       id="path12649" />
    <path
       style="fill:#000000;fill-opacity:1;stroke:#000000;stroke-width:0.264583px;stroke-linecap:butt;stroke-linejoin:miter;stroke-opacity:1"
       d="m 27.516667,20.637501 c -0.210349,-0.06032 -0.34603,-0.233071 -0.523832,-0.342041 -0.123923,-0.07595 -0.285324,-0.03755 -0.419415,-0.05659 -0.371491,-0.05274 -0.735411,-0.06679 -1.115832,-0.06679 -0.03468,0 -0.06936,0 -0.104044,0 -0.02086,-0.01103 -0.03923,-0.02968 -0.06258,-0.03307 -0.211789,-0.03073 -0.799154,-0.02983 -1.011025,0 -0.292401,0.04116 -0.567771,0.166327 -0.854308,0.209542 -0.32063,0.04836 -0.665023,-0.02314 -0.981768,0.03307 -0.02823,0.005 -0.153067,0.09947 -0.169363,0.120987 -0.02182,0.02881 -0.01673,0.07198 -0.03696,0.101924 -0.08533,0.126288 -0.108422,0.06089 -0.164616,0.198327 -0.124739,0.305077 -0.107584,0.678979 -0.06653,0.997478 0.02165,0.167968 0.129856,0.320158 0.158643,0.485229 0.05495,0.315125 -0.01644,0.650701 0.03761,0.967866 0.01694,0.09941 -0.0271,0.216993 0,0.313591 0.01355,0.04828 0.05753,0.101363 0.07673,0.147142 0.01771,0.04224 0.01385,0.09337 0.03872,0.131831 0.02046,0.03165 0.08012,0.01056 0.106496,0.01781 0.377813,0.104095 0.790615,-0.100166 1.161819,-0.192403 0.219678,-0.05459 0.41224,-0.183363 0.583031,-0.321668 0.09606,-0.07779 0.142455,-0.168638 0.254959,-0.22864 0.228861,-0.122058 0.479521,-0.209112 0.707002,-0.333969 0.543941,-0.298551 1.106907,-0.625416 1.60409,-0.995863 0.249452,-0.185866 0.679715,-0.527029 0.757394,-0.856101 0.01479,-0.06271 0.02024,-0.270224 0.02379,-0.297673 z"
       id="path12651" />
    <path
       style="fill:#000000;fill-opacity:1;stroke:#000000;stroke-width:0.264583px;stroke-linecap:butt;stroke-linejoin:miter;stroke-opacity:1"
       d="m 20.108333,20.637501 c -0.178411,-0.129377 -0.342787,-0.280735 -0.535232,-0.388129 -0.07497,-0.04184 -0.764933,0.0098 -0.88033,0.03307 -0.09943,0.02001 -0.196094,0.05572 -0.296964,0.06634 -0.05988,0.0063 -0.121346,-0.01047 -0.180641,0 -0.09989,0.01765 -0.198121,0.04952 -0.289707,0.09313 -0.02665,0.01269 -0.037,0.051 -0.0651,0.06002 -0.03872,0.01242 -0.08188,-0.0067 -0.121986,0 -0.05578,0.0093 -0.09868,0.05961 -0.154075,0.07097 -0.03441,0.0071 -0.07145,-0.0091 -0.105383,0 -0.10017,0.02676 -0.170715,0.07393 -0.274824,0.09199 -0.176888,0.03068 -0.640689,-2.06e-4 -0.799259,-0.03163 -0.05819,-0.01153 -0.10843,-0.04916 -0.165437,-0.06556 -0.171869,-0.04943 -0.335746,-0.0504 -0.50888,-0.07048 -0.28462,-0.03301 -0.575556,-0.08528 -0.784781,0.166509 -0.130884,0.157511 -0.188929,0.815625 -0.131262,0.99594 0.0088,0.02755 0.04991,0.03654 0.05836,0.0642 0.0157,0.05144 0.07869,0.524271 0.06508,0.590661 -0.02908,0.141846 -0.107116,0.28045 -0.125792,0.429442 -0.02085,0.166346 -0.101543,0.742381 0.03073,0.881723 0.10034,0.105705 0.286158,0.06298 0.414819,0.09795 0.598284,0.162629 1.100022,0.01433 1.685449,-0.09217 0.315735,-0.05744 0.525598,-0.03874 0.827,-0.06615 0.165549,-0.01505 0.32224,-0.04887 0.492951,-0.03307 0.287665,0.02662 0.683526,0.112105 0.948119,-0.06401 0.197428,-0.131406 0.35957,-0.38574 0.461225,-0.590425 0.03452,-0.06951 0.02551,-0.156221 0.06307,-0.224137 0.02202,-0.03981 0.07371,-0.05836 0.09371,-0.09922 0.06479,-0.132395 0.07972,-0.345618 0.100981,-0.491443 0.02651,-0.181855 0.02551,-0.358655 0.06385,-0.53774 0.02556,-0.119425 -0.03432,-0.0038 0,-0.14733 0.02404,-0.100524 0.06056,-0.211366 0.09458,-0.311276 0.0095,-0.02789 0.0056,-0.149748 0.02074,-0.16959 0.01231,-0.01616 0.04088,-0.0075 0.05815,-0.01819 0.03539,-0.02191 -0.0215,-0.161888 -0.05914,-0.241421 z"
       id="path12653" />
    <path
       style="fill:#000000;fill-opacity:1;stroke:#000000;stroke-width:0.264583px;stroke-linecap:butt;stroke-linejoin:miter;stroke-opacity:1"
       d="m 12.562218,22.754166 c -0.338405,-0.415564 0.331169,-0.962988 0.205277,-1.420734 -0.02775,-0.10091 -0.09763,-0.19515 -0.122591,-0.301681 -0.01115,-0.04758 0.0059,-0.0981 0,-0.146608 -0.0076,-0.06277 -0.111167,-0.32092 -0.175356,-0.355651 -0.09269,-0.05016 -0.690828,-0.092 -0.760821,-0.0999 -0.64686,-0.07303 -1.292611,-0.0083 -1.9236641,0.0975 -0.4256807,0.07136 -0.8631936,0.194864 -1.3039529,0.131414 -0.3327808,-0.04791 -0.6828627,-0.204689 -1.030966,-0.132431 -0.2246431,0.04663 -0.4184422,0.164914 -0.544372,0.354779 -0.049124,0.07406 -0.038673,0.207587 -0.054811,0.287318 -0.00749,0.037 -0.1123738,0.172518 -0.062257,0.220491 0.012391,0.01186 0.031655,0.01321 0.047482,0.01982 0.041096,0.03072 0.087126,0.05577 0.1232877,0.09217 0.055453,0.05582 0.097094,0.156021 0.1478936,0.218309 0.2985709,0.366088 0.4427768,0.309759 0.8619567,0.517176 0.1202007,0.05948 0.2222093,0.158619 0.3405619,0.218728 0.099723,0.05065 0.2258137,0.04448 0.3316647,0.09344 0.3832257,0.177264 0.7261839,0.432174 1.1160586,0.597975 0.1625076,0.06911 0.3486988,0.09911 0.5182318,0.145136 0.182876,0.04965 0.01494,0.01316 0.223878,0.09074 0.119121,0.04423 0.235823,0.04546 0.355548,0.0677 0.08761,0.01627 0.176976,0.08244 0.262554,0.09647 0.138481,0.02271 0.285647,0.05178 0.430007,0.05178 0.184185,0 0.928063,-0.324362 1.005617,-0.509056 0.01612,-0.02495 -0.01041,-0.0581 0,-0.08415 0.04292,-0.107353 0.03589,-0.124721 0.0088,-0.250736 z"
       id="path12655" />
    <path
       style="opacity:0.250239;fill:#ffffff;fill-opacity:1;stroke:#ffffff;stroke-width:0.264583px;stroke-linecap:butt;stroke-linejoin:miter;stroke-opacity:1"
       d="M 12.561999,10.050277 C 12.38672,9.8832191 12.215841,9.7114211 12.036162,9.5491051 c -0.0711,-0.06423 -0.257365,-0.0648 -0.337988,-0.08104 -0.70991,-0.142976 -1.180964,0.111053 -1.8203609,0.403271 -0.1427392,0.06523 -0.3504734,0.1658959 -0.5032295,0.1952079 -0.3240435,0.06218 -0.6644659,0.09211 -0.9876902,0.172913 -0.5541023,0.138525 -0.6779824,0.294861 -0.9987349,0.721666 -0.014666,0.01951 -0.022048,0.04356 -0.033073,0.06534 -0.01284,0.02378 -0.022188,0.04981 -0.038518,0.07134 -0.2320119,0.305951 -0.4963645,0.38605 -0.4963645,0.858792 0,0.03881 -0.062265,0.722426 -0.012549,0.740924 0.1195401,0.04448 0.2605699,0.06898 0.3838097,0.09664 0.07623,0.01711 0.058417,0.05427 0.1283634,0.07295 0.042463,0.01134 0.08444,-0.01062 0.1268931,0 0.2883024,0.07213 0.6300626,0.101622 0.9353373,0.06427 0.2076794,-0.02541 0.3855992,-0.110157 0.5809985,-0.162486 0.099409,-0.02662 0.2448338,0 0.3478369,0 0.4596963,0 0.6052897,0.08243 0.9995591,0.163283 0.146689,0.03008 0.865674,0.02488 1.01805,0 0.09443,-0.01542 0.430753,-0.135356 0.502643,-0.189676 0.08561,-0.06469 0.11516,-0.157349 0.172875,-0.239036 0.249565,-0.35322 0.406168,-0.705875 0.507328,-1.124088 0.02637,-0.109023 -0.03247,-0.216159 -0.03247,-0.32647 0,-0.110304 -0.03974,-0.415381 0,-0.511103 0.09663,-0.232733 0.220926,-0.22594 0.08312,-0.49152 z"
       id="path13260" />
    <path
       style="opacity:0.250239;fill:#ffffff;fill-opacity:1;stroke:#ffffff;stroke-width:0.264583px;stroke-linecap:butt;stroke-linejoin:miter;stroke-opacity:1"
       d="m 12.199339,15.345834 c -0.0862,-0.121421 -0.159702,-0.252936 -0.258593,-0.364263 -0.112705,-0.12688 -0.339511,-0.103472 -0.490438,-0.103472 -0.133848,0 -0.292251,-0.02618 -0.423847,0 -0.10225,0.02034 -0.208045,0.07264 -0.306634,0.08751 -0.346214,0.05224 0.04811,-0.06063 -0.276126,0.03307 -0.205888,0.0595 -0.386086,0.172516 -0.6004901,0.217311 -0.2540323,0.05307 -0.5199007,-0.05915 -0.7622072,-0.106736 -0.1556832,-0.03058 -0.2888615,-0.048 -0.4339558,-0.100543 -0.1087284,-0.03938 -0.6136444,-0.01512 -0.7261297,0 -0.1021638,0.01373 -0.1929323,0.05206 -0.2883604,0.07184 -0.028594,0.0059 -0.060542,-0.01097 -0.087607,0 -0.086077,0.03488 -0.1930191,0.14071 -0.2450129,0.21034 -0.049142,0.06581 -0.141115,0.09553 -0.1860291,0.150443 -0.078094,0.09548 -0.1363786,0.287042 -0.1609206,0.40158 -0.044406,0.207245 0.020817,0.45155 -0.030284,0.654906 -0.080717,0.321215 -0.2870097,0.458062 -0.2230374,0.838704 0.042503,0.252898 0.4020722,0.548093 0.6240756,0.629317 0.1179473,0.04315 0.109442,0.0097 0.19543,0.06495 0.1662549,0.106892 0.1954602,0.352271 0.3880575,0.420013 0.6944133,0.244244 1.4364338,0.228458 2.1073501,-0.08023 0.144169,-0.06633 0.254849,-0.198414 0.39743,-0.270936 0.147176,-0.07486 0.319536,-0.16646 0.473525,-0.230386 0.114964,-0.04773 0.162378,-0.0158 0.287915,-0.03227 0.438328,-0.05751 -0.211583,-0.0057 0.19938,-0.06437 0.312709,-0.04466 0.593565,-0.04265 0.855657,-0.255653 0.155909,-0.126706 0.226345,-0.32216 0.263841,-0.515925 0.01417,-0.0732 -0.0083,-0.149581 0,-0.22367 0.03773,-0.335052 0.108545,-0.826045 -0.03383,-1.145196 -0.01183,-0.02651 -0.212886,-0.214927 -0.259161,-0.286335 z"
       id="path13262" />
    <path
       style="opacity:0.250239;fill:#ffffff;fill-opacity:1;stroke:#ffffff;stroke-width:0.264583px;stroke-linecap:butt;stroke-linejoin:miter;stroke-opacity:1"
       d="m 20.108333,15.345834 c -0.139956,0.01004 -0.282016,0.0563 -0.419868,0.03013 -0.16535,-0.0314 -0.306466,-0.140024 -0.464446,-0.198066 -0.05221,-0.01918 -0.110885,-0.01504 -0.163631,-0.03269 -0.192806,-0.06453 -0.272457,-0.131983 -0.487189,-0.158761 -0.389884,-0.04862 -0.563621,0.20745 -0.905357,0.274385 -0.03195,0.0063 -0.06629,-0.0087 -0.09766,0 -0.04262,0.0118 -0.0754,0.04953 -0.118401,0.05984 -0.316749,0.07592 -0.565096,-0.164036 -0.849815,-0.164036 -0.372491,0 -0.98384,0.192827 -1.276196,0.437217 -0.359021,0.300116 -0.633002,1.104749 -0.699937,1.566072 -0.01891,0.130287 0,0.285276 0,0.415731 0,0.0641 -0.02032,0.131516 0,0.192315 0.04084,0.12221 0.161577,0.282485 0.264547,0.355058 0.07294,0.0514 0.235221,0.09557 0.309598,0.132291 0.05691,0.02809 0.104201,0.07456 0.163069,0.09826 0.404419,0.162842 0.865659,0.09922 1.29132,0.09922 0.240383,0 0.905824,0.04866 1.094434,0 0.09078,-0.02342 0.16403,-0.09102 0.248214,-0.132292 0.07471,-0.03662 0.158146,-0.05628 0.228162,-0.101233 0.262826,-0.168743 0.46583,-0.498415 0.566564,-0.787248 0.03182,-0.09123 -0.04432,-0.04516 0.03162,-0.130842 0.05054,-0.05702 0.194155,-0.0857 0.258302,-0.136911 0.07022,-0.05606 0.174186,-0.141821 0.23646,-0.204013 0.112801,-0.112654 0.212374,-0.256204 0.333874,-0.369716 0.05984,-0.05591 0.142081,-0.102598 0.195605,-0.158925 0.05346,-0.05626 0.06304,-0.161939 0.09594,-0.226922 0.15036,-0.296936 0.150716,-0.523494 0.16479,-0.85886 z"
       id="path13264" />
    <path
       style="opacity:0.250239;fill:#ffffff;fill-opacity:1;stroke:#ffffff;stroke-width:0.264583px;stroke-linecap:butt;stroke-linejoin:miter;stroke-opacity:1"
       d="m 22.225,12.822083 c 0.251888,0.02875 0.503945,0.05607 0.755665,0.08626 0.366151,0.04391 0.642264,0.115373 0.999314,0.06474 0.365462,-0.05182 0.95021,-0.251047 1.321106,-0.170726 0.246093,0.05329 0.492381,0.141161 0.744522,0.187251 0.214926,0.03929 0.425607,0.04206 0.639308,0.06615 0.202748,0.02285 0.421339,0.06964 0.622488,9.79e-4 0.09425,-0.03217 0.275976,-0.247268 0.341445,-0.328539 0.05292,-0.0657 0.05661,-0.17178 0.09729,-0.242746 0.04944,-0.08625 0.06737,-0.03475 0.08994,-0.129117 0.05635,-0.235576 -0.05547,-0.363509 -0.163602,-0.542012 C 27.307343,11.211541 27.248915,11.257682 26.706239,10.925811 26.453518,10.77126 26.194224,10.60614 25.953562,10.430545 25.738469,10.273606 25.630972,10.148143 25.364138,10.04401 25.169414,9.96802 24.955331,9.97349 24.75472,9.94479 c -0.422272,-0.0604 0.212035,-0.0062 -0.303381,-0.07153 -0.212911,-0.02699 -0.06441,0.03936 -0.325219,0 -0.259466,-0.03915 -0.514965,-0.148224 -0.786487,-0.09412 -0.01522,0.003 -0.0183,0.02772 -0.03292,0.03292 -0.120393,0.04287 -0.262636,0.07142 -0.383339,0.131846 -0.164396,0.0823 -0.04598,0.04212 -0.171707,0.17057 -0.08065,0.0824 -0.110596,0.05721 -0.177318,0.142229 -0.06498,0.08279 -0.117947,0.177065 -0.18016,0.26022 -0.0055,0.0073 -0.137186,0.137521 -0.13849,0.139639 -0.04358,0.07076 -0.06826,0.186884 -0.09925,0.264413 -0.02244,0.05615 -0.07625,0.09774 -0.09271,0.155917 -0.01103,0.03895 0.0068,0.08154 0,0.121442 -0.01298,0.07611 -0.07726,0.152091 -0.09625,0.226658 -0.02111,0.08285 -0.0094,0.185241 -0.03046,0.268176 -0.02404,0.09476 -0.134931,0.735268 -0.06615,0.840601 0.124986,0.191397 -0.04417,-0.07557 0.06195,0.03128 0.108424,0.109176 0.142211,0.167867 0.292173,0.257029 z"
       id="path13266" />
  </g>
  <g
     id="layer2"
     style="display:inline">
    <ellipse
       style="opacity:0.3;fill:#8fc6ff;fill-opacity:1;fill-rule:evenodd;stroke:none;stroke-width:0.132292;stroke-linecap:round;stroke-linejoin:round;stroke-miterlimit:4;stroke-dasharray:none;stroke-opacity:1"
       id="ellipse7392"
       cx="16.933332"
       cy="14.552084"
       rx="14.816666"
       ry="10.583334" />
    <g
       id="g2819"
       style="opacity:0.3;stroke-width:0.132292;stroke-miterlimit:4;stroke-dasharray:none"
       transform="translate(0,-2.6458319)">
      <path
         id="rect1788"
         clip-path="url(#clipPath2420-3)"
         d="M 2.1166666,16.933332 H 31.749998 c 0,0 0,0 0,0 v 4.233334 c 0,0 0,0 0,0 H 2.1166666 c 0,0 0,0 0,0 v -4.233334 c 0,0 0,0 0,0 z"
         style="fill:#8fc6ff;fill-opacity:1;fill-rule:evenodd;stroke:none;stroke-width:0.132292;stroke-linecap:round;stroke-linejoin:round;stroke-miterlimit:4;stroke-dasharray:none;stroke-opacity:1" />
      <path
         id="rect1790"
         clip-path="url(#clipPath2502-7)"
         mask="url(#mask2108-3)"
         d="M 2.1166666,21.166668 H 31.749998 c 0,0 0,0 0,0 v 10.583334 c 0,0 0,0 0,0 H 2.1166666 c 0,0 0,0 0,0 V 21.166668 c 0,0 0,0 0,0 z"
         style="fill:#8fc6ff;fill-opacity:1;fill-rule:evenodd;stroke:none;stroke-width:0.132292;stroke-linecap:round;stroke-linejoin:round;stroke-miterlimit:4;stroke-dasharray:none;stroke-opacity:1" />
    </g>
    <path
       style="opacity:0.803;fill:#ffffff;fill-opacity:1;fill-rule:evenodd;stroke:none;stroke-width:0.132292;stroke-linecap:round;stroke-linejoin:round;stroke-miterlimit:4;stroke-dasharray:none;stroke-opacity:0.999058"
       id="rect8744"
       width="3.1749997"
       height="7.4083328"
       x="10.583334"
       y="25.399998"
       mask="url(#mask9709)"
       clip-path="url(#clipPath9937)"
       d="m 10.583334,25.399998 h 3.175 v 7.408333 h -3.175 z"
       transform="translate(0,-2.6458319)" />
    <path
       style="opacity:0.803;fill:#ffffff;fill-opacity:1;fill-rule:evenodd;stroke:none;stroke-width:0.132292;stroke-linecap:round;stroke-linejoin:round;stroke-miterlimit:4;stroke-dasharray:none;stroke-opacity:0.999058"
       id="rect10075"
       width="2.1166666"
       height="6.3499994"
       x="7.4083328"
       y="24.341667"
       clip-path="url(#clipPath10215)"
       d="m 7.4083328,24.341667 h 2.1166666 v 6.35 H 7.4083328 Z"
       mask="url(#mask10225)"
       transform="translate(0,-2.6458319)" />
    <path
       style="opacity:0.803;fill:#ffffff;fill-opacity:1;fill-rule:evenodd;stroke:none;stroke-width:0.132292;stroke-linecap:round;stroke-linejoin:round;stroke-miterlimit:4;stroke-dasharray:none;stroke-opacity:0.999058"
       id="rect10323"
       width="1.0583333"
       height="6.3499994"
       x="14.816666"
       y="26.458332"
       clip-path="url(#clipPath10465)"
       d="m 14.816666,26.458332 h 1.058333 v 6.349999 h -1.058333 z"
       mask="url(#mask10475)"
       transform="translate(0,-2.6458319)" />
    <path
       style="fill:none;fill-rule:evenodd;stroke:#000000;stroke-width:0.132292;stroke-linecap:round;stroke-linejoin:round;stroke-miterlimit:4;stroke-dasharray:none;stroke-opacity:1"
       id="path1512"
       clip-path="url(#clipPath7988)"
       d="M 31.749998,21.166668 A 14.816666,10.583334 0 0 1 16.933332,31.750002 14.816666,10.583334 0 0 1 2.1166668,21.166668 14.816666,10.583334 0 0 1 16.933332,10.583334 14.816666,10.583334 0 0 1 31.749998,21.166668 Z"
       transform="translate(0,-2.6458319)" />
    <ellipse
       style="fill:none;fill-rule:evenodd;stroke:none;stroke-width:0.132292;stroke-linecap:round;stroke-linejoin:round;stroke-miterlimit:4;stroke-dasharray:none;stroke-opacity:1"
       id="ellipse1760"
       cx="16.933332"
       cy="14.552084"
       rx="14.816666"
       ry="10.583334" />
    <ellipse
       style="fill:none;fill-rule:evenodd;stroke:none;stroke-width:0.132292;stroke-linecap:round;stroke-linejoin:round;stroke-miterlimit:4;stroke-dasharray:none;stroke-opacity:1"
       id="ellipse1762"
       cx="16.933332"
       cy="14.552084"
       rx="14.424001"
       ry="10.190685" />
    <path
       style="fill:none;stroke:#000000;stroke-width:0.132292;stroke-linecap:butt;stroke-linejoin:miter;stroke-miterlimit:4;stroke-dasharray:none;stroke-opacity:1"
       d="M 2.1166666,18.520832 V 14.287499"
       id="path2912" />
    <path
       style="fill:none;stroke:#000000;stroke-width:0.132292;stroke-linecap:butt;stroke-linejoin:miter;stroke-miterlimit:4;stroke-dasharray:none;stroke-opacity:1"
       d="M 31.750001,18.520832 V 14.287499"
       id="path2914" />
    <ellipse
       style="fill:#f0f8ff;fill-opacity:1;fill-rule:evenodd;stroke:#003266;stroke-width:0.132292;stroke-linecap:round;stroke-linejoin:round;stroke-miterlimit:4;stroke-dasharray:none;stroke-opacity:0.999058"
       id="ellipse7484"
       clip-path="url(#clipPath7906)"
       d="M 31.749998,17.197916 A 14.816666,10.583334 0 0 1 16.933332,27.78125 14.816666,10.583334 0 0 1 2.1166668,17.197916 14.816666,10.583334 0 0 1 16.933332,6.6145821 14.816666,10.583334 0 0 1 31.749998,17.197916 Z"
       transform="translate(0,-2.6458319)" />
    <ellipse
       style="opacity:0.803;fill:url(#radialGradient11224);fill-opacity:1;fill-rule:evenodd;stroke:none;stroke-width:0.132292;stroke-linecap:round;stroke-linejoin:round;stroke-miterlimit:4;stroke-dasharray:none;stroke-opacity:0.999058"
       id="path11136"
       cx="16.933332"
       cy="16.933334"
       rx="13.758332"
       ry="8.9958334" />
    <path
       style="opacity:0.8;fill:#ffffff;fill-opacity:1;fill-rule:evenodd;stroke:none;stroke-width:0.132292;stroke-linecap:round;stroke-linejoin:round;stroke-miterlimit:4;stroke-dasharray:none;stroke-opacity:0.999058"
       id="path8438"
       clip-path="url(#clipPath8594)"
       transform="matrix(0.9553731,0,0,0.9553731,0.75568249,-2.7988878)"
       d="M 31.749998,21.292068 A 14.816666,10.054167 0 0 1 16.933332,31.346235 14.816666,10.054167 0 0 1 2.1166668,21.292068 14.816666,10.054167 0 0 1 16.933332,11.237902 14.816666,10.054167 0 0 1 31.749998,21.292068 Z" />
  </g>
</svg>
