<?xml version="1.0" encoding="UTF-8" standalone="no"?>
<!-- Created with Inkscape (http://www.inkscape.org/) -->

<svg
   width="128"
   height="128"
   viewBox="0 0 33.866666 33.866666"
   version="1.1"
   id="svg5"
   sodipodi:docname="128.svg"
   inkscape:version="1.2 (dc2aedaf03, 2022-05-15)"
   xmlns:inkscape="http://www.inkscape.org/namespaces/inkscape"
   xmlns:sodipodi="http://sodipodi.sourceforge.net/DTD/sodipodi-0.dtd"
   xmlns:xlink="http://www.w3.org/1999/xlink"
   xmlns="http://www.w3.org/2000/svg"
   xmlns:svg="http://www.w3.org/2000/svg">
  <sodipodi:namedview
     id="namedview94"
     pagecolor="#505050"
     bordercolor="#ffffff"
     borderopacity="1"
     inkscape:showpageshadow="0"
     inkscape:pageopacity="0"
     inkscape:pagecheckerboard="1"
     inkscape:deskcolor="#505050"
     showgrid="false"
     inkscape:zoom="6.8125"
     inkscape:cx="43.669725"
     inkscape:cy="64.073394"
     inkscape:window-width="1920"
     inkscape:window-height="1019"
     inkscape:window-x="0"
     inkscape:window-y="1110"
     inkscape:window-maximized="1"
     inkscape:current-layer="svg5" />
  <defs
     id="defs2">
    <linearGradient
       id="linearGradient2240">
      <stop
         style="stop-color:#000000;stop-opacity:1;"
         offset="0"
         id="stop2234" />
      <stop
         style="stop-color:#000000;stop-opacity:0.6"
         offset="0.65591156"
         id="stop2242" />
      <stop
         style="stop-color:#000000;stop-opacity:0;"
         offset="1"
         id="stop2238" />
    </linearGradient>
    <linearGradient
       id="linearGradient1398">
      <stop
         style="stop-color:#acacac;stop-opacity:1;"
         offset="0"
         id="stop1380" />
      <stop
         style="stop-color:#c6c6c6;stop-opacity:1;"
         offset="0.10158287"
         id="stop1382" />
      <stop
         style="stop-color:#ffffff;stop-opacity:1;"
         offset="0.11513653"
         id="stop1384" />
      <stop
         style="stop-color:#ffffff;stop-opacity:1;"
         offset="0.17769848"
         id="stop1386" />
      <stop
         style="stop-color:#c6c6c6;stop-opacity:1;"
         offset="0.21213067"
         id="stop1388" />
      <stop
         style="stop-color:#c6c6c6;stop-opacity:1;"
         offset="0.7011807"
         id="stop1390" />
      <stop
         style="stop-color:#ffffff;stop-opacity:1;"
         offset="0.76391858"
         id="stop1392" />
      <stop
         style="stop-color:#ffffff;stop-opacity:1;"
         offset="0.95664978"
         id="stop1394" />
      <stop
         style="stop-color:#e1e1e1;stop-opacity:1;"
         offset="1"
         id="stop1396" />
    </linearGradient>
    <linearGradient
       id="linearGradient1200">
      <stop
         style="stop-color:#d9eaf6;stop-opacity:1"
         offset="0"
         id="stop1194" />
      <stop
         style="stop-color:#cfd6dc;stop-opacity:1"
         offset="0.75246203"
         id="stop1196" />
      <stop
         style="stop-color:#eff0f0;stop-opacity:1"
         offset="1"
         id="stop1198" />
    </linearGradient>
    <linearGradient
       id="linearGradient81653">
      <stop
         style="stop-color:#000000;stop-opacity:1"
         offset="0"
         id="stop81635" />
      <stop
         style="stop-color:#000000;stop-opacity:1"
         offset="0.10158287"
         id="stop81637" />
      <stop
         style="stop-color:#d3eaff;stop-opacity:1"
         offset="0.11513653"
         id="stop81639" />
      <stop
         style="stop-color:#d3eaff;stop-opacity:1"
         offset="0.17769848"
         id="stop81641" />
      <stop
         style="stop-color:#000000;stop-opacity:1"
         offset="0.21213067"
         id="stop81643" />
      <stop
         style="stop-color:#000000;stop-opacity:1"
         offset="0.7011807"
         id="stop81645" />
      <stop
         style="stop-color:#d3eaff;stop-opacity:1"
         offset="0.76391858"
         id="stop81647" />
      <stop
         style="stop-color:#000000;stop-opacity:1"
         offset="0.95664978"
         id="stop81649" />
      <stop
         style="stop-color:#000000;stop-opacity:1"
         offset="1"
         id="stop81651" />
    </linearGradient>
    <linearGradient
       id="linearGradient79583">
      <stop
         style="stop-color:#ffffff;stop-opacity:0.2121458"
         offset="0"
         id="stop79579" />
      <stop
         style="stop-color:#dbe8ff;stop-opacity:0.58039218"
         offset="0.9486351"
         id="stop80699" />
      <stop
         style="stop-color:#ffffff;stop-opacity:0.74108984"
         offset="1"
         id="stop79581" />
    </linearGradient>
    <linearGradient
       id="linearGradient78809-3">
      <stop
         style="stop-color:#334756;stop-opacity:1"
         offset="0"
         id="stop78805" />
      <stop
         style="stop-color:#2f4759;stop-opacity:1"
         offset="0.75246203"
         id="stop79389" />
      <stop
         style="stop-color:#1a3548;stop-opacity:1"
         offset="1"
         id="stop78807" />
    </linearGradient>
    <linearGradient
       id="linearGradient8999">
      <stop
         style="stop-color:#3a77ad;stop-opacity:1"
         offset="0"
         id="stop8981" />
      <stop
         style="stop-color:#5f96c6;stop-opacity:1"
         offset="0.09020152"
         id="stop8983" />
      <stop
         style="stop-color:#d3eaff;stop-opacity:1"
         offset="0.10706306"
         id="stop8985" />
      <stop
         style="stop-color:#d3eaff;stop-opacity:1"
         offset="0.15467562"
         id="stop8987" />
      <stop
         style="stop-color:#5f96c6;stop-opacity:1"
         offset="0.18391864"
         id="stop8989" />
      <stop
         style="stop-color:#5f96c6;stop-opacity:1"
         offset="0.7820763"
         id="stop8991" />
      <stop
         style="stop-color:#d3eaff;stop-opacity:1"
         offset="0.82140368"
         id="stop8993" />
      <stop
         style="stop-color:#d3eaff;stop-opacity:1;"
         offset="0.89811748"
         id="stop8995" />
      <stop
         style="stop-color:#a5c4e1;stop-opacity:1"
         offset="1"
         id="stop8997" />
    </linearGradient>
    <linearGradient
       id="linearGradient4154-3-6">
      <stop
         style="stop-color:#3a77ad;stop-opacity:1"
         offset="0"
         id="stop4150" />
      <stop
         style="stop-color:#5f96c6;stop-opacity:1"
         offset="0.10158287"
         id="stop5696" />
      <stop
         style="stop-color:#d3eaff;stop-opacity:1"
         offset="0.11513653"
         id="stop4670" />
      <stop
         style="stop-color:#d3eaff;stop-opacity:1"
         offset="0.17769848"
         id="stop6532" />
      <stop
         style="stop-color:#5f96c6;stop-opacity:1"
         offset="0.21213067"
         id="stop5826" />
      <stop
         style="stop-color:#5f96c6;stop-opacity:1"
         offset="0.7011807"
         id="stop7368" />
      <stop
         style="stop-color:#d3eaff;stop-opacity:1"
         offset="0.76391858"
         id="stop7174" />
      <stop
         style="stop-color:#d3eaff;stop-opacity:1;"
         offset="0.95664978"
         id="stop7882" />
      <stop
         style="stop-color:#a5c4e1;stop-opacity:1"
         offset="1"
         id="stop4152" />
    </linearGradient>
    <linearGradient
       xlink:href="#linearGradient4154-3-6"
       id="linearGradient4156"
       x1="2.3812494"
       y1="18.644768"
       x2="31.485415"
       y2="18.644768"
       gradientUnits="userSpaceOnUse"
       spreadMethod="pad"
       gradientTransform="translate(0,3.3155111)" />
    <linearGradient
       xlink:href="#linearGradient8999"
       id="linearGradient8704"
       x1="2.3812494"
       y1="13.088506"
       x2="31.485415"
       y2="13.088506"
       gradientUnits="userSpaceOnUse"
       gradientTransform="translate(0,3.3155111)" />
    <radialGradient
       xlink:href="#linearGradient78809-3"
       id="radialGradient78811"
       cx="19.055696"
       cy="10.071988"
       fx="19.055696"
       fy="10.071988"
       r="4.4022655"
       gradientTransform="matrix(0.72414474,0,0,0.29360056,3.5243975,9.9475772)"
       gradientUnits="userSpaceOnUse" />
    <radialGradient
       xlink:href="#linearGradient78809-3"
       id="radialGradient79507"
       cx="24.610537"
       cy="13.584182"
       fx="24.610537"
       fy="13.584182"
       r="3.9421437"
       gradientTransform="matrix(1,0,0,0.57273815,1.2846802,8.9964209)"
       gradientUnits="userSpaceOnUse" />
    <radialGradient
       xlink:href="#linearGradient78809-3"
       id="radialGradient79561"
       cx="24.99049"
       cy="18.957243"
       fx="24.99049"
       fy="18.957243"
       r="4.4165626"
       gradientTransform="matrix(1,0,0,0.69969553,0,9.008456)"
       gradientUnits="userSpaceOnUse" />
    <radialGradient
       xlink:href="#linearGradient78809-3"
       id="radialGradient79569"
       cx="16.083118"
       cy="19.564526"
       fx="16.083118"
       fy="19.564526"
       r="4.3811769"
       gradientTransform="matrix(1,0,0,0.71270758,0,8.9362509)"
       gradientUnits="userSpaceOnUse" />
    <radialGradient
       xlink:href="#linearGradient78809-3"
       id="radialGradient79577"
       cx="7.9869537"
       cy="18.380051"
       fx="7.9869537"
       fy="18.380051"
       r="3.6670899"
       gradientTransform="matrix(1,0,0,0.68381544,0,9.1269994)"
       gradientUnits="userSpaceOnUse" />
    <radialGradient
       xlink:href="#linearGradient79583"
       id="radialGradient79585"
       cx="16.933332"
       cy="15.010931"
       fx="16.933332"
       fy="15.010931"
       r="14.552083"
       gradientTransform="matrix(1,0,0,0.49942486,0,10.82961)"
       gradientUnits="userSpaceOnUse" />
    <linearGradient
       xlink:href="#linearGradient81653"
       id="linearGradient81392"
       x1="9.0878906"
       y1="63.703125"
       x2="118.91211"
       y2="63.703125"
       gradientUnits="userSpaceOnUse"
       gradientTransform="scale(0.26458333)" />
    <radialGradient
       xlink:href="#linearGradient1200"
       id="radialGradient82387"
       gradientUnits="userSpaceOnUse"
       gradientTransform="matrix(1.0232541,0,0,0.55620488,-2.2706512,11.53369)"
       cx="19.055696"
       cy="10.071988"
       fx="19.055696"
       fy="10.071988"
       r="4.4022655" />
    <radialGradient
       xlink:href="#linearGradient1200"
       id="radialGradient82391"
       gradientUnits="userSpaceOnUse"
       gradientTransform="matrix(0.87552102,0,0,0.45117479,-8.3743451,12.434484)"
       cx="19.055696"
       cy="10.071988"
       fx="19.055696"
       fy="10.071988"
       r="4.4022655" />
    <radialGradient
       xlink:href="#linearGradient1200"
       id="radialGradient82395"
       gradientUnits="userSpaceOnUse"
       gradientTransform="matrix(0.70954918,0,0,0.25827459,-2.8539685,11.155013)"
       cx="19.055696"
       cy="10.071988"
       fx="19.055696"
       fy="10.071988"
       r="4.4022655" />
    <radialGradient
       xlink:href="#linearGradient1200"
       id="radialGradient899"
       gradientUnits="userSpaceOnUse"
       gradientTransform="matrix(0.61118614,0,0,0.22626833,11.978429,11.287412)"
       cx="19.055696"
       cy="10.071988"
       fx="19.055696"
       fy="10.071988"
       r="4.4022655" />
    <linearGradient
       xlink:href="#linearGradient1398"
       id="linearGradient1378"
       x1="2.2489579"
       y1="16.788601"
       x2="31.617714"
       y2="16.788601"
       gradientUnits="userSpaceOnUse"
       gradientTransform="translate(0,3.4478028)" />
    <radialGradient
       xlink:href="#linearGradient2240"
       id="radialGradient2231"
       gradientUnits="userSpaceOnUse"
       gradientTransform="matrix(1,6.2458799e-7,-3.3429947e-8,0.4994249,1.5339921e-8,16.315506)"
       cx="16.933332"
       cy="15.010931"
       fx="16.933332"
       fy="15.010931"
       r="14.552083" />
    <linearGradient
       xlink:href="#linearGradient1398"
       id="linearGradient7118"
       gradientUnits="userSpaceOnUse"
       gradientTransform="translate(0,3.4478028)"
       x1="2.2489579"
       y1="16.788601"
       x2="31.617714"
       y2="16.788601" />
  </defs>
  <path
     style="display:none;mix-blend-mode:multiply;fill:none;stroke:url(#linearGradient1378);stroke-width:0.264583px;stroke-linecap:butt;stroke-linejoin:miter;stroke-opacity:1"
     d="m 2.3812494,16.536331 c 0,0 6e-7,7.267851 14.5520836,7.267851 14.552083,0 14.552089,-7.267724 14.552089,-7.267724"
     id="path1403" />
  <path
     id="path1163"
     style="display:none;fill:#000000;fill-opacity:1;fill-rule:evenodd;stroke:none;stroke-width:0.0934907;stroke-linecap:round;stroke-linejoin:round"
     d="M 16.933333,9.1363443 C 10.834799,9.1372829 5.3845466,11.03727 3.2799031,13.895744 c -5.056e-4,6.86e-4 -0.00105,0.0014 -0.00155,0.0021 -0.00147,0.0022 -0.00267,0.0045 -0.00413,0.0067 -0.039873,0.06118 -0.078331,0.121762 -0.1147217,0.181901 -0.0011,0.0018 -0.002,0.0039 -0.0031,0.0057 -0.034771,0.05759 -0.068015,0.11404 -0.099736,0.170532 -0.00188,0.0034 -0.00381,0.0065 -0.00568,0.0098 -0.00744,0.0133 -0.013913,0.02655 -0.021187,0.03979 -0.026845,0.04885 -0.052849,0.09784 -0.077515,0.145727 -0.00403,0.0078 -0.00792,0.01547 -0.011886,0.02326 -0.024719,0.04851 -0.048217,0.09626 -0.070797,0.14366 -0.00642,0.01349 -0.012866,0.02692 -0.01912,0.04031 -0.014517,0.03107 -0.028227,0.06144 -0.041858,0.09198 -0.035198,0.0789 -0.068561,0.156458 -0.098185,0.23151 -6.152e-4,0.0016 -9.374e-4,0.0031 -0.00155,0.0047 -0.00546,0.01387 -0.01022,0.0271 -0.015503,0.04082 -0.027731,0.0721 -0.052957,0.142398 -0.075964,0.210323 -0.0039,0.0115 -0.00812,0.02325 -0.011885,0.03462 -0.011483,0.03467 -0.020671,0.06629 -0.031006,0.09973 -0.019315,0.06249 -0.037624,0.124502 -0.053227,0.182418 -0.00808,0.03001 -0.015059,0.05863 -0.022221,0.08733 -0.01315,0.05269 -0.025332,0.103918 -0.035657,0.151929 -0.00541,0.02519 -0.010796,0.05007 -0.015503,0.0739 -0.010554,0.05343 -0.019984,0.103677 -0.027389,0.149862 -0.00217,0.01353 -0.00479,0.02846 -0.00672,0.04134 -0.00838,0.05601 -0.015089,0.107458 -0.019637,0.150378 -0.00593,0.06267 -0.010239,0.125377 -0.012919,0.188103 v 3.844726 c 0,0 1.5e-5,7.267773 14.5520826,7.267773 14.552068,0 14.552083,-7.267773 14.552083,-7.267773 v -3.844726 c 0,0 -0.0011,-0.03001 -0.0021,-0.05271 -8.8e-5,-0.0017 -4.2e-4,-0.0055 -5.17e-4,-0.0072 -0.0018,-0.03216 -0.0052,-0.07768 -0.01137,-0.134359 -8.54e-4,-0.0079 -0.0021,-0.01797 -0.0031,-0.02636 -0.0073,-0.06268 -0.01731,-0.135108 -0.03256,-0.221175 -0.0061,-0.03457 -0.01397,-0.07257 -0.0217,-0.110588 -0.0045,-0.02204 -0.0089,-0.04403 -0.01395,-0.06718 -0.0065,-0.02968 -0.01364,-0.06055 -0.02119,-0.09198 -0.0085,-0.03535 -0.01852,-0.0726 -0.02842,-0.110071 -0.009,-0.03403 -0.01763,-0.06766 -0.02791,-0.103353 -0.0099,-0.03443 -0.02141,-0.07108 -0.03256,-0.10697 -0.02095,-0.06737 -0.04455,-0.137137 -0.07028,-0.209289 -0.01388,-0.03897 -0.02699,-0.07757 -0.04237,-0.117823 -0.01758,-0.04596 -0.03772,-0.09355 -0.05736,-0.141076 -0.01531,-0.03706 -0.03091,-0.07418 -0.04754,-0.112138 -0.02771,-0.0632 -0.05577,-0.126771 -0.08733,-0.192236 -0.03705,-0.07684 -0.07715,-0.155542 -0.119889,-0.235128 -0.0016,-0.0029 -0.0031,-0.0059 -0.0047,-0.0088 -0.0016,-0.003 -0.0035,-0.0063 -0.0052,-0.0093 -0.08727,-0.161208 -0.186584,-0.327341 -0.299723,-0.497127 -9.02e-4,-0.0014 -0.0017,-0.0028 -0.0026,-0.0041 -2.88e-4,-3.83e-4 -7.45e-4,-6.51e-4 -10e-4,-0.001 -2.085592,-2.766705 -7.318917,-4.6269456 -13.236401,-4.7046221 -0.127234,-0.00114 -0.252876,-0.0031 -0.382406,-0.0031 z" />
  <ellipse
     style="display:inline;fill:url(#radialGradient2231);fill-opacity:1;fill-rule:evenodd;stroke-width:0.0934907;stroke-linecap:round;stroke-linejoin:round"
     id="ellipse2229"
     cx="16.933332"
     cy="23.812349"
     rx="14.552083"
     ry="7.2676721" />
  <path
     id="ellipse1560"
     style="display:inline;fill:url(#linearGradient8704);fill-rule:evenodd;stroke-width:0.0934907;stroke-linecap:round;stroke-linejoin:round"
     d="M 16.933333,9.1363443 A 14.552083,7.2676721 0 0 0 3.2783528,13.897811 c -0.6793514,1.039482 -0.844297,1.941747 -0.8841837,2.318204 a 14.552083,7.2676721 0 0 0 -0.012919,0.188103 14.552083,7.2676721 0 0 0 14.552083,7.267773 14.552083,7.2676721 0 0 0 14.552083,-7.267773 c 0,0 -8.15e-4,-1.163557 -0.932243,-2.559017 A 14.552083,7.2676721 0 0 0 17.315739,9.1394449 c -0.127234,-0.00114 -0.252876,-0.0031 -0.382406,-0.0031 z" />
  <path
     id="path1334"
     style="display:inline;fill:#9abbd9;fill-rule:evenodd;stroke-width:0.0934907;stroke-linecap:round;stroke-linejoin:round"
     d="m 16.933333,12.981071 a 14.552083,7.2676721 0 0 0 -14.552083,7.267773 14.552083,7.2676721 0 0 0 0.012919,0.188102 c 0.039926,0.376829 0.2052023,1.280006 0.8862508,2.320789 a 14.552083,7.2676721 0 0 0 13.6529131,4.758882 c 0.12953,0 0.255172,-0.002 0.382406,-0.0031 a 14.552083,7.2676721 0 0 0 13.233817,-4.701005 c 0.934943,-1.397792 0.93586,-2.563668 0.93586,-2.563668 A 14.552083,7.2676721 0 0 0 16.933333,12.981071 Z" />
  <ellipse
     style="display:inline;fill:url(#radialGradient79585);fill-opacity:1;fill-rule:evenodd;stroke-width:0.0934907;stroke-linecap:round;stroke-linejoin:round"
     id="ellipse3978"
     cx="16.933332"
     cy="18.326443"
     rx="14.552083"
     ry="7.2676721" />
  <ellipse
     style="display:inline;opacity:0.6;fill:url(#radialGradient79561);fill-opacity:1;stroke:none;stroke-width:0;stroke-linecap:round;stroke-linejoin:round"
     id="path75607"
     cx="24.99049"
     cy="22.272755"
     rx="4.4165626"
     ry="3.0902491" />
  <ellipse
     style="display:inline;opacity:0.6;fill:url(#radialGradient79569);fill-opacity:1;stroke-width:0;stroke-linecap:round;stroke-linejoin:round"
     id="path75609"
     cx="16.083118"
     cy="22.880037"
     rx="4.3811769"
     ry="3.122498" />
  <ellipse
     style="display:inline;opacity:0.6;fill:url(#radialGradient79577);fill-opacity:1;stroke-width:0;stroke-linecap:round;stroke-linejoin:round"
     id="path75611"
     cx="7.9869537"
     cy="21.695562"
     rx="3.6670899"
     ry="2.5076127" />
  <ellipse
     style="display:inline;opacity:0.6;fill:url(#radialGradient79507);fill-opacity:1;stroke-width:0;stroke-linecap:round;stroke-linejoin:round"
     id="path75605"
     cx="25.895216"
     cy="16.7766"
     rx="3.9421437"
     ry="2.2578161" />
  <ellipse
     style="display:inline;opacity:0.600317;fill:url(#radialGradient82387);fill-opacity:1;stroke-width:0;stroke-linecap:round;stroke-linejoin:round"
     id="ellipse82385"
     cx="17.22817"
     cy="17.135778"
     rx="4.5046363"
     ry="2.4485614" />
  <ellipse
     style="display:inline;opacity:0.600317;fill:url(#radialGradient82391);fill-opacity:1;stroke-width:0;stroke-linecap:round;stroke-linejoin:round"
     id="ellipse82389"
     cx="8.3093195"
     cy="16.978712"
     rx="3.8542762"
     ry="1.9861912" />
  <ellipse
     style="display:inline;opacity:0.600317;fill:url(#radialGradient899);fill-opacity:1;stroke-width:0;stroke-linecap:round;stroke-linejoin:round"
     id="ellipse897"
     cx="23.62501"
     cy="13.566383"
     rx="2.6906037"
     ry="0.99609333" />
  <ellipse
     style="display:inline;opacity:0.6;fill:url(#radialGradient78811);fill-opacity:1;stroke-width:0;stroke-linecap:round;stroke-linejoin:round"
     id="path75603"
     cx="17.323483"
     cy="12.904718"
     rx="3.1878774"
     ry="1.2925076" />
  <ellipse
     style="display:inline;opacity:0.600317;fill:url(#radialGradient82395);fill-opacity:1;stroke-width:0;stroke-linecap:round;stroke-linejoin:round"
     id="ellipse82393"
     cx="10.666988"
     cy="13.756351"
     rx="3.1236238"
     ry="1.1369933" />
  <path
     id="rect2827"
     style="fill:url(#linearGradient4156);fill-opacity:1;fill-rule:evenodd;stroke:none;stroke-width:0.132292;stroke-linecap:round;stroke-linejoin:round"
     d="m 2.3812494,16.40404 c 0,0 6e-7,7.267649 14.5520826,7.267649 14.552084,0 14.552083,-7.267649 14.552083,-7.267649 v 3.844804 c 0,0 1e-6,7.267671 -14.552083,7.267672 -14.552082,0 -14.5520826,-7.267672 -14.5520826,-7.267672 z" />
  <path
     id="path1342"
     style="display:inline;opacity:0.6;fill:#000000;fill-opacity:1;fill-rule:evenodd;stroke:#000000;stroke-width:0.02645833;stroke-linecap:round;stroke-linejoin:round;stroke-opacity:1;stroke-dasharray:none"
     d="M 16.933333,9.1363443 C 10.834805,9.1372829 5.3845445,11.037273 3.2799031,13.895744 c -5.056e-4,6.86e-4 -0.00105,0.0014 -0.00155,0.0021 -0.00147,0.0022 -0.00267,0.0045 -0.00413,0.0067 -0.039873,0.06118 -0.078331,0.121762 -0.1147217,0.181901 -0.0011,0.0018 -0.002,0.0039 -0.0031,0.0057 -0.034771,0.05759 -0.068015,0.11404 -0.099736,0.170532 -0.00188,0.0034 -0.00381,0.0065 -0.00568,0.0098 -0.00744,0.0133 -0.013913,0.02655 -0.021187,0.03979 -0.026845,0.04885 -0.052849,0.09784 -0.077515,0.145727 -0.00403,0.0078 -0.00792,0.01547 -0.011886,0.02326 -0.024719,0.04851 -0.048217,0.09626 -0.070797,0.14366 -0.00642,0.01349 -0.012866,0.02692 -0.01912,0.04031 -0.014517,0.03107 -0.028227,0.06144 -0.041858,0.09198 -0.035198,0.0789 -0.068561,0.156458 -0.098185,0.23151 -6.152e-4,0.0016 -9.377e-4,0.0031 -0.00155,0.0047 -0.00546,0.01387 -0.01022,0.0271 -0.015503,0.04082 -0.027731,0.0721 -0.052957,0.142398 -0.075964,0.210323 -0.0039,0.0115 -0.00812,0.02325 -0.011885,0.03462 -0.011483,0.03467 -0.020671,0.0663 -0.031006,0.09973 -0.019315,0.06249 -0.037624,0.124502 -0.053227,0.182418 -0.00808,0.03001 -0.015059,0.05863 -0.022221,0.08733 -0.01315,0.05269 -0.025332,0.103918 -0.035657,0.151929 -0.00541,0.02519 -0.010796,0.05007 -0.015503,0.0739 -0.010554,0.05343 -0.019984,0.103677 -0.027389,0.149862 -0.00217,0.01353 -0.00479,0.02846 -0.00672,0.04134 -0.00838,0.05601 -0.015089,0.107458 -0.019637,0.150378 -0.00593,0.06267 -0.010239,0.125377 -0.012919,0.188103 v 3.844726 c 0,0 3e-5,7.267773 14.5520826,7.267773 14.552053,0 14.552083,-7.267773 14.552083,-7.267773 v -3.844726 c 0,0 -0.0011,-0.03001 -0.0021,-0.05271 -8.8e-5,-0.0017 -4.2e-4,-0.0055 -5.17e-4,-0.0072 -0.0018,-0.03216 -0.0052,-0.07768 -0.01137,-0.134359 -8.54e-4,-0.0079 -0.0021,-0.01797 -0.0031,-0.02636 -0.0073,-0.06268 -0.01731,-0.135108 -0.03256,-0.221175 -0.0061,-0.03457 -0.01397,-0.07257 -0.0217,-0.110588 -0.0045,-0.02204 -0.0089,-0.04403 -0.01395,-0.06718 -0.0065,-0.02968 -0.01364,-0.06055 -0.02119,-0.09198 -0.0085,-0.03535 -0.01852,-0.0726 -0.02842,-0.110071 -0.009,-0.03403 -0.01763,-0.06766 -0.02791,-0.103353 -0.0099,-0.03443 -0.02141,-0.07108 -0.03256,-0.10697 -0.02095,-0.06737 -0.04455,-0.137137 -0.07028,-0.209289 -0.01388,-0.03897 -0.02699,-0.07757 -0.04237,-0.117823 -0.01758,-0.04596 -0.03772,-0.09355 -0.05736,-0.141076 -0.01531,-0.03706 -0.03091,-0.07418 -0.04754,-0.112138 -0.02771,-0.0632 -0.05577,-0.126772 -0.08733,-0.192236 -0.03705,-0.07684 -0.07715,-0.155542 -0.119889,-0.235128 -0.0016,-0.0029 -0.0031,-0.0059 -0.0047,-0.0088 -0.0016,-0.003 -0.0035,-0.0063 -0.0052,-0.0093 -0.08727,-0.161208 -0.186584,-0.327341 -0.299723,-0.497127 -9.02e-4,-0.0014 -0.0017,-0.0028 -0.0026,-0.0041 -2.88e-4,-3.83e-4 -7.78e-4,-6.85e-4 -10e-4,-0.001 -2.08559,-2.766702 -7.318923,-4.6269457 -13.236401,-4.7046221 -0.127234,-0.00114 -0.252876,-0.0031 -0.382406,-0.0031 z m 0,0.2645833 c 0.127175,0 0.25025,0.00199 0.375171,0.0031 5.809887,0.07544 10.948452,1.8821894 12.996106,4.5692294 2.51e-4,3.38e-4 7.5e-4,6.62e-4 0.001,10e-4 9e-4,0.0013 0.0017,0.0027 0.0026,0.0041 0.111082,0.164898 0.208359,0.326091 0.294039,0.482658 0.0017,0.0029 0.0036,0.0059 0.0052,0.0088 0.0016,0.0028 0.0031,0.006 0.0047,0.0088 0.04196,0.07729 0.08144,0.15378 0.117823,0.22841 0.03098,0.06358 0.05806,0.125171 0.08527,0.186551 0.01633,0.03687 0.03199,0.07305 0.04702,0.109038 0.01929,0.04616 0.03907,0.0923 0.05633,0.136942 0.0151,0.03909 0.02771,0.07636 0.04134,0.114205 0.02526,0.07008 0.04868,0.138175 0.06925,0.203605 0.01095,0.03486 0.02234,0.07043 0.03204,0.10387 0.01009,0.03467 0.01859,0.0672 0.02739,0.100252 0.0097,0.03639 0.01961,0.07264 0.02791,0.10697 0.0074,0.03052 0.01427,0.06057 0.02067,0.0894 0.005,0.02249 0.009,0.0437 0.01344,0.06511 0.0076,0.03692 0.0157,0.07392 0.0217,0.107487 0.01497,0.08359 0.02484,0.153577 0.03204,0.214457 9e-4,0.0082 0.0017,0.01814 0.0026,0.02584 0.0061,0.05505 0.0096,0.099 0.01137,0.130225 9.5e-5,0.0017 4.31e-4,0.0055 5.17e-4,0.0072 0.001,0.02204 0.0021,0.05116 0.0021,0.05116 v 3.734139 c 0,0 -2.9e-5,7.058484 -14.2875,7.058484 -14.2874706,0 -14.2874997,-7.058484 -14.2874997,-7.058484 v -3.734065 c 0.00263,-0.06092 0.0071,-0.121548 0.012919,-0.182418 0.00447,-0.04168 0.01089,-0.09184 0.01912,-0.146244 0.0019,-0.01251 0.00459,-0.02717 0.00672,-0.04031 0.00727,-0.04486 0.01651,-0.09332 0.026872,-0.145211 0.00462,-0.02314 0.00968,-0.04737 0.014986,-0.07183 0.010138,-0.04663 0.022229,-0.09663 0.03514,-0.147795 0.00703,-0.02788 0.013774,-0.0556 0.021704,-0.08475 0.015319,-0.05625 0.033229,-0.116561 0.052193,-0.177251 0.010147,-0.03248 0.019215,-0.06296 0.030489,-0.09663 0.0037,-0.01104 0.00806,-0.02242 0.011886,-0.03359 0.022589,-0.06597 0.047187,-0.134619 0.074414,-0.204639 0.00519,-0.01333 0.010143,-0.0258 0.015503,-0.03927 5.996e-4,-0.0016 4.296e-4,-0.0031 0.00103,-0.0047 0.029086,-0.07289 0.062077,-0.148162 0.096635,-0.224792 0.013383,-0.02966 0.027088,-0.05922 0.041341,-0.0894 0.00614,-0.013 0.012304,-0.02617 0.018604,-0.03927 0.02217,-0.04603 0.044976,-0.09242 0.069246,-0.139526 0.00389,-0.0076 0.00793,-0.01514 0.011886,-0.02274 0.024218,-0.04651 0.049607,-0.09415 0.075964,-0.141593 0.00714,-0.01285 0.013371,-0.02532 0.020671,-0.03824 0.00184,-0.0032 0.00383,-0.0065 0.00568,-0.0098 0.031145,-0.05487 0.064046,-0.109435 0.098185,-0.165365 0.00108,-0.0017 0.00202,-0.004 0.0031,-0.0057 0.035729,-0.05841 0.073507,-0.117314 0.1126546,-0.176733 0.00143,-0.0021 0.00218,-0.0041 0.00362,-0.0062 4.9e-4,-6e-4 0.00105,-0.0014 0.00155,-0.0021 C 5.5944471,11.247135 10.945809,9.4017692 16.933455,9.4008576 Z" />
  <path
     id="path1347"
     style="color:#000000;mix-blend-mode:multiply;fill:url(#linearGradient7118);-inkscape-stroke:none"
     d="m 2.38125,16.536409 v 0.830957 c 0.028052,0.108713 0.059923,0.2228 0.1012858,0.346749 0.2329644,0.698106 0.6996041,1.626687 1.624707,2.550749 1.8502057,1.848122 5.5285561,3.67161 12.8266072,3.67161 7.298049,0 10.975882,-1.82352 12.82609,-3.67161 0.925103,-0.924046 1.389675,-1.852655 1.62264,-2.550749 0.04202,-0.125931 0.07453,-0.241736 0.102836,-0.351916 v -0.82579 h -0.131775 c 0,0 0.0011,0.428873 -0.220658,1.093473 -0.221787,0.664602 -0.666724,1.554514 -1.560628,2.447396 -1.78781,1.785763 -5.384501,3.593579 -12.638505,3.593579 -7.2540037,0 -10.8532808,-1.807784 -12.6410889,-3.593579 C 3.3988572,19.18438 2.9559873,18.294496 2.7342,17.629882 2.5124127,16.96527 2.5135416,16.536409 2.5135416,16.536409 Z" />
</svg>
