<?xml version="1.0" encoding="UTF-8" standalone="no"?>
<!-- Created with Inkscape (http://www.inkscape.org/) -->

<svg
   width="32"
   height="32"
   viewBox="0 0 8.4666667 8.4666667"
   version="1.1"
   id="svg5"
   sodipodi:docname="32.svg"
   inkscape:version="1.2 (dc2aedaf03, 2022-05-15)"
   xmlns:inkscape="http://www.inkscape.org/namespaces/inkscape"
   xmlns:sodipodi="http://sodipodi.sourceforge.net/DTD/sodipodi-0.dtd"
   xmlns:xlink="http://www.w3.org/1999/xlink"
   xmlns="http://www.w3.org/2000/svg"
   xmlns:svg="http://www.w3.org/2000/svg">
  <sodipodi:namedview
     id="namedview94"
     pagecolor="#505050"
     bordercolor="#ffffff"
     borderopacity="1"
     inkscape:showpageshadow="0"
     inkscape:pageopacity="0"
     inkscape:pagecheckerboard="1"
     inkscape:deskcolor="#505050"
     showgrid="false"
     inkscape:zoom="27.25"
     inkscape:cx="10.917431"
     inkscape:cy="16.018349"
     inkscape:window-width="1920"
     inkscape:window-height="1019"
     inkscape:window-x="0"
     inkscape:window-y="1110"
     inkscape:window-maximized="1"
     inkscape:current-layer="svg5" />
  <defs
     id="defs2">
    <linearGradient
       id="linearGradient2240">
      <stop
         style="stop-color:#000000;stop-opacity:1;"
         offset="0"
         id="stop2234" />
      <stop
         style="stop-color:#000000;stop-opacity:0.6"
         offset="0.65591156"
         id="stop2242" />
      <stop
         style="stop-color:#000000;stop-opacity:0;"
         offset="1"
         id="stop2238" />
    </linearGradient>
    <linearGradient
       id="linearGradient1398">
      <stop
         style="stop-color:#acacac;stop-opacity:1;"
         offset="0"
         id="stop1380" />
      <stop
         style="stop-color:#c6c6c6;stop-opacity:1;"
         offset="0.10158287"
         id="stop1382" />
      <stop
         style="stop-color:#ffffff;stop-opacity:1;"
         offset="0.11513653"
         id="stop1384" />
      <stop
         style="stop-color:#ffffff;stop-opacity:1;"
         offset="0.17769848"
         id="stop1386" />
      <stop
         style="stop-color:#c6c6c6;stop-opacity:1;"
         offset="0.21213067"
         id="stop1388" />
      <stop
         style="stop-color:#c6c6c6;stop-opacity:1;"
         offset="0.7011807"
         id="stop1390" />
      <stop
         style="stop-color:#ffffff;stop-opacity:1;"
         offset="0.76391858"
         id="stop1392" />
      <stop
         style="stop-color:#ffffff;stop-opacity:1;"
         offset="0.95664978"
         id="stop1394" />
      <stop
         style="stop-color:#e1e1e1;stop-opacity:1;"
         offset="1"
         id="stop1396" />
    </linearGradient>
    <linearGradient
       id="linearGradient1200">
      <stop
         style="stop-color:#d9eaf6;stop-opacity:1"
         offset="0"
         id="stop1194" />
      <stop
         style="stop-color:#cfd6dc;stop-opacity:1"
         offset="0.75246203"
         id="stop1196" />
      <stop
         style="stop-color:#eff0f0;stop-opacity:1"
         offset="1"
         id="stop1198" />
    </linearGradient>
    <linearGradient
       id="linearGradient81653">
      <stop
         style="stop-color:#000000;stop-opacity:1"
         offset="0"
         id="stop81635" />
      <stop
         style="stop-color:#000000;stop-opacity:1"
         offset="0.10158287"
         id="stop81637" />
      <stop
         style="stop-color:#d3eaff;stop-opacity:1"
         offset="0.11513653"
         id="stop81639" />
      <stop
         style="stop-color:#d3eaff;stop-opacity:1"
         offset="0.17769848"
         id="stop81641" />
      <stop
         style="stop-color:#000000;stop-opacity:1"
         offset="0.21213067"
         id="stop81643" />
      <stop
         style="stop-color:#000000;stop-opacity:1"
         offset="0.7011807"
         id="stop81645" />
      <stop
         style="stop-color:#d3eaff;stop-opacity:1"
         offset="0.76391858"
         id="stop81647" />
      <stop
         style="stop-color:#000000;stop-opacity:1"
         offset="0.95664978"
         id="stop81649" />
      <stop
         style="stop-color:#000000;stop-opacity:1"
         offset="1"
         id="stop81651" />
    </linearGradient>
    <linearGradient
       id="linearGradient79583">
      <stop
         style="stop-color:#ffffff;stop-opacity:0.2121458"
         offset="0"
         id="stop79579" />
      <stop
         style="stop-color:#dbe8ff;stop-opacity:0.58039218"
         offset="0.9486351"
         id="stop80699" />
      <stop
         style="stop-color:#ffffff;stop-opacity:0.74108984"
         offset="1"
         id="stop79581" />
    </linearGradient>
    <linearGradient
       id="linearGradient78809-3">
      <stop
         style="stop-color:#334756;stop-opacity:1"
         offset="0"
         id="stop78805" />
      <stop
         style="stop-color:#2f4759;stop-opacity:1"
         offset="0.75246203"
         id="stop79389" />
      <stop
         style="stop-color:#1a3548;stop-opacity:1"
         offset="1"
         id="stop78807" />
    </linearGradient>
    <linearGradient
       id="linearGradient8999">
      <stop
         style="stop-color:#3a77ad;stop-opacity:1"
         offset="0"
         id="stop8981" />
      <stop
         style="stop-color:#5f96c6;stop-opacity:1"
         offset="0.09020152"
         id="stop8983" />
      <stop
         style="stop-color:#d3eaff;stop-opacity:1"
         offset="0.10706306"
         id="stop8985" />
      <stop
         style="stop-color:#d3eaff;stop-opacity:1"
         offset="0.15467562"
         id="stop8987" />
      <stop
         style="stop-color:#5f96c6;stop-opacity:1"
         offset="0.18391864"
         id="stop8989" />
      <stop
         style="stop-color:#5f96c6;stop-opacity:1"
         offset="0.7820763"
         id="stop8991" />
      <stop
         style="stop-color:#d3eaff;stop-opacity:1"
         offset="0.82140368"
         id="stop8993" />
      <stop
         style="stop-color:#d3eaff;stop-opacity:1;"
         offset="0.89811748"
         id="stop8995" />
      <stop
         style="stop-color:#a5c4e1;stop-opacity:1"
         offset="1"
         id="stop8997" />
    </linearGradient>
    <linearGradient
       id="linearGradient4154-3-6">
      <stop
         style="stop-color:#3a77ad;stop-opacity:1"
         offset="0"
         id="stop4150" />
      <stop
         style="stop-color:#5f96c6;stop-opacity:1"
         offset="0.10158287"
         id="stop5696" />
      <stop
         style="stop-color:#d3eaff;stop-opacity:1"
         offset="0.11513653"
         id="stop4670" />
      <stop
         style="stop-color:#d3eaff;stop-opacity:1"
         offset="0.17769848"
         id="stop6532" />
      <stop
         style="stop-color:#5f96c6;stop-opacity:1"
         offset="0.21213067"
         id="stop5826" />
      <stop
         style="stop-color:#5f96c6;stop-opacity:1"
         offset="0.7011807"
         id="stop7368" />
      <stop
         style="stop-color:#d3eaff;stop-opacity:1"
         offset="0.76391858"
         id="stop7174" />
      <stop
         style="stop-color:#d3eaff;stop-opacity:1;"
         offset="0.95664978"
         id="stop7882" />
      <stop
         style="stop-color:#a5c4e1;stop-opacity:1"
         offset="1"
         id="stop4152" />
    </linearGradient>
    <linearGradient
       xlink:href="#linearGradient4154-3-6"
       id="linearGradient4156"
       x1="2.3812494"
       y1="18.644768"
       x2="31.485415"
       y2="18.644768"
       gradientUnits="userSpaceOnUse"
       spreadMethod="pad"
       gradientTransform="matrix(0.25225222,0,0,0.25225222,-0.13460145,0.7751809)" />
    <linearGradient
       xlink:href="#linearGradient8999"
       id="linearGradient8704"
       x1="2.3812494"
       y1="13.088506"
       x2="31.485415"
       y2="13.088506"
       gradientUnits="userSpaceOnUse"
       gradientTransform="matrix(0.25225222,0,0,0.25225222,-0.13460145,0.7751809)" />
    <radialGradient
       xlink:href="#linearGradient78809-3"
       id="radialGradient78811"
       cx="19.055696"
       cy="10.071988"
       fx="19.055696"
       fy="10.071988"
       r="4.4022655"
       gradientTransform="matrix(0.18266712,0,0,0.07406139,0.75443545,2.4481345)"
       gradientUnits="userSpaceOnUse" />
    <radialGradient
       xlink:href="#linearGradient78809-3"
       id="radialGradient79507"
       cx="24.610537"
       cy="13.584182"
       fx="24.610537"
       fy="13.584182"
       r="3.9421437"
       gradientTransform="matrix(0.25225222,0,0,0.14447447,0.18946195,2.208203)"
       gradientUnits="userSpaceOnUse" />
    <radialGradient
       xlink:href="#linearGradient78809-3"
       id="radialGradient79561"
       cx="24.99049"
       cy="18.957243"
       fx="24.99049"
       fy="18.957243"
       r="4.4165626"
       gradientTransform="matrix(0.25225222,0,0,0.17649975,-0.13460145,2.211239)"
       gradientUnits="userSpaceOnUse" />
    <radialGradient
       xlink:href="#linearGradient78809-3"
       id="radialGradient79569"
       cx="16.083118"
       cy="19.564526"
       fx="16.083118"
       fy="19.564526"
       r="4.3811769"
       gradientTransform="matrix(0.25225222,0,0,0.17978207,-0.13460145,2.193025)"
       gradientUnits="userSpaceOnUse" />
    <radialGradient
       xlink:href="#linearGradient78809-3"
       id="radialGradient79577"
       cx="7.9869537"
       cy="18.380051"
       fx="7.9869537"
       fy="18.380051"
       r="3.6670899"
       gradientTransform="matrix(0.25225222,0,0,0.17249396,-0.13460145,2.241142)"
       gradientUnits="userSpaceOnUse" />
    <radialGradient
       xlink:href="#linearGradient79583"
       id="radialGradient79585"
       cx="16.933332"
       cy="15.010931"
       fx="16.933332"
       fy="15.010931"
       r="14.552083"
       gradientTransform="matrix(0.25225222,0,0,0.12598103,-0.13460145,2.670629)"
       gradientUnits="userSpaceOnUse" />
    <linearGradient
       xlink:href="#linearGradient81653"
       id="linearGradient81392"
       x1="9.0878906"
       y1="63.703125"
       x2="118.91211"
       y2="63.703125"
       gradientUnits="userSpaceOnUse"
       gradientTransform="scale(0.26458333)" />
    <radialGradient
       xlink:href="#linearGradient1200"
       id="radialGradient82387"
       gradientUnits="userSpaceOnUse"
       gradientTransform="matrix(0.25811812,0,0,0.14030391,-0.70737825,2.848235)"
       cx="19.055696"
       cy="10.071988"
       fx="19.055696"
       fy="10.071988"
       r="4.4022655" />
    <radialGradient
       xlink:href="#linearGradient1200"
       id="radialGradient82391"
       gradientUnits="userSpaceOnUse"
       gradientTransform="matrix(0.22085212,0,0,0.11380985,-2.2470486,3.075462)"
       cx="19.055696"
       cy="10.071988"
       fx="19.055696"
       fy="10.071988"
       r="4.4022655" />
    <radialGradient
       xlink:href="#linearGradient1200"
       id="radialGradient82395"
       gradientUnits="userSpaceOnUse"
       gradientTransform="matrix(0.17898536,0,0,0.06515034,-0.85452125,2.7527125)"
       cx="19.055696"
       cy="10.071988"
       fx="19.055696"
       fy="10.071988"
       r="4.4022655" />
    <radialGradient
       xlink:href="#linearGradient1200"
       id="radialGradient899"
       gradientUnits="userSpaceOnUse"
       gradientTransform="matrix(0.15417306,0,0,0.05707669,2.8869842,2.7861105)"
       cx="19.055696"
       cy="10.071988"
       fx="19.055696"
       fy="10.071988"
       r="4.4022655" />
    <linearGradient
       xlink:href="#linearGradient1398"
       id="linearGradient1378"
       x1="2.2489579"
       y1="16.788601"
       x2="31.617714"
       y2="16.788601"
       gradientUnits="userSpaceOnUse"
       gradientTransform="matrix(0.25225222,0,0,0.25225222,-0.13460145,0.8085519)" />
    <radialGradient
       xlink:href="#linearGradient2240"
       id="radialGradient2231"
       gradientUnits="userSpaceOnUse"
       gradientTransform="matrix(0.25225222,1.5755371e-7,0,0.12598104,-0.13460145,4.0544586)"
       cx="16.933332"
       cy="15.010931"
       fx="16.933332"
       fy="15.010931"
       r="14.552083" />
    <linearGradient
       xlink:href="#linearGradient1398"
       id="linearGradient7778"
       gradientUnits="userSpaceOnUse"
       gradientTransform="matrix(0.25225222,0,0,0.25225222,-0.13460145,0.90742157)"
       x1="2.2489579"
       y1="16.788601"
       x2="31.617714"
       y2="16.788601" />
  </defs>
  <path
     style="display:none;mix-blend-mode:multiply;fill:none;stroke:url(#linearGradient1378);stroke-width:0.0667413px;stroke-linecap:butt;stroke-linejoin:miter;stroke-opacity:1"
     d="m 0.46607405,4.1101621 c 0,0 1e-7,1.8333318 3.67079515,1.8333318 3.6707956,0 3.6707969,-1.8332998 3.6707969,-1.8332998"
     id="path1403" />
  <path
     id="path1163"
     style="display:none;fill:#000000;fill-opacity:1;fill-rule:evenodd;stroke:none;stroke-width:0.0235833;stroke-linecap:round;stroke-linejoin:round"
     d="m 4.1368693,2.243499 c -1.5383687,2.37e-4 -2.9132067,0.4795125 -3.44410785,1.2005691 -1.275e-4,1.73e-4 -2.65e-4,3.53e-4 -3.909e-4,5.5e-4 -3.71e-4,5.5e-4 -6.5e-4,0.00115 -0.00105,0.0017 -0.01006,0.01543 -0.01976,0.030715 -0.028939,0.045885 -2.774e-4,4.54e-4 -5.051e-4,0.001 -7.8e-4,0.00145 -0.00877,0.014525 -0.017157,0.028765 -0.025159,0.043015 -4.743e-4,8.467e-4 -9.6e-4,0.00165 -0.00143,0.00245 -0.00187,0.00335 -0.00351,0.0067 -0.00535,0.010035 -0.00677,0.01232 -0.013331,0.02468 -0.019553,0.03676 -0.00101,0.00195 -0.002,0.0039 -0.003,0.00587 -0.00623,0.012235 -0.012163,0.02428 -0.017859,0.03624 -0.00162,0.0034 -0.00325,0.00679 -0.00483,0.01017 -0.00366,0.00784 -0.00712,0.0155 -0.010559,0.0232 -0.00888,0.019905 -0.017295,0.039465 -0.024767,0.058399 -1.551e-4,4.034e-4 -2.364e-4,8e-4 -3.909e-4,0.0012 -0.00137,0.0035 -0.00258,0.00683 -0.00391,0.010295 -0.007,0.018185 -0.013359,0.03592 -0.019162,0.053055 -9.866e-4,0.0029 -0.00205,0.00587 -0.003,0.00874 -0.00289,0.00874 -0.00521,0.01672 -0.00782,0.025155 -0.00487,0.015765 -0.00949,0.031405 -0.013427,0.046015 -0.00204,0.00757 -0.0038,0.01479 -0.00561,0.02203 -0.00331,0.01329 -0.00639,0.026215 -0.00899,0.038325 -0.00137,0.00635 -0.00273,0.01263 -0.00391,0.01864 -0.00266,0.01348 -0.00504,0.026155 -0.00691,0.037805 -5.45e-4,0.0034 -0.00121,0.00718 -0.00169,0.01043 -0.00211,0.01413 -0.00381,0.027105 -0.00495,0.037935 -0.00149,0.01581 -0.00259,0.031625 -0.00326,0.04745 v 0.9698405 c 0,0 3.8e-6,1.8333111 3.67079475,1.8333111 3.6707924,0 3.6707958,-1.8333111 3.6707958,-1.8333111 v -0.969836 c 0,0 -2.774e-4,-0.00757 -5.507e-4,-0.013295 -2.19e-5,-4.29e-4 -1.06e-4,-0.0014 -1.307e-4,-0.0018 -4.539e-4,-0.00811 -0.00133,-0.019595 -0.00287,-0.033895 -2.154e-4,-0.002 -5.501e-4,-0.00455 -8e-4,-0.00665 -0.00187,-0.01581 -0.00433,-0.03408 -0.00821,-0.055792 -0.00153,-0.00872 -0.00353,-0.018305 -0.00547,-0.027895 -0.00113,-0.00556 -0.00227,-0.011105 -0.00353,-0.016945 -0.00167,-0.00749 -0.00347,-0.015275 -0.00533,-0.023205 -0.00213,-0.00891 -0.00467,-0.018315 -0.00717,-0.027765 -0.00227,-0.00859 -0.00447,-0.01707 -0.00704,-0.02607 -0.00253,-0.00868 -0.0054,-0.01793 -0.00821,-0.026985 -0.00527,-0.016995 -0.01124,-0.034595 -0.017733,-0.052793 -0.00353,-0.00983 -0.00681,-0.019565 -0.010693,-0.02972 -0.00447,-0.011595 -0.00951,-0.0236 -0.014467,-0.035585 -0.00387,-0.00935 -0.00779,-0.01871 -0.011993,-0.028285 -0.00699,-0.01594 -0.014067,-0.03198 -0.022027,-0.04849 -0.00935,-0.019385 -0.01946,-0.039235 -0.03024,-0.059311 -4.034e-4,-7.533e-4 -8e-4,-0.0015 -0.0012,-0.0022 -4.04e-4,-7.533e-4 -9.333e-4,-0.0016 -0.00133,-0.00235 -0.022013,-0.040665 -0.047067,-0.082572 -0.075605,-0.1254015 -2.273e-4,-3.53e-4 -4.293e-4,-7e-4 -6.5e-4,-0.00105 -7.28e-5,-9.66e-5 -1.88e-4,-1.64e-4 -2.528e-4,-2.52e-4 C 7.0460434,2.7332122 5.7259254,2.2639626 4.2332271,2.2443682 c -0.032095,-2.876e-4 -0.063789,-8e-4 -0.096463,-8e-4 z" />
  <ellipse
     style="display:inline;fill:url(#radialGradient2231);fill-opacity:1;fill-rule:evenodd;stroke-width:0.0235833;stroke-linecap:round;stroke-linejoin:round"
     id="ellipse2229"
     cx="4.1368694"
     cy="5.9455552"
     rx="3.6707952"
     ry="1.8332864" />
  <path
     id="ellipse1560"
     style="display:inline;fill:url(#linearGradient8704);fill-rule:evenodd;stroke-width:0.0235833;stroke-linecap:round;stroke-linejoin:round"
     d="M 4.1368693,2.243499 A 3.6707952,1.8332863 0 0 0 0.69237045,3.4445896 c -0.171368,0.2622115 -0.2129759,0.48981 -0.2230374,0.584772 a 3.6707952,1.8332863 0 0 0 -0.00326,0.04745 3.6707952,1.8332863 0 0 0 3.67079515,1.8333117 3.6707952,1.8332863 0 0 0 3.6707952,-1.8333117 c 0,0 -2.054e-4,-0.29351 -0.23516,-0.6455175 A 3.6707952,1.8332863 0 0 0 4.2333323,2.244281 c -0.032095,-2.875e-4 -0.063789,-8e-4 -0.096463,-8e-4 z" />
  <path
     id="path1334"
     style="display:inline;fill:#9abbd9;fill-rule:evenodd;stroke-width:0.0235833;stroke-linecap:round;stroke-linejoin:round"
     d="m 4.1368693,3.21334 a 3.6707952,1.8332863 0 0 0 -3.67079515,1.8333119 3.6707952,1.8332863 0 0 0 0.00326,0.047453 c 0.010071,0.095056 0.051763,0.322884 0.2235588,0.5854241 A 3.6707952,1.8332863 0 0 0 4.1368703,6.8799667 c 0.032675,0 0.064368,-5e-4 0.096463,-8e-4 A 3.6707952,1.8332863 0 0 0 7.5715935,5.6933293 C 7.8074348,5.3407332 7.8076654,5.0466379 7.8076654,5.0466379 A 3.6707952,1.8332863 0 0 0 4.1368703,3.213323 Z" />
  <ellipse
     style="display:inline;fill:url(#radialGradient79585);fill-opacity:1;fill-rule:evenodd;stroke-width:0.0235833;stroke-linecap:round;stroke-linejoin:round"
     id="ellipse3978"
     cx="4.1368694"
     cy="4.5617218"
     rx="3.6707952"
     ry="1.8332864" />
  <ellipse
     style="display:inline;opacity:0.6;fill:url(#radialGradient79561);fill-opacity:1;stroke:none;stroke-width:0;stroke-linecap:round;stroke-linejoin:round"
     id="path75607"
     cx="6.1693044"
     cy="5.5571876"
     rx="1.1140876"
     ry="0.77952212" />
  <ellipse
     style="display:inline;opacity:0.6;fill:url(#radialGradient79569);fill-opacity:1;stroke-width:0;stroke-linecap:round;stroke-linejoin:round"
     id="path75609"
     cx="3.9224002"
     cy="5.7103763"
     rx="1.1051617"
     ry="0.78765708" />
  <ellipse
     style="display:inline;opacity:0.6;fill:url(#radialGradient79577);fill-opacity:1;stroke-width:0;stroke-linecap:round;stroke-linejoin:round"
     id="path75611"
     cx="1.880125"
     cy="5.4115901"
     rx="0.92503154"
     ry="0.63255084" />
  <ellipse
     style="display:inline;opacity:0.6;fill:url(#radialGradient79507);fill-opacity:1;stroke-width:0;stroke-linecap:round;stroke-linejoin:round"
     id="path75605"
     cx="6.3975234"
     cy="4.1707706"
     rx="0.99441445"
     ry="0.56953907" />
  <ellipse
     style="display:inline;opacity:0.600317;fill:url(#radialGradient82387);fill-opacity:1;stroke-width:0;stroke-linecap:round;stroke-linejoin:round"
     id="ellipse82385"
     cx="4.2112427"
     cy="4.2613735"
     rx="1.1363044"
     ry="0.61765504" />
  <ellipse
     style="display:inline;opacity:0.600317;fill:url(#radialGradient82391);fill-opacity:1;stroke-width:0;stroke-linecap:round;stroke-linejoin:round"
     id="ellipse82389"
     cx="1.9614429"
     cy="4.2217536"
     rx="0.97224969"
     ry="0.50102115" />
  <ellipse
     style="display:inline;opacity:0.600317;fill:url(#radialGradient899);fill-opacity:1;stroke-width:0;stroke-linecap:round;stroke-linejoin:round"
     id="ellipse897"
     cx="5.8248591"
     cy="3.3609862"
     rx="0.67871076"
     ry="0.25126678" />
  <ellipse
     style="display:inline;opacity:0.6;fill:url(#radialGradient78811);fill-opacity:1;stroke-width:0;stroke-linecap:round;stroke-linejoin:round"
     id="path75603"
     cx="4.2352858"
     cy="3.1940789"
     rx="0.80414909"
     ry="0.32603788" />
  <ellipse
     style="display:inline;opacity:0.600317;fill:url(#radialGradient82395);fill-opacity:1;stroke-width:0;stroke-linecap:round;stroke-linejoin:round"
     id="ellipse82393"
     cx="2.5561695"
     cy="3.4089065"
     rx="0.78794104"
     ry="0.28680909" />
  <path
     id="rect2827"
     style="fill:url(#linearGradient4156);fill-opacity:1;fill-rule:evenodd;stroke:none;stroke-width:0.0333709;stroke-linecap:round;stroke-linejoin:round"
     d="m 0.46607405,4.0767911 c 0,0 1e-7,1.8332808 3.67079515,1.8332808 3.6707956,0 3.6707956,-1.8332808 3.6707956,-1.8332808 v 0.9698608 c 0,0 0,1.8332858 -3.6707956,1.8332858 -3.67079505,0 -3.67079515,-1.8332858 -3.67079515,-1.8332858 z" />
  <path
     id="path7771"
     style="display:inline;opacity:0.6;fill:#000000;fill-opacity:1;fill-rule:evenodd;stroke:#000000;stroke-width:0.02645833;stroke-linecap:round;stroke-linejoin:round;stroke-opacity:1;stroke-dasharray:none"
     d="M 4.1366984,2.2432739 C 2.5983313,2.2435109 1.2238816,2.7231783 0.69298096,3.4442342 L 0.6924642,3.444751 c -3.71e-4,5.5e-4 -6.3353e-4,10e-4 -0.001034,0.00155 -0.01006,0.01543 -0.0197598,0.030822 -0.0289388,0.045992 -2.774e-4,4.54e-4 -7.5862e-4,0.0011 -0.001034,0.00155 -0.00877,0.014525 -0.0168027,0.028641 -0.0248047,0.042891 -4.743e-4,8.467e-4 -0.00108,0.00178 -0.00155,0.00258 -0.00187,0.00335 -0.003844,0.00648 -0.005684,0.00982 -0.00677,0.01232 -0.0128983,0.02461 -0.0191203,0.03669 -0.00101,0.00195 -0.002101,0.00423 -0.003101,0.0062 -0.00623,0.012235 -0.0123908,0.024214 -0.0180867,0.036173 -0.00162,0.0034 -0.003071,0.00644 -0.004651,0.00982 -0.00366,0.00784 -0.007413,0.015554 -0.0108521,0.023254 -0.00888,0.019905 -0.0168159,0.03946 -0.0242879,0.058394 -1.551e-4,4.034e-4 -3.6227e-4,0.00115 -5.1677e-4,0.00155 -0.00137,0.0035 -0.002804,0.00635 -0.004134,0.00982 -0.007,0.018185 -0.0133173,0.036092 -0.0191203,0.053227 -9.866e-4,0.0029 -0.002151,0.00591 -0.003101,0.00878 -0.00289,0.00874 -0.005141,0.016887 -0.007751,0.025322 -0.00487,0.015765 -0.009499,0.031382 -0.0134359,0.045992 -0.00204,0.00757 -0.003874,0.014464 -0.005684,0.021704 -0.00331,0.01329 -0.006185,0.026647 -0.008785,0.038757 -0.00137,0.00635 -0.002954,0.012594 -0.004134,0.018604 -0.00266,0.01348 -0.004848,0.026074 -0.006718,0.037724 -5.45e-4,0.0034 -0.00107,0.00709 -0.00155,0.010335 -0.00211,0.01413 -0.004028,0.026894 -0.005168,0.037724 -0.00149,0.01581 -0.002431,0.031717 -0.003101,0.047542 v 0.9699666 c 0,0 -2.1028e-4,1.8334798 3.67057697,1.8334798 3.6707888,0 3.6710938,-1.8334798 3.6710938,-1.8334798 V 4.0767538 c 0,0 -2.435e-4,-0.00719 -5.168e-4,-0.012919 -2.19e-5,-4.29e-4 -4.92e-4,-0.00167 -5.167e-4,-0.00207 -4.539e-4,-0.00811 -0.00104,-0.019806 -0.00258,-0.034106 -2.154e-4,-0.002 -7.836e-4,-0.0041 -0.00103,-0.0062 -0.00187,-0.01581 -0.00439,-0.034099 -0.00827,-0.055811 -0.00153,-0.00872 -0.00323,-0.018315 -0.00517,-0.027905 -0.00113,-0.00556 -0.00236,-0.011213 -0.00362,-0.017053 -0.00167,-0.00749 -0.00331,-0.015324 -0.00517,-0.023254 -0.00213,-0.00891 -0.00473,-0.018455 -0.00723,-0.027905 -0.00227,-0.00859 -0.00466,-0.016838 -0.00723,-0.025838 -0.00253,-0.00868 -0.00546,-0.017817 -0.00827,-0.026872 C 7.752918,3.7998258 7.747111,3.7817918 7.740618,3.7635938 7.737088,3.7537638 7.733648,3.7442928 7.729766,3.7341378 7.725296,3.7225428 7.720256,3.7104658 7.715297,3.6984808 7.711427,3.6891308 7.707617,3.6796338 7.703411,3.6700588 7.696421,3.6541188 7.68915,3.6379928 7.68119,3.6214828 7.67184,3.6020978 7.661998,3.5826478 7.651218,3.5625718 7.6508146,3.5618185 7.6505845,3.5606918 7.650188,3.5599918 7.649784,3.5592385 7.649038,3.5586718 7.648638,3.5579218 7.626625,3.5172568 7.601728,3.4751778 7.57319,3.432348 7.5729627,3.431995 7.5723772,3.4316645 7.57216,3.431318 7.0460386,2.7333909 5.7260302,2.2639018 4.2333333,2.2443075 4.2012384,2.2440199 4.1693724,2.2437907 4.1366984,2.2437907 Z m 0,0.2645834 v 5.167e-4 c 0.030319,0 0.059618,2.62e-4 0.0894,5.168e-4 1.3851202,0.017358 2.6103258,0.4328229 3.0985189,1.0510986 v 5.168e-4 c 2.048e-4,3.101e-4 8.227e-4,7.208e-4 0.00103,0.00103 0.026481,0.037942 0.049332,0.075073 0.069763,0.1111044 3.64e-4,6.6e-4 0.00118,0.0014 0.00155,0.00207 3.676e-4,6.2e-4 6.592e-4,8.83e-4 0.00103,0.00155 0.010003,0.017785 0.019225,0.035537 0.027905,0.05271 0.00739,0.014626 0.014181,0.02877 0.020671,0.042891 0.0039,0.00848 0.00726,0.017041 0.010852,0.025322 0.0046,0.010617 0.00929,0.021251 0.013436,0.031523 0.0036,0.009 0.00654,0.017645 0.00982,0.026355 0.00603,0.016121 0.011646,0.031454 0.016536,0.046509 0.00261,0.00802 0.0054,0.016081 0.00775,0.023771 0.00238,0.00797 0.00461,0.015644 0.00672,0.023254 0.00232,0.00837 0.00422,0.016915 0.0062,0.024805 0.00173,0.00703 0.00362,0.013514 0.00517,0.020154 0.00117,0.00517 0.00205,0.010056 0.0031,0.014986 0.0018,0.00849 0.00375,0.017085 0.00517,0.024805 0.0036,0.019234 0.00601,0.035603 0.00775,0.049609 2.319e-4,0.00186 3.169e-4,0.00391 5.168e-4,0.00568 0.00143,0.012668 0.00268,0.022792 0.0031,0.029972 2.29e-5,3.5e-4 -2.04e-5,0.00169 0,0.00207 2.536e-4,0.00507 5.168e-4,0.011369 5.168e-4,0.011369 v 0.8593791 c 0,0 -2.707e-4,1.6241903 -3.4065105,1.6241903 -3.40623839,0 -3.40599364,-1.6241903 -3.40599364,-1.6241903 V 4.1320475 c 6.2199e-4,-0.014019 0.001718,-0.027852 0.003101,-0.041858 0.001058,-0.00959 0.002693,-0.021072 0.004651,-0.03359 4.45e-4,-0.00288 0.001045,-0.00629 0.00155,-0.0093 0.001735,-0.010321 0.003733,-0.021648 0.006201,-0.03359 0.001095,-0.00532 0.002346,-0.010906 0.003617,-0.016536 0.002413,-0.010728 0.005197,-0.021817 0.008268,-0.03359 0.00168,-0.00641 0.003275,-0.012927 0.005168,-0.019637 0.003653,-0.012943 0.007883,-0.026858 0.0124023,-0.040824 0.002421,-0.00747 0.004553,-0.014481 0.007235,-0.022221 8.82e-4,-0.00254 0.002185,-0.00518 0.003101,-0.00775 0.005385,-0.015179 0.011074,-0.030916 0.01757,-0.047025 0.001234,-0.00307 0.002346,-0.0062 0.003617,-0.0093 1.4337e-4,-3.513e-4 3.7284e-4,-6.762e-4 5.1676e-4,-0.00103 0.006933,-0.016773 0.0144976,-0.034043 0.0227376,-0.051676 0.003191,-0.00682 0.006423,-0.013721 0.009819,-0.020671 0.001466,-0.00299 0.003148,-0.00578 0.004651,-0.00879 0.005286,-0.010595 0.0107555,-0.0212 0.0165365,-0.032039 9.28e-4,-0.00175 0.001647,-0.00344 0.002584,-0.00517 0.005773,-0.010701 0.0123215,-0.021642 0.0186035,-0.032556 0.001707,-0.00295 0.002916,-0.00633 0.004651,-0.0093 4.3618e-4,-7.1e-4 0.00111,-0.00132 0.00155,-0.00207 0.007425,-0.012624 0.0151164,-0.024857 0.0232544,-0.037724 2.5509e-4,-3.941e-4 2.5936e-4,-0.00115 5.1677e-4,-0.00155 0.008517,-0.013438 0.0175367,-0.027155 0.0268717,-0.040824 3.7117e-4,-4.9e-4 6.8926e-4,-0.00106 0.001034,-0.00155 h 5.1677e-4 C 1.4336671,2.9331074 2.7091994,2.5080673 4.1366984,2.5078573 Z" />
  <path
     id="path7776"
     style="color:#000000;mix-blend-mode:multiply;fill:url(#linearGradient7778);-inkscape-stroke:none"
     d="M 0.46612142 4.2090454 L 0.46612142 4.7051392 C 0.53986361 4.8621615 0.65442687 5.0414391 0.83199056 5.2188029 C 1.3220379 5.7082987 2.2792809 6.1737834 4.1366984 6.1737834 C 5.994116 6.1737834 6.9513584 5.7082904 7.4414063 5.2188029 C 7.6193626 5.0410501 7.7340691 4.8613772 7.8077922 4.7041057 L 7.8077922 4.2090454 L 7.6760173 4.2090454 C 7.6760173 4.2090454 7.6766249 4.2978337 7.6248576 4.4529582 C 7.57309 4.6080826 7.4697127 4.8176372 7.2558879 5.0312175 C 6.8282381 5.458378 5.9500693 5.9102337 4.1366984 5.9102336 C 2.3233283 5.9102336 1.4451586 5.4583857 1.017509 5.0312175 C 0.80368417 4.8176333 0.70030672 4.6080858 0.64853923 4.4529582 C 0.59677174 4.2978305 0.59789632 4.2090454 0.59789632 4.2090454 L 0.46612142 4.2090454 z " />
</svg>
