<?xml version="1.0" encoding="UTF-8" standalone="no"?>
<!-- Created with Inkscape (http://www.inkscape.org/) -->

<svg
   width="48"
   height="48"
   viewBox="0 0 12.7 12.7"
   version="1.1"
   id="svg5"
   sodipodi:docname="48.svg"
   inkscape:version="1.2 (dc2aedaf03, 2022-05-15)"
   xmlns:inkscape="http://www.inkscape.org/namespaces/inkscape"
   xmlns:sodipodi="http://sodipodi.sourceforge.net/DTD/sodipodi-0.dtd"
   xmlns:xlink="http://www.w3.org/1999/xlink"
   xmlns="http://www.w3.org/2000/svg"
   xmlns:svg="http://www.w3.org/2000/svg">
  <sodipodi:namedview
     id="namedview94"
     pagecolor="#505050"
     bordercolor="#ffffff"
     borderopacity="1"
     inkscape:showpageshadow="0"
     inkscape:pageopacity="0"
     inkscape:pagecheckerboard="1"
     inkscape:deskcolor="#505050"
     showgrid="false"
     inkscape:zoom="18.166667"
     inkscape:cx="16.376147"
     inkscape:cy="24.027523"
     inkscape:window-width="1920"
     inkscape:window-height="1019"
     inkscape:window-x="0"
     inkscape:window-y="1110"
     inkscape:window-maximized="1"
     inkscape:current-layer="svg5" />
  <defs
     id="defs2">
    <linearGradient
       id="linearGradient2240">
      <stop
         style="stop-color:#000000;stop-opacity:1;"
         offset="0"
         id="stop2234" />
      <stop
         style="stop-color:#000000;stop-opacity:0.6"
         offset="0.65591156"
         id="stop2242" />
      <stop
         style="stop-color:#000000;stop-opacity:0;"
         offset="1"
         id="stop2238" />
    </linearGradient>
    <linearGradient
       id="linearGradient1398">
      <stop
         style="stop-color:#acacac;stop-opacity:1;"
         offset="0"
         id="stop1380" />
      <stop
         style="stop-color:#c6c6c6;stop-opacity:1;"
         offset="0.10158287"
         id="stop1382" />
      <stop
         style="stop-color:#ffffff;stop-opacity:1;"
         offset="0.11513653"
         id="stop1384" />
      <stop
         style="stop-color:#ffffff;stop-opacity:1;"
         offset="0.17769848"
         id="stop1386" />
      <stop
         style="stop-color:#c6c6c6;stop-opacity:1;"
         offset="0.21213067"
         id="stop1388" />
      <stop
         style="stop-color:#c6c6c6;stop-opacity:1;"
         offset="0.7011807"
         id="stop1390" />
      <stop
         style="stop-color:#ffffff;stop-opacity:1;"
         offset="0.76391858"
         id="stop1392" />
      <stop
         style="stop-color:#ffffff;stop-opacity:1;"
         offset="0.95664978"
         id="stop1394" />
      <stop
         style="stop-color:#e1e1e1;stop-opacity:1;"
         offset="1"
         id="stop1396" />
    </linearGradient>
    <linearGradient
       id="linearGradient1200">
      <stop
         style="stop-color:#d9eaf6;stop-opacity:1"
         offset="0"
         id="stop1194" />
      <stop
         style="stop-color:#cfd6dc;stop-opacity:1"
         offset="0.75246203"
         id="stop1196" />
      <stop
         style="stop-color:#eff0f0;stop-opacity:1"
         offset="1"
         id="stop1198" />
    </linearGradient>
    <linearGradient
       id="linearGradient81653">
      <stop
         style="stop-color:#000000;stop-opacity:1"
         offset="0"
         id="stop81635" />
      <stop
         style="stop-color:#000000;stop-opacity:1"
         offset="0.10158287"
         id="stop81637" />
      <stop
         style="stop-color:#d3eaff;stop-opacity:1"
         offset="0.11513653"
         id="stop81639" />
      <stop
         style="stop-color:#d3eaff;stop-opacity:1"
         offset="0.17769848"
         id="stop81641" />
      <stop
         style="stop-color:#000000;stop-opacity:1"
         offset="0.21213067"
         id="stop81643" />
      <stop
         style="stop-color:#000000;stop-opacity:1"
         offset="0.7011807"
         id="stop81645" />
      <stop
         style="stop-color:#d3eaff;stop-opacity:1"
         offset="0.76391858"
         id="stop81647" />
      <stop
         style="stop-color:#000000;stop-opacity:1"
         offset="0.95664978"
         id="stop81649" />
      <stop
         style="stop-color:#000000;stop-opacity:1"
         offset="1"
         id="stop81651" />
    </linearGradient>
    <linearGradient
       id="linearGradient79583">
      <stop
         style="stop-color:#ffffff;stop-opacity:0.2121458"
         offset="0"
         id="stop79579" />
      <stop
         style="stop-color:#dbe8ff;stop-opacity:0.58039218"
         offset="0.9486351"
         id="stop80699" />
      <stop
         style="stop-color:#ffffff;stop-opacity:0.74108984"
         offset="1"
         id="stop79581" />
    </linearGradient>
    <linearGradient
       id="linearGradient78809-3">
      <stop
         style="stop-color:#334756;stop-opacity:1"
         offset="0"
         id="stop78805" />
      <stop
         style="stop-color:#2f4759;stop-opacity:1"
         offset="0.75246203"
         id="stop79389" />
      <stop
         style="stop-color:#1a3548;stop-opacity:1"
         offset="1"
         id="stop78807" />
    </linearGradient>
    <linearGradient
       id="linearGradient8999">
      <stop
         style="stop-color:#3a77ad;stop-opacity:1"
         offset="0"
         id="stop8981" />
      <stop
         style="stop-color:#5f96c6;stop-opacity:1"
         offset="0.09020152"
         id="stop8983" />
      <stop
         style="stop-color:#d3eaff;stop-opacity:1"
         offset="0.10706306"
         id="stop8985" />
      <stop
         style="stop-color:#d3eaff;stop-opacity:1"
         offset="0.15467562"
         id="stop8987" />
      <stop
         style="stop-color:#5f96c6;stop-opacity:1"
         offset="0.18391864"
         id="stop8989" />
      <stop
         style="stop-color:#5f96c6;stop-opacity:1"
         offset="0.7820763"
         id="stop8991" />
      <stop
         style="stop-color:#d3eaff;stop-opacity:1"
         offset="0.82140368"
         id="stop8993" />
      <stop
         style="stop-color:#d3eaff;stop-opacity:1;"
         offset="0.89811748"
         id="stop8995" />
      <stop
         style="stop-color:#a5c4e1;stop-opacity:1"
         offset="1"
         id="stop8997" />
    </linearGradient>
    <linearGradient
       id="linearGradient4154-3-6">
      <stop
         style="stop-color:#3a77ad;stop-opacity:1"
         offset="0"
         id="stop4150" />
      <stop
         style="stop-color:#5f96c6;stop-opacity:1"
         offset="0.10158287"
         id="stop5696" />
      <stop
         style="stop-color:#d3eaff;stop-opacity:1"
         offset="0.11513653"
         id="stop4670" />
      <stop
         style="stop-color:#d3eaff;stop-opacity:1"
         offset="0.17769848"
         id="stop6532" />
      <stop
         style="stop-color:#5f96c6;stop-opacity:1"
         offset="0.21213067"
         id="stop5826" />
      <stop
         style="stop-color:#5f96c6;stop-opacity:1"
         offset="0.7011807"
         id="stop7368" />
      <stop
         style="stop-color:#d3eaff;stop-opacity:1"
         offset="0.76391858"
         id="stop7174" />
      <stop
         style="stop-color:#d3eaff;stop-opacity:1;"
         offset="0.95664978"
         id="stop7882" />
      <stop
         style="stop-color:#a5c4e1;stop-opacity:1"
         offset="1"
         id="stop4152" />
    </linearGradient>
    <linearGradient
       xlink:href="#linearGradient4154-3-6"
       id="linearGradient4156"
       x1="2.3812494"
       y1="18.644768"
       x2="31.485415"
       y2="18.644768"
       gradientUnits="userSpaceOnUse"
       spreadMethod="pad"
       gradientTransform="matrix(0.37837831,0,0,0.37837831,-0.20190175,1.4273542)" />
    <linearGradient
       xlink:href="#linearGradient8999"
       id="linearGradient8704"
       x1="2.3812494"
       y1="13.088506"
       x2="31.485415"
       y2="13.088506"
       gradientUnits="userSpaceOnUse"
       gradientTransform="matrix(0.37837831,0,0,0.37837831,-0.20190175,1.4273542)" />
    <radialGradient
       xlink:href="#linearGradient78809-3"
       id="radialGradient78811"
       cx="19.055696"
       cy="10.071988"
       fx="19.055696"
       fy="10.071988"
       r="4.4022655"
       gradientTransform="matrix(0.27400066,0,0,0.11109208,1.1316535,3.9367845)"
       gradientUnits="userSpaceOnUse" />
    <radialGradient
       xlink:href="#linearGradient78809-3"
       id="radialGradient79507"
       cx="24.610537"
       cy="13.584182"
       fx="24.610537"
       fy="13.584182"
       r="3.9421437"
       gradientTransform="matrix(0.37837831,0,0,0.2167117,0.28419335,3.5768872)"
       gradientUnits="userSpaceOnUse" />
    <radialGradient
       xlink:href="#linearGradient78809-3"
       id="radialGradient79561"
       cx="24.99049"
       cy="18.957243"
       fx="24.99049"
       fy="18.957243"
       r="4.4165626"
       gradientTransform="matrix(0.37837831,0,0,0.26474961,-0.20190175,3.5814412)"
       gradientUnits="userSpaceOnUse" />
    <radialGradient
       xlink:href="#linearGradient78809-3"
       id="radialGradient79569"
       cx="16.083118"
       cy="19.564526"
       fx="16.083118"
       fy="19.564526"
       r="4.3811769"
       gradientTransform="matrix(0.37837831,0,0,0.26967309,-0.20190175,3.5541202)"
       gradientUnits="userSpaceOnUse" />
    <radialGradient
       xlink:href="#linearGradient78809-3"
       id="radialGradient79577"
       cx="7.9869537"
       cy="18.380051"
       fx="7.9869537"
       fy="18.380051"
       r="3.6670899"
       gradientTransform="matrix(0.37837831,0,0,0.25874093,-0.20190175,3.6262957)"
       gradientUnits="userSpaceOnUse" />
    <radialGradient
       xlink:href="#linearGradient79583"
       id="radialGradient79585"
       cx="16.933332"
       cy="15.010931"
       fx="16.933332"
       fy="15.010931"
       r="14.552083"
       gradientTransform="matrix(0.37837831,0,0,0.18897154,-0.20190175,4.2705262)"
       gradientUnits="userSpaceOnUse" />
    <linearGradient
       xlink:href="#linearGradient81653"
       id="linearGradient81392"
       x1="9.0878906"
       y1="63.703125"
       x2="118.91211"
       y2="63.703125"
       gradientUnits="userSpaceOnUse"
       gradientTransform="scale(0.26458333)" />
    <radialGradient
       xlink:href="#linearGradient1200"
       id="radialGradient82387"
       gradientUnits="userSpaceOnUse"
       gradientTransform="matrix(0.38717716,0,0,0.21045586,-1.0610669,4.5369352)"
       cx="19.055696"
       cy="10.071988"
       fx="19.055696"
       fy="10.071988"
       r="4.4022655" />
    <radialGradient
       xlink:href="#linearGradient1200"
       id="radialGradient82391"
       gradientUnits="userSpaceOnUse"
       gradientTransform="matrix(0.33127817,0,0,0.17071476,-3.3705724,4.8777757)"
       cx="19.055696"
       cy="10.071988"
       fx="19.055696"
       fy="10.071988"
       r="4.4022655" />
    <radialGradient
       xlink:href="#linearGradient1200"
       id="radialGradient82395"
       gradientUnits="userSpaceOnUse"
       gradientTransform="matrix(0.26847802,0,0,0.09772551,-1.2817815,4.3936515)"
       cx="19.055696"
       cy="10.071988"
       fx="19.055696"
       fy="10.071988"
       r="4.4022655" />
    <radialGradient
       xlink:href="#linearGradient1200"
       id="radialGradient899"
       gradientUnits="userSpaceOnUse"
       gradientTransform="matrix(0.23125958,0,0,0.08561503,4.3304764,4.4437485)"
       cx="19.055696"
       cy="10.071988"
       fx="19.055696"
       fy="10.071988"
       r="4.4022655" />
    <linearGradient
       xlink:href="#linearGradient1398"
       id="linearGradient1378"
       x1="2.2489579"
       y1="16.788601"
       x2="31.617714"
       y2="16.788601"
       gradientUnits="userSpaceOnUse"
       gradientTransform="matrix(0.37837831,0,0,0.37837831,-0.20190175,1.4774107)" />
    <radialGradient
       xlink:href="#linearGradient2240"
       id="radialGradient2231"
       gradientUnits="userSpaceOnUse"
       gradientTransform="matrix(0.37837831,2.3633055e-7,-1.2649167e-8,0.18897155,-0.20190175,6.3462705)"
       cx="16.933332"
       cy="15.010931"
       fx="16.933332"
       fy="15.010931"
       r="14.552083" />
    <linearGradient
       xlink:href="#linearGradient1398"
       id="linearGradient7651"
       gradientUnits="userSpaceOnUse"
       gradientTransform="matrix(0.37837831,0,0,0.37837831,-0.20190325,1.5596464)"
       x1="2.2489579"
       y1="16.788601"
       x2="31.617714"
       y2="16.788601" />
  </defs>
  <path
     style="display:none;mix-blend-mode:multiply;fill:none;stroke:url(#linearGradient1378);stroke-width:0.100112px;stroke-linecap:butt;stroke-linejoin:miter;stroke-opacity:1"
     d="m 0.69911145,6.4298258 c 0,0 2e-7,2.7499976 5.50619245,2.7499976 5.5061931,0 5.5061951,-2.7499496 5.5061951,-2.7499496"
     id="path1403" />
  <path
     id="path1163"
     style="display:none;fill:#000000;fill-opacity:1;fill-rule:evenodd;stroke:none;stroke-width:0.0353749;stroke-linecap:round;stroke-linejoin:round"
     d="M 6.205304,3.6298312 C 3.8977511,3.6301867 1.8354941,4.3491 1.0391425,5.4306848 c -1.913e-4,2.595e-4 -3.975e-4,5.295e-4 -5.864e-4,8.25e-4 -5.565e-4,8.25e-4 -9.75e-4,0.00173 -0.00158,0.00255 -0.01509,0.023145 -0.02964,0.046073 -0.043408,0.068828 -4.161e-4,6.81e-4 -7.576e-4,0.0015 -0.00117,0.00217 -0.013157,0.021788 -0.025735,0.043147 -0.037738,0.064523 -7.114e-4,0.00127 -0.00144,0.00248 -0.00215,0.00367 -0.00281,0.00502 -0.00527,0.010043 -0.00802,0.015052 -0.010157,0.01848 -0.019997,0.03702 -0.02933,0.05514 -0.00152,0.00292 -0.003,0.00585 -0.0045,0.0088 -0.00935,0.018352 -0.018244,0.03642 -0.026788,0.05436 -0.00243,0.0051 -0.00487,0.010185 -0.00724,0.015255 -0.00549,0.011753 -0.010681,0.02325 -0.015839,0.0348 -0.0133189,0.029858 -0.0259419,0.059197 -0.037151,0.087599 -2.327e-4,6.052e-4 -3.547e-4,0.0012 -5.864e-4,0.0018 -0.00206,0.00525 -0.00387,0.010252 -0.00586,0.015443 -0.010493,0.027277 -0.020038,0.05388 -0.028743,0.079582 -0.00148,0.00435 -0.00307,0.0088 -0.0045,0.013103 -0.00434,0.013117 -0.00782,0.02508 -0.011732,0.037733 -0.0073,0.023647 -0.014236,0.047107 -0.02014,0.069022 -0.00306,0.011355 -0.0057,0.022185 -0.00841,0.033045 -0.00497,0.019935 -0.00958,0.039322 -0.013492,0.057487 -0.00205,0.00953 -0.00409,0.018945 -0.00587,0.02796 -0.00399,0.02022 -0.00756,0.039233 -0.010363,0.056707 -8.175e-4,0.0051 -0.00182,0.01077 -0.00254,0.015645 -0.00317,0.021195 -0.00571,0.040658 -0.00743,0.056902 -0.00224,0.023715 -0.00388,0.047437 -0.00489,0.071175 v 1.4547606 c 0,0 5.7e-6,2.7499666 5.5061919,2.7499666 5.5061884,0 5.5061934,-2.7499666 5.5061934,-2.7499666 V 6.3798675 c 0,0 -4.16e-4,-0.011355 -8.26e-4,-0.019943 -3.3e-5,-6.435e-4 -1.59e-4,-0.0021 -1.96e-4,-0.0027 -6.81e-4,-0.012165 -0.002,-0.029393 -0.0043,-0.050842 -3.23e-4,-0.003 -8.25e-4,-0.00683 -0.0012,-0.00998 -0.0028,-0.023715 -0.0065,-0.05112 -0.01232,-0.083688 -0.0023,-0.01308 -0.0053,-0.027457 -0.0082,-0.041842 -0.0017,-0.00834 -0.0034,-0.016657 -0.0053,-0.025417 -0.0025,-0.011228 -0.0052,-0.022913 -0.008,-0.034808 -0.0032,-0.013372 -0.007,-0.027472 -0.01075,-0.041647 -0.0034,-0.012878 -0.0067,-0.025605 -0.01056,-0.039105 -0.0038,-0.013027 -0.0081,-0.026895 -0.01232,-0.040477 -0.0079,-0.025493 -0.01686,-0.051893 -0.0266,-0.07919 -0.0053,-0.014745 -0.01022,-0.029347 -0.01604,-0.04458 -0.0067,-0.017392 -0.01427,-0.0354 -0.0217,-0.053377 -0.0058,-0.014025 -0.01169,-0.028065 -0.01799,-0.042427 -0.01048,-0.02391 -0.0211,-0.04797 -0.03304,-0.072735 -0.01402,-0.029077 -0.02919,-0.058852 -0.04536,-0.088967 -6.05e-4,-0.00113 -0.0012,-0.00225 -0.0018,-0.0033 -6.06e-4,-0.00113 -0.0014,-0.0024 -0.002,-0.00352 -0.03302,-0.060997 -0.0706,-0.1238587 -0.113408,-0.1881022 -3.41e-4,-5.295e-4 -6.44e-4,-0.00105 -9.75e-4,-0.00158 -1.09e-4,-1.448e-4 -2.82e-4,-2.46e-4 -3.79e-4,-3.78e-4 C 10.569065,4.364401 8.588888,3.6605267 6.3498407,3.631135 6.3016987,3.6307037 6.2541577,3.629935 6.2051462,3.629935 Z" />
  <ellipse
     style="display:inline;fill:url(#radialGradient2231);fill-opacity:1;fill-rule:evenodd;stroke-width:0.0353749;stroke-linecap:round;stroke-linejoin:round"
     id="ellipse2229"
     cx="6.2053041"
     cy="9.1829147"
     rx="5.5061927"
     ry="2.7499294" />
  <path
     id="ellipse1560"
     style="display:inline;fill:url(#linearGradient8704);fill-rule:evenodd;stroke-width:0.0353749;stroke-linecap:round;stroke-linejoin:round"
     d="M 6.205304,3.6298312 A 5.5061925,2.7499294 0 0 0 1.038556,5.431467 C 0.78150405,5.8247843 0.71909215,6.166182 0.70399995,6.308625 A 5.5061925,2.7499294 0 0 0 0.69910995,6.3798 5.5061925,2.7499294 0 0 0 6.2053024,9.1297674 5.5061925,2.7499294 0 0 0 11.711495,6.3798 c 0,0 -3.08e-4,-0.440265 -0.35274,-0.9682762 A 5.5061925,2.7499294 0 0 0 6.3499985,3.6310042 c -0.048143,-4.312e-4 -0.095683,-0.0012 -0.1446945,-0.0012 z" />
  <path
     id="path1334"
     style="display:inline;fill:#9abbd9;fill-rule:evenodd;stroke-width:0.0353749;stroke-linecap:round;stroke-linejoin:round"
     d="m 6.205304,5.0845927 a 5.5061925,2.7499294 0 0 0 -5.50619235,2.7499677 5.5061925,2.7499294 0 0 0 0.00489,0.07118 c 0.015107,0.142584 0.077644,0.484326 0.33533805,0.878136 a 5.5061925,2.7499294 0 0 0 5.1659658,1.8006566 c 0.049012,0 0.096552,-7.5e-4 0.1446945,-0.0012 a 5.5061925,2.7499294 0 0 0 5.00739,-1.7787566 c 0.353762,-0.528894 0.354108,-0.970037 0.354108,-0.970037 A 5.5061925,2.7499294 0 0 0 6.2053055,5.0845672 Z" />
  <ellipse
     style="display:inline;fill:url(#radialGradient79585);fill-opacity:1;fill-rule:evenodd;stroke-width:0.0353749;stroke-linecap:round;stroke-linejoin:round"
     id="ellipse3978"
     cx="6.2053041"
     cy="7.1071653"
     rx="5.5061927"
     ry="2.7499294" />
  <ellipse
     style="display:inline;opacity:0.6;fill:url(#radialGradient79561);fill-opacity:1;stroke:none;stroke-width:0;stroke-linecap:round;stroke-linejoin:round"
     id="path75607"
     cx="9.2539568"
     cy="8.6003637"
     rx="1.6711314"
     ry="1.1692832" />
  <ellipse
     style="display:inline;opacity:0.6;fill:url(#radialGradient79569);fill-opacity:1;stroke-width:0;stroke-linecap:round;stroke-linejoin:round"
     id="path75609"
     cx="5.8836012"
     cy="8.8301468"
     rx="1.6577424"
     ry="1.1814855" />
  <ellipse
     style="display:inline;opacity:0.6;fill:url(#radialGradient79577);fill-opacity:1;stroke-width:0;stroke-linecap:round;stroke-linejoin:round"
     id="path75611"
     cx="2.820188"
     cy="8.3819675"
     rx="1.3875473"
     ry="0.94882625" />
  <ellipse
     style="display:inline;opacity:0.6;fill:url(#radialGradient79507);fill-opacity:1;stroke-width:0;stroke-linecap:round;stroke-linejoin:round"
     id="path75605"
     cx="9.5962849"
     cy="6.5207386"
     rx="1.4916216"
     ry="0.85430861" />
  <ellipse
     style="display:inline;opacity:0.600317;fill:url(#radialGradient82387);fill-opacity:1;stroke-width:0;stroke-linecap:round;stroke-linejoin:round"
     id="ellipse82385"
     cx="6.316864"
     cy="6.6566429"
     rx="1.7044566"
     ry="0.9264825" />
  <ellipse
     style="display:inline;opacity:0.600317;fill:url(#radialGradient82391);fill-opacity:1;stroke-width:0;stroke-linecap:round;stroke-linejoin:round"
     id="ellipse82389"
     cx="2.9421644"
     cy="6.5972128"
     rx="1.4583745"
     ry="0.75153166" />
  <ellipse
     style="display:inline;opacity:0.600317;fill:url(#radialGradient899);fill-opacity:1;stroke-width:0;stroke-linecap:round;stroke-linejoin:round"
     id="ellipse897"
     cx="8.7372885"
     cy="5.3060617"
     rx="1.018066"
     ry="0.37690014" />
  <ellipse
     style="display:inline;opacity:0.6;fill:url(#radialGradient78811);fill-opacity:1;stroke-width:0;stroke-linecap:round;stroke-linejoin:round"
     id="path75603"
     cx="6.3529291"
     cy="5.0557013"
     rx="1.2062236"
     ry="0.48905683" />
  <ellipse
     style="display:inline;opacity:0.600317;fill:url(#radialGradient82395);fill-opacity:1;stroke-width:0;stroke-linecap:round;stroke-linejoin:round"
     id="ellipse82393"
     cx="3.8342547"
     cy="5.3779421"
     rx="1.1819115"
     ry="0.4302136" />
  <path
     id="rect2827"
     style="fill:url(#linearGradient4156);fill-opacity:1;fill-rule:evenodd;stroke:none;stroke-width:0.0500564;stroke-linecap:round;stroke-linejoin:round"
     d="m 0.69911145,6.3797693 c 0,0 2e-7,2.7499211 5.50619245,2.7499211 5.5061931,0 5.5061931,-2.7499211 5.5061931,-2.7499211 v 1.4547911 c 0,0 0,2.7499286 -5.5061931,2.7499286 -5.50619225,0 -5.50619245,-2.7499286 -5.50619245,-2.7499286 z" />
  <path
     id="path7644"
     style="display:inline;opacity:0.6;fill:#000000;fill-opacity:1;fill-rule:evenodd;stroke:#000000;stroke-width:0.02645833;stroke-linecap:round;stroke-linejoin:round;stroke-opacity:1;stroke-dasharray:none"
     d="m 6.205306,3.6297526 c -2.3075506,3.555e-4 -4.3697421,0.71934 -5.1660929,1.8009237 -1.913e-4,2.595e-4 -3.279e-4,7.38e-4 -5.168e-4,0.00103 -5.565e-4,8.25e-4 -9.453e-4,0.00176 -0.00155,0.00258 -0.01509,0.023145 -0.02964,0.045975 -0.0434082,0.06873 -4.161e-4,6.81e-4 -0.001138,0.0014 -0.00155,0.00207 -0.013157,0.021788 -0.0257208,0.04322 -0.0377238,0.064596 -7.1139e-4,0.00127 -0.001357,0.00243 -0.002067,0.00362 -0.00281,0.00502 -0.005001,0.00998 -0.007751,0.014986 -0.010157,0.01848 -0.0201226,0.037174 -0.0294556,0.055294 -0.00152,0.00292 -0.003151,0.00584 -0.004651,0.00878 -0.00935,0.018352 -0.0183278,0.03632 -0.0268717,0.05426 -0.00243,0.0051 -0.004865,0.00992 -0.007235,0.014986 -0.00549,0.011753 -0.0103449,0.02359 -0.0155029,0.03514 -0.0133189,0.029858 -0.0259979,0.058931 -0.037207,0.087333 -2.327e-4,6.052e-4 -2.8506e-4,0.00147 -5.1676e-4,0.00207 -0.00206,0.00525 -0.004211,0.010312 -0.006201,0.015503 -0.010493,0.027277 -0.019717,0.05388 -0.028422,0.079582 -0.00148,0.00435 -0.003221,0.00862 -0.004651,0.012919 -0.00434,0.013117 -0.007974,0.025071 -0.0118856,0.037724 -0.0073,0.023647 -0.0142498,0.047331 -0.0201538,0.069246 -0.00306,0.011355 -0.005558,0.022213 -0.008268,0.033073 -0.00497,0.019935 -0.009524,0.039196 -0.0134359,0.057361 -0.00205,0.00953 -0.003904,0.01889 -0.005684,0.027905 -0.00399,0.02022 -0.007532,0.03937 -0.0103353,0.056844 -8.1749e-4,0.0051 -0.001864,0.010628 -0.002584,0.015503 -0.00317,0.021195 -0.006031,0.0406 -0.007751,0.056844 -0.00224,0.023715 -0.003641,0.047575 -0.004651,0.071313 v 1.4546916 c 0,0 -5.683e-5,2.7497031 5.50612386,2.7497031 5.5061834,0 5.5061244,-2.7497031 5.5061244,-2.7497031 V 6.3799723 c 0,0 -6.24e-4,-0.011566 -10e-4,-0.020154 -3.3e-5,-6.435e-4 3.7e-5,-0.00198 0,-0.00258 -6.81e-4,-0.012165 -0.0018,-0.029194 -0.0041,-0.050643 -3.23e-4,-0.003 -0.0012,-0.00719 -0.0015,-0.010335 -0.0028,-0.023715 -0.0061,-0.051148 -0.01189,-0.083716 -0.0023,-0.01308 -0.0054,-0.027473 -0.0083,-0.041858 -0.0017,-0.00834 -0.0038,-0.016561 -0.0057,-0.025321 -0.0025,-0.011228 -0.005,-0.022728 -0.0078,-0.034623 -0.0032,-0.013372 -0.0071,-0.027683 -0.01085,-0.041858 -0.0034,-0.012878 -0.0065,-0.025257 -0.01034,-0.038757 -0.0038,-0.013027 -0.0082,-0.027242 -0.0124,-0.040824 -0.0079,-0.025493 -0.01713,-0.051768 -0.02687,-0.079065 -0.0053,-0.014745 -0.0102,-0.029209 -0.01602,-0.044442 -0.0067,-0.017392 -0.01427,-0.035767 -0.0217,-0.053744 -0.0058,-0.014025 -0.01127,-0.028013 -0.01757,-0.042375 -0.01048,-0.02391 -0.02113,-0.047582 -0.03307,-0.072347 -0.01402,-0.029077 -0.02931,-0.059285 -0.04547,-0.0894 -6.05e-4,-0.00113 -0.0015,-0.00205 -0.0021,-0.0031 -6.06e-4,-0.00113 -9.51e-4,-0.0025 -0.0016,-0.00362 -0.03302,-0.060997 -0.07088,-0.1238588 -0.113688,-0.1881022 -3.41e-4,-5.295e-4 -7.02e-4,-0.00102 -10e-4,-0.00155 l -5.17e-4,-5.168e-4 C 10.568822,4.364179 8.5890451,3.6606946 6.35,3.6313029 6.301858,3.6308716 6.2543174,3.6297526 6.205306,3.6297526 Z m 0,0.2645833 c 0.046657,0 0.092147,6.351e-4 0.1379761,0.00103 2.1314753,0.027156 4.0164379,0.6776409 4.7676679,1.6448608 v 5.168e-4 c 3.15e-4,4.899e-4 7.09e-4,0.00106 10e-4,0.00155 0.04075,0.059356 0.07657,0.1172758 0.108004,0.1736328 6e-4,0.00103 0.0015,0.00206 0.0021,0.0031 6e-4,9.7e-4 9.75e-4,0.00206 0.0015,0.0031 0.01539,0.027824 0.03006,0.055301 0.04341,0.082166 0.01136,0.022881 0.021,0.045088 0.03101,0.067179 0.006,0.013269 0.01207,0.026316 0.01757,0.039274 0.0071,0.016609 0.01427,0.03354 0.02067,0.049609 0.0056,0.014074 0.01,0.027201 0.01499,0.040824 0.0093,0.025221 0.01782,0.049826 0.02532,0.073381 0.004,0.012549 0.0083,0.025171 0.01188,0.037207 0.0037,0.012473 0.0066,0.024276 0.0098,0.036174 0.0035,0.013097 0.0073,0.026402 0.01034,0.038757 0.0026,0.01099 0.0054,0.021665 0.0078,0.032039 0.0018,0.00809 0.0031,0.015544 0.0047,0.023254 0.0028,0.013291 0.0061,0.026672 0.0083,0.038757 0.0055,0.03009 0.0087,0.055604 0.01137,0.077515 3.15e-4,0.00291 7.27e-4,0.00601 10e-4,0.00878 0.0022,0.019817 0.0035,0.035786 0.0041,0.047026 3.5e-5,5.5e-4 4.86e-4,0.00199 5.17e-4,0.00258 3.91e-4,0.00793 5.17e-4,0.018603 5.17e-4,0.018603 v 1.344104 c 0,0 1.1e-4,2.5409297 -5.241541,2.5409297 -5.24164904,0 -5.24154054,-2.5409297 -5.24154054,-2.5409297 v -1.344104 c 9.61e-4,-0.021932 0.002519,-0.043718 0.004651,-0.065629 0.001637,-0.015008 0.0037,-0.033128 0.006718,-0.05271 6.85e-4,-0.0045 0.001806,-0.00976 0.002584,-0.014469 0.002668,-0.016145 0.006021,-0.033511 0.009819,-0.052193 0.001694,-0.00833 0.003732,-0.017038 0.005684,-0.025838 0.003724,-0.016783 0.008189,-0.034809 0.0129191,-0.053227 0.00258,-0.010034 0.00484,-0.019998 0.00775,-0.030489 0.00562,-0.020248 0.01217,-0.042231 0.01912,-0.064079 0.00373,-0.011691 0.00724,-0.022504 0.011369,-0.034623 0.00136,-0.00398 0.00272,-0.00838 0.00413,-0.012402 0.00829,-0.023747 0.017399,-0.048178 0.027389,-0.07338 0.0019,-0.0048 0.00372,-0.00962 0.00568,-0.014469 2.206e-4,-5.5e-4 2.953e-4,-9.912e-4 5.168e-4,-0.00155 0.01067,-0.026242 0.022978,-0.053029 0.035657,-0.080615 0.00491,-0.010672 0.00976,-0.021697 0.014986,-0.032556 0.00225,-0.00469 0.00441,-0.00924 0.00672,-0.013953 0.00813,-0.016575 0.016422,-0.03317 0.025322,-0.050126 0.00142,-0.00273 0.0032,-0.00557 0.00465,-0.00827 0.00889,-0.016741 0.018235,-0.033569 0.027905,-0.050643 0.00261,-0.00463 0.00508,-0.00931 0.00775,-0.013953 6.8e-4,-0.0011 0.00139,-0.00245 0.00207,-0.00362 0.011426,-0.019749 0.023132,-0.039298 0.035657,-0.059428 3.888e-4,-6.2e-4 6.374e-4,-0.00144 0.00103,-0.00207 0.013107,-0.021024 0.026976,-0.042178 0.041341,-0.063562 5.718e-4,-7.6e-4 0.00102,-0.00182 0.00155,-0.00258 l 5.167e-4,-5.167e-4 C 2.0453519,4.5590153 4.0086163,3.8946643 6.205306,3.8943359 Z" />
  <path
     id="path7649"
     style="color:#000000;mix-blend-mode:multiply;fill:url(#linearGradient7651);-inkscape-stroke:none"
     d="M 0.69918213 6.5117472 L 0.69918213 7.0920736 C 0.80028379 7.3500559 0.97860079 7.6664017 1.2929443 7.9803914 C 2.0124159 8.6990533 3.4301917 9.3947753 6.205306 9.3947754 C 8.9804206 9.3947754 10.397678 8.6990409 11.117151 7.9803914 C 11.43192 7.6659824 11.6104 7.3492126 11.71143 7.09104 L 11.71143 6.5117472 L 11.580172 6.5117472 C 11.580172 6.5117472 11.580521 6.6592938 11.500073 6.900354 C 11.419623 7.1414143 11.258102 7.4646447 10.929565 7.792806 C 10.272493 8.4491286 8.936374 9.1291585 6.205306 9.1291585 C 3.4742391 9.1291585 2.1376036 8.4491403 1.4805298 7.792806 C 1.1519929 7.4646389 0.9904675 7.141419 0.91002197 6.900354 C 0.82957644 6.6592891 0.83199056 6.5117472 0.83199056 6.5117472 L 0.69918213 6.5117472 z " />
</svg>
