<?xml version="1.0" encoding="UTF-8" standalone="no"?>
<!-- Created with Inkscape (http://www.inkscape.org/) -->

<svg
   width="48"
   height="48"
   viewBox="0 0 12.7 12.7"
   version="1.1"
   id="svg5"
   xmlns:xlink="http://www.w3.org/1999/xlink"
   xmlns="http://www.w3.org/2000/svg"
   xmlns:svg="http://www.w3.org/2000/svg">
  <defs
     id="defs2">
    <linearGradient
       id="linearGradient11222">
      <stop
         style="stop-color:#ffffff;stop-opacity:0.31652638"
         offset="0"
         id="stop11218" />
      <stop
         style="stop-color:#ffffff;stop-opacity:0;"
         offset="1"
         id="stop11220" />
    </linearGradient>
    <mask
       maskUnits="userSpaceOnUse"
       id="mask2108">
      <path
         id="ellipse2110"
         d="M 31.749998,21.16667 A 14.816666,10.583335 0 0 1 16.933332,31.750005 14.816666,10.583335 0 0 1 2.1166668,21.16667 14.816666,10.583335 0 0 1 16.933332,10.583335 14.816666,10.583335 0 0 1 31.749998,21.16667 Z"
         style="opacity:1;fill:#ffffff;fill-opacity:1;fill-rule:evenodd;stroke:none;stroke-width:0.264583;stroke-linecap:round;stroke-linejoin:round;stroke-miterlimit:4;stroke-dasharray:none;stroke-opacity:1" />
    </mask>
    <clipPath
       clipPathUnits="userSpaceOnUse"
       id="clipPath2420">
      <path
         id="lpe_path-effect2424"
         style="opacity:1;fill:#ffffff;fill-opacity:1;fill-rule:evenodd;stroke:none;stroke-width:0.264583;stroke-linecap:round;stroke-linejoin:round;stroke-miterlimit:4;stroke-dasharray:none;stroke-opacity:1"
         class="powerclip"
         d="M -2.8833334,11.933332 H 36.749998 V 26.166666 H -2.8833334 Z M 31.749998,17.197918 A 14.816666,10.583335 0 0 0 16.933332,6.614583 14.816666,10.583335 0 0 0 2.1166668,17.197918 14.816666,10.583335 0 0 0 16.933332,27.781253 14.816666,10.583335 0 0 0 31.749998,17.197918 Z" />
    </clipPath>
    <clipPath
       clipPathUnits="userSpaceOnUse"
       id="clipPath2502">
      <path
         id="lpe_path-effect2506"
         style="opacity:1;fill:#ffffff;fill-opacity:1;fill-rule:evenodd;stroke:none;stroke-width:0.264583;stroke-linecap:round;stroke-linejoin:round;stroke-miterlimit:4;stroke-dasharray:none;stroke-opacity:1"
         class="powerclip"
         d="M -2.8833332,16.166668 H 36.749998 V 36.750002 H -2.8833332 Z m 34.6333312,1.03125 A 14.816666,10.583335 0 0 0 16.933332,6.614583 14.816666,10.583335 0 0 0 2.1166668,17.197918 14.816666,10.583335 0 0 0 16.933332,27.781253 14.816666,10.583335 0 0 0 31.749998,17.197918 Z" />
    </clipPath>
    <clipPath
       clipPathUnits="userSpaceOnUse"
       id="clipPath2420-3">
      <path
         id="lpe_path-effect2424-6"
         style="opacity:1;fill:#ffffff;fill-opacity:1;fill-rule:evenodd;stroke:none;stroke-width:0.264583;stroke-linecap:round;stroke-linejoin:round;stroke-miterlimit:4;stroke-dasharray:none;stroke-opacity:1"
         class="powerclip"
         d="M -2.8833334,11.933332 H 36.749998 V 26.166666 H -2.8833334 Z M 31.749998,17.197918 A 14.816666,10.583335 0 0 0 16.933332,6.614583 14.816666,10.583335 0 0 0 2.1166668,17.197918 14.816666,10.583335 0 0 0 16.933332,27.781253 14.816666,10.583335 0 0 0 31.749998,17.197918 Z" />
    </clipPath>
    <clipPath
       clipPathUnits="userSpaceOnUse"
       id="clipPath2502-7">
      <path
         id="lpe_path-effect2506-5"
         style="opacity:1;fill:#ffffff;fill-opacity:1;fill-rule:evenodd;stroke:none;stroke-width:0.264583;stroke-linecap:round;stroke-linejoin:round;stroke-miterlimit:4;stroke-dasharray:none;stroke-opacity:1"
         class="powerclip"
         d="M -2.8833332,16.166668 H 36.749998 V 36.750002 H -2.8833332 Z m 34.6333312,1.03125 A 14.816666,10.583335 0 0 0 16.933332,6.614583 14.816666,10.583335 0 0 0 2.1166668,17.197918 14.816666,10.583335 0 0 0 16.933332,27.781253 14.816666,10.583335 0 0 0 31.749998,17.197918 Z" />
    </clipPath>
    <mask
       maskUnits="userSpaceOnUse"
       id="mask2108-3">
      <path
         id="ellipse2110-5"
         d="M 31.749998,21.16667 A 14.816666,10.583335 0 0 1 16.933332,31.750005 14.816666,10.583335 0 0 1 2.1166668,21.16667 14.816666,10.583335 0 0 1 16.933332,10.583335 14.816666,10.583335 0 0 1 31.749998,21.16667 Z"
         style="opacity:1;fill:#ffffff;fill-opacity:1;fill-rule:evenodd;stroke:none;stroke-width:0.264583;stroke-linecap:round;stroke-linejoin:round;stroke-miterlimit:4;stroke-dasharray:none;stroke-opacity:1" />
    </mask>
    <filter
       id="mask-powermask-path-effect4077_inverse"
       style="color-interpolation-filters:sRGB"
       height="100"
       width="100"
       x="-50"
       y="-50">
      <feColorMatrix
         id="mask-powermask-path-effect4077_primitive1"
         values="1"
         type="saturate"
         result="fbSourceGraphic" />
      <feColorMatrix
         id="mask-powermask-path-effect4077_primitive2"
         values="-1 0 0 0 1 0 -1 0 0 1 0 0 -1 0 1 0 0 0 1 0 "
         in="fbSourceGraphic" />
    </filter>
    <mask
       maskUnits="userSpaceOnUse"
       id="mask4084">
      <ellipse
         style="opacity:1;fill:#ffffff;fill-opacity:1;fill-rule:evenodd;stroke:none;stroke-width:0.132292;stroke-linecap:round;stroke-linejoin:round;stroke-miterlimit:4;stroke-dasharray:none;stroke-opacity:1"
         id="ellipse4086"
         cx="16.933332"
         cy="21.16667"
         rx="14.162226"
         ry="9.9288921"
         d="M 31.095558,21.16667 A 14.162226,9.9288921 0 0 1 16.933332,31.095562 14.162226,9.9288921 0 0 1 2.7711067,21.16667 14.162226,9.9288921 0 0 1 16.933332,11.237778 14.162226,9.9288921 0 0 1 31.095558,21.16667 Z" />
    </mask>
    <clipPath
       clipPathUnits="userSpaceOnUse"
       id="clipPath4162">
      <ellipse
         style="display:none;opacity:1;fill:#ffffff;fill-opacity:1;fill-rule:evenodd;stroke:none;stroke-width:0.132292;stroke-linecap:round;stroke-linejoin:round;stroke-miterlimit:4;stroke-dasharray:none;stroke-opacity:1"
         id="ellipse4164"
         cx="16.933332"
         cy="19.843624"
         rx="14.162226"
         ry="9.9288921"
         d="M 31.095558,19.843624 A 14.162226,9.9288921 0 0 1 16.933332,29.772516 14.162226,9.9288921 0 0 1 2.7711067,19.843624 14.162226,9.9288921 0 0 1 16.933332,9.914732 14.162226,9.9288921 0 0 1 31.095558,19.843624 Z" />
      <path
         id="lpe_path-effect4166"
         style="opacity:1;fill:#ffffff;fill-opacity:1;fill-rule:evenodd;stroke:none;stroke-width:0.132292;stroke-linecap:round;stroke-linejoin:round;stroke-miterlimit:4;stroke-dasharray:none;stroke-opacity:1"
         class="powerclip"
         d="M -2.2950388,14.77748 H 36.161707 V 26.232816 H -2.2950388 Z M 31.095558,19.843624 A 14.162226,9.9288921 0 0 0 16.933332,9.914732 14.162226,9.9288921 0 0 0 2.7711067,19.843624 14.162226,9.9288921 0 0 0 16.933332,29.772516 14.162226,9.9288921 0 0 0 31.095558,19.843624 Z" />
    </clipPath>
    <clipPath
       clipPathUnits="userSpaceOnUse"
       id="clipPath4244">
      <ellipse
         style="display:none;opacity:1;fill:#ffffff;fill-opacity:1;fill-rule:evenodd;stroke:none;stroke-width:0.132292;stroke-linecap:round;stroke-linejoin:round;stroke-miterlimit:4;stroke-dasharray:none;stroke-opacity:1"
         id="ellipse4246"
         cx="16.933332"
         cy="19.843624"
         rx="14.162226"
         ry="9.9288921"
         d="M 31.095558,19.843624 A 14.162226,9.9288921 0 0 1 16.933332,29.772516 14.162226,9.9288921 0 0 1 2.7711067,19.843624 14.162226,9.9288921 0 0 1 16.933332,9.914732 14.162226,9.9288921 0 0 1 31.095558,19.843624 Z" />
      <path
         id="lpe_path-effect4248"
         style="opacity:1;fill:#ffffff;fill-opacity:1;fill-rule:evenodd;stroke:none;stroke-width:0.132292;stroke-linecap:round;stroke-linejoin:round;stroke-miterlimit:4;stroke-dasharray:none;stroke-opacity:1"
         class="powerclip"
         d="M -2.2288933,16.100524 H 36.095558 V 36.095562 H -2.2288933 Z m 33.3244513,3.7431 A 14.162226,9.9288921 0 0 0 16.933332,9.914732 14.162226,9.9288921 0 0 0 2.7711067,19.843624 14.162226,9.9288921 0 0 0 16.933332,29.772516 14.162226,9.9288921 0 0 0 31.095558,19.843624 Z" />
    </clipPath>
    <mask
       maskUnits="userSpaceOnUse"
       id="mask6806">
      <ellipse
         style="opacity:1;fill:#ffffff;fill-opacity:1;fill-rule:evenodd;stroke:none;stroke-width:0.132292;stroke-linecap:round;stroke-linejoin:round;stroke-miterlimit:4;stroke-dasharray:none;stroke-opacity:1"
         id="ellipse6808"
         cx="16.933332"
         cy="21.16667"
         rx="14.162226"
         ry="9.9288921" />
    </mask>
    <filter
       id="mask-powermask-path-effect7182_inverse"
       style="color-interpolation-filters:sRGB"
       height="100"
       width="100"
       x="-50"
       y="-50">
      <feColorMatrix
         id="mask-powermask-path-effect7182_primitive1"
         values="1"
         type="saturate"
         result="fbSourceGraphic" />
      <feColorMatrix
         id="mask-powermask-path-effect7182_primitive2"
         values="-1 0 0 0 1 0 -1 0 0 1 0 0 -1 0 1 0 0 0 1 0 "
         in="fbSourceGraphic" />
    </filter>
    <filter
       id="mask-powermask-path-effect7216_inverse"
       style="color-interpolation-filters:sRGB"
       height="100"
       width="100"
       x="-50"
       y="-50">
      <feColorMatrix
         id="mask-powermask-path-effect7216_primitive1"
         values="1"
         type="saturate"
         result="fbSourceGraphic" />
      <feColorMatrix
         id="mask-powermask-path-effect7216_primitive2"
         values="-1 0 0 0 1 0 -1 0 0 1 0 0 -1 0 1 0 0 0 1 0 "
         in="fbSourceGraphic" />
    </filter>
    <clipPath
       clipPathUnits="userSpaceOnUse"
       id="clipPath7222">
      <ellipse
         style="display:none;opacity:1;fill:#ffffff;fill-opacity:1;fill-rule:evenodd;stroke:none;stroke-width:0.132292;stroke-linecap:round;stroke-linejoin:round;stroke-miterlimit:4;stroke-dasharray:none;stroke-opacity:1"
         id="ellipse7224"
         ry="9.9288921"
         rx="14.162226"
         cy="19.843624"
         cx="16.933332"
         d="M 31.095558,19.843624 A 14.162226,9.9288921 0 0 1 16.933332,29.772516 14.162226,9.9288921 0 0 1 2.7711067,19.843624 14.162226,9.9288921 0 0 1 16.933332,9.914732 14.162226,9.9288921 0 0 1 31.095558,19.843624 Z" />
      <path
         id="lpe_path-effect7226"
         style="opacity:1;fill:#ffffff;fill-opacity:1;fill-rule:evenodd;stroke:none;stroke-width:0.132292;stroke-linecap:round;stroke-linejoin:round;stroke-miterlimit:4;stroke-dasharray:none;stroke-opacity:1"
         class="powerclip"
         d="M -2.2950393,6.1716298 H 36.161704 V 36.161706 H -2.2950393 Z M 31.095558,19.843624 A 14.162226,9.9288921 0 0 0 16.933332,9.914732 14.162226,9.9288921 0 0 0 2.7711067,19.843624 14.162226,9.9288921 0 0 0 16.933332,29.772516 14.162226,9.9288921 0 0 0 31.095558,19.843624 Z" />
    </clipPath>
    <filter
       id="mask-powermask-path-effect7900_inverse"
       style="color-interpolation-filters:sRGB"
       height="100"
       width="100"
       x="-50"
       y="-50">
      <feColorMatrix
         id="mask-powermask-path-effect7900_primitive1"
         values="1"
         type="saturate"
         result="fbSourceGraphic" />
      <feColorMatrix
         id="mask-powermask-path-effect7900_primitive2"
         values="-1 0 0 0 1 0 -1 0 0 1 0 0 -1 0 1 0 0 0 1 0 "
         in="fbSourceGraphic" />
    </filter>
    <clipPath
       clipPathUnits="userSpaceOnUse"
       id="clipPath7906">
      <ellipse
         style="display:none;fill:#ffffff;fill-opacity:1;fill-rule:evenodd;stroke:none;stroke-width:0.132292;stroke-linecap:round;stroke-linejoin:round;stroke-miterlimit:4;stroke-dasharray:none;stroke-opacity:1"
         id="ellipse7908"
         cx="16.933332"
         cy="17.197916"
         rx="14.424001"
         ry="10.190685"
         d="M 31.357333,17.197916 A 14.424001,10.190685 0 0 1 16.933332,27.388601 14.424001,10.190685 0 0 1 2.5093317,17.197916 14.424001,10.190685 0 0 1 16.933332,7.0072308 14.424001,10.190685 0 0 1 31.357333,17.197916 Z" />
      <path
         id="lpe_path-effect7910"
         style="fill:#ffffff;fill-opacity:1;fill-rule:evenodd;stroke:none;stroke-width:0.132292;stroke-linecap:round;stroke-linejoin:round;stroke-miterlimit:4;stroke-dasharray:none;stroke-opacity:1"
         class="powerclip"
         d="M -2.9494792,1.5484361 H 36.816144 V 32.847396 H -2.9494792 Z M 31.357333,17.197916 A 14.424001,10.190685 0 0 0 16.933332,7.0072308 14.424001,10.190685 0 0 0 2.5093317,17.197916 14.424001,10.190685 0 0 0 16.933332,27.388601 14.424001,10.190685 0 0 0 31.357333,17.197916 Z" />
    </clipPath>
    <clipPath
       clipPathUnits="userSpaceOnUse"
       id="clipPath7988">
      <ellipse
         style="display:none;fill:#ffffff;fill-opacity:1;fill-rule:evenodd;stroke:none;stroke-width:0.132292;stroke-linecap:round;stroke-linejoin:round;stroke-miterlimit:4;stroke-dasharray:none;stroke-opacity:1"
         id="ellipse7990"
         cx="16.93331"
         cy="17.197916"
         rx="14.424001"
         ry="10.190685"
         d="M 31.35731,17.197916 A 14.424001,10.190685 0 0 1 16.93331,27.388601 14.424001,10.190685 0 0 1 2.5093088,17.197916 14.424001,10.190685 0 0 1 16.93331,7.0072308 14.424001,10.190685 0 0 1 31.35731,17.197916 Z" />
      <path
         id="lpe_path-effect7992"
         style="fill:#ffffff;fill-opacity:1;fill-rule:evenodd;stroke:none;stroke-width:0.132292;stroke-linecap:round;stroke-linejoin:round;stroke-miterlimit:4;stroke-dasharray:none;stroke-opacity:1"
         class="powerclip"
         d="M -2.9494792,5.517188 H 36.816144 v 31.29896 H -2.9494792 Z M 31.35731,17.197916 A 14.424001,10.190685 0 0 0 16.93331,7.0072308 14.424001,10.190685 0 0 0 2.5093088,17.197916 14.424001,10.190685 0 0 0 16.93331,27.388601 14.424001,10.190685 0 0 0 31.35731,17.197916 Z" />
    </clipPath>
    <clipPath
       clipPathUnits="userSpaceOnUse"
       id="clipPath8594">
      <ellipse
         style="display:none;opacity:1;fill:#ffffff;fill-opacity:1;fill-rule:evenodd;stroke:none;stroke-width:0.146466;stroke-linecap:round;stroke-linejoin:round;stroke-miterlimit:4;stroke-dasharray:none;stroke-opacity:0.999058"
         id="ellipse8596"
         cx="17.462498"
         cy="23.283333"
         rx="16.404167"
         ry="11.131399"
         d="M 33.866665,23.283333 A 16.404167,11.131399 0 0 1 17.462498,34.414732 16.404167,11.131399 0 0 1 1.0583305,23.283333 16.404167,11.131399 0 0 1 17.462498,12.151934 16.404167,11.131399 0 0 1 33.866665,23.283333 Z" />
      <path
         id="lpe_path-effect8598"
         style="opacity:1;fill:#ffffff;fill-opacity:1;fill-rule:evenodd;stroke:none;stroke-width:0.146466;stroke-linecap:round;stroke-linejoin:round;stroke-miterlimit:4;stroke-dasharray:none;stroke-opacity:0.999058"
         class="powerclip"
         d="M -2.8833332,6.2379017 H 36.749998 V 36.346235 H -2.8833332 Z M 33.866665,23.283333 A 16.404167,11.131399 0 0 0 17.462498,12.151934 16.404167,11.131399 0 0 0 1.0583305,23.283333 16.404167,11.131399 0 0 0 17.462498,34.414732 16.404167,11.131399 0 0 0 33.866665,23.283333 Z" />
    </clipPath>
    <clipPath
       clipPathUnits="userSpaceOnUse"
       id="clipath_lpe_path-effect8848">
      <ellipse
         style="display:none;fill:#ffffff;fill-opacity:1;fill-rule:evenodd;stroke:none;stroke-width:0.132292;stroke-linecap:round;stroke-linejoin:round;stroke-miterlimit:4;stroke-dasharray:none;stroke-opacity:1"
         id="ellipse8850"
         cx="16.93331"
         cy="17.197916"
         rx="14.424001"
         ry="10.190685" />
    </clipPath>
    <filter
       id="mask-powermask-path-effect9517_inverse"
       style="color-interpolation-filters:sRGB"
       height="100"
       width="100"
       x="-50"
       y="-50">
      <feColorMatrix
         id="mask-powermask-path-effect9517_primitive1"
         values="1"
         type="saturate"
         result="fbSourceGraphic" />
      <feColorMatrix
         id="mask-powermask-path-effect9517_primitive2"
         values="-1 0 0 0 1 0 -1 0 0 1 0 0 -1 0 1 0 0 0 1 0 "
         in="fbSourceGraphic" />
    </filter>
    <mask
       maskUnits="userSpaceOnUse"
       id="mask9709">
      <ellipse
         style="opacity:1;fill:#ffffff;fill-opacity:0.998739;fill-rule:evenodd;stroke:none;stroke-width:0.857591;stroke-linecap:round;stroke-linejoin:round;stroke-miterlimit:4;stroke-dasharray:none;stroke-opacity:0.999058"
         id="ellipse9711"
         cx="16.941353"
         cy="21.992889"
         rx="14.808645"
         ry="9.7572317"
         d="M 31.749998,21.992889 A 14.808645,9.7572317 0 0 1 16.941353,31.750121 14.808645,9.7572317 0 0 1 2.1327076,21.992889 14.808645,9.7572317 0 0 1 16.941353,12.235658 14.808645,9.7572317 0 0 1 31.749998,21.992889 Z" />
    </mask>
    <filter
       id="mask-powermask-path-effect9911_inverse"
       style="color-interpolation-filters:sRGB"
       height="100"
       width="100"
       x="-50"
       y="-50">
      <feColorMatrix
         id="mask-powermask-path-effect9911_primitive1"
         values="1"
         type="saturate"
         result="fbSourceGraphic" />
      <feColorMatrix
         id="mask-powermask-path-effect9911_primitive2"
         values="-1 0 0 0 1 0 -1 0 0 1 0 0 -1 0 1 0 0 0 1 0 "
         in="fbSourceGraphic" />
    </filter>
    <clipPath
       clipPathUnits="userSpaceOnUse"
       id="clipPath9937">
      <ellipse
         style="display:none;opacity:1;fill:#ffffff;fill-opacity:0.998739;fill-rule:evenodd;stroke:none;stroke-width:0.704427;stroke-linecap:round;stroke-linejoin:round;stroke-miterlimit:4;stroke-dasharray:none;stroke-opacity:0.999058"
         id="ellipse9939"
         ry="10.583333"
         rx="14.816089"
         cy="17.197916"
         cx="16.933912"
         d="M 31.750001,17.197916 A 14.816089,10.583333 0 0 1 16.933912,27.781249 14.816089,10.583333 0 0 1 2.1178236,17.197916 14.816089,10.583333 0 0 1 16.933912,6.614583 14.816089,10.583333 0 0 1 31.750001,17.197916 Z" />
      <path
         id="lpe_path-effect9941"
         style="opacity:1;fill:#ffffff;fill-opacity:0.998739;fill-rule:evenodd;stroke:none;stroke-width:0.704427;stroke-linecap:round;stroke-linejoin:round;stroke-miterlimit:4;stroke-dasharray:none;stroke-opacity:0.999058"
         class="powerclip"
         d="m 5.583334,20.399998 h 13.175 v 16.350123 h -13.175 z M 31.750001,17.197916 A 14.816089,10.583333 0 0 0 16.933912,6.614583 14.816089,10.583333 0 0 0 2.1178236,17.197916 14.816089,10.583333 0 0 0 16.933912,27.781249 14.816089,10.583333 0 0 0 31.750001,17.197916 Z" />
    </clipPath>
    <clipPath
       clipPathUnits="userSpaceOnUse"
       id="clipPath10215">
      <ellipse
         style="display:none;opacity:1;fill:#ffffff;fill-opacity:0.998739;fill-rule:evenodd;stroke:none;stroke-width:0.700011;stroke-linecap:round;stroke-linejoin:round;stroke-miterlimit:4;stroke-dasharray:none;stroke-opacity:0.999058"
         id="ellipse10217"
         cx="16.933813"
         cy="17.065624"
         rx="14.816089"
         ry="10.451042"
         d="M 31.749902,17.065624 A 14.816089,10.451042 0 0 1 16.933813,27.516666 14.816089,10.451042 0 0 1 2.1177244,17.065624 14.816089,10.451042 0 0 1 16.933813,6.6145821 14.816089,10.451042 0 0 1 31.749902,17.065624 Z" />
      <path
         id="lpe_path-effect10219"
         style="opacity:1;fill:#ffffff;fill-opacity:0.998739;fill-rule:evenodd;stroke:none;stroke-width:0.700011;stroke-linecap:round;stroke-linejoin:round;stroke-miterlimit:4;stroke-dasharray:none;stroke-opacity:0.999058"
         class="powerclip"
         d="M 2.4083328,19.341667 H 14.524999 v 16.35 H 2.4083328 Z M 31.749902,17.065624 A 14.816089,10.451042 0 0 0 16.933813,6.6145821 14.816089,10.451042 0 0 0 2.1177244,17.065624 14.816089,10.451042 0 0 0 16.933813,27.516666 14.816089,10.451042 0 0 0 31.749902,17.065624 Z" />
    </clipPath>
    <mask
       maskUnits="userSpaceOnUse"
       id="mask10225">
      <ellipse
         style="opacity:1;fill:#ffffff;fill-opacity:0.998739;fill-rule:evenodd;stroke:none;stroke-width:0.857591;stroke-linecap:round;stroke-linejoin:round;stroke-miterlimit:4;stroke-dasharray:none;stroke-opacity:0.999058"
         id="ellipse10227"
         cx="16.941452"
         cy="21.992889"
         rx="14.808645"
         ry="9.7572317"
         d="M 31.750097,21.992889 A 14.808645,9.7572317 0 0 1 16.941452,31.750121 14.808645,9.7572317 0 0 1 2.1328068,21.992889 14.808645,9.7572317 0 0 1 16.941452,12.235658 14.808645,9.7572317 0 0 1 31.750097,21.992889 Z" />
    </mask>
    <clipPath
       clipPathUnits="userSpaceOnUse"
       id="clipPath10465">
      <ellipse
         style="display:none;opacity:1;fill:#ffffff;fill-opacity:0.998739;fill-rule:evenodd;stroke:none;stroke-width:0.702911;stroke-linecap:round;stroke-linejoin:round;stroke-miterlimit:4;stroke-dasharray:none;stroke-opacity:0.999058"
         id="ellipse10467"
         cx="16.933813"
         cy="17.152369"
         rx="14.816089"
         ry="10.537788"
         d="M 31.749902,17.152369 A 14.816089,10.537788 0 0 1 16.933813,27.690157 14.816089,10.537788 0 0 1 2.1177244,17.152369 14.816089,10.537788 0 0 1 16.933813,6.6145802 14.816089,10.537788 0 0 1 31.749902,17.152369 Z" />
      <path
         id="lpe_path-effect10469"
         style="opacity:1;fill:#ffffff;fill-opacity:0.998739;fill-rule:evenodd;stroke:none;stroke-width:0.702911;stroke-linecap:round;stroke-linejoin:round;stroke-miterlimit:4;stroke-dasharray:none;stroke-opacity:0.999058"
         class="powerclip"
         d="M 9.8166656,21.458332 H 20.874999 V 36.750121 H 9.8166656 Z M 31.749902,17.152369 A 14.816089,10.537788 0 0 0 16.933813,6.6145802 14.816089,10.537788 0 0 0 2.1177244,17.152369 14.816089,10.537788 0 0 0 16.933813,27.690157 14.816089,10.537788 0 0 0 31.749902,17.152369 Z" />
    </clipPath>
    <mask
       maskUnits="userSpaceOnUse"
       id="mask10475">
      <ellipse
         style="opacity:1;fill:#ffffff;fill-opacity:0.998739;fill-rule:evenodd;stroke:none;stroke-width:0.857591;stroke-linecap:round;stroke-linejoin:round;stroke-miterlimit:4;stroke-dasharray:none;stroke-opacity:0.999058"
         id="ellipse10477"
         cx="16.941452"
         cy="21.992889"
         rx="14.808645"
         ry="9.7572317"
         d="M 31.750097,21.992889 A 14.808645,9.7572317 0 0 1 16.941452,31.750121 14.808645,9.7572317 0 0 1 2.1328068,21.992889 14.808645,9.7572317 0 0 1 16.941452,12.235658 14.808645,9.7572317 0 0 1 31.750097,21.992889 Z" />
    </mask>
    <radialGradient
       xlink:href="#linearGradient11222"
       id="radialGradient11224"
       cx="16.933332"
       cy="13.91397"
       fx="16.933332"
       fy="13.91397"
       r="13.758332"
       gradientTransform="matrix(0.375,0,0,0.24519233,0.15296247,1.2912423)"
       gradientUnits="userSpaceOnUse" />
    <filter
       style="color-interpolation-filters:sRGB"
       id="filter11938"
       x="-0.067559073"
       y="-0.094204675"
       width="1.1351181"
       height="1.1884094">
      <feGaussianBlur
         stdDeviation="0.30137266"
         id="feGaussianBlur11940" />
    </filter>
    <mask
       maskUnits="userSpaceOnUse"
       id="mask12138">
      <ellipse
         style="opacity:1;fill:#ffffff;fill-opacity:1;fill-rule:evenodd;stroke:none;stroke-width:0.132292;stroke-linecap:round;stroke-linejoin:round;stroke-miterlimit:4;stroke-dasharray:none;stroke-opacity:0.999058"
         id="ellipse12140"
         cx="16.933332"
         cy="19.049999"
         rx="13.758332"
         ry="8.4666662" />
    </mask>
    <mask
       maskUnits="userSpaceOnUse"
       id="mask12144">
      <ellipse
         style="opacity:1;fill:#ffffff;fill-opacity:1;fill-rule:evenodd;stroke:none;stroke-width:0.132292;stroke-linecap:round;stroke-linejoin:round;stroke-miterlimit:4;stroke-dasharray:none;stroke-opacity:0.999058"
         id="ellipse12146"
         cx="16.933332"
         cy="19.049999"
         rx="13.758332"
         ry="8.4666662" />
    </mask>
    <mask
       maskUnits="userSpaceOnUse"
       id="mask12150">
      <ellipse
         style="opacity:1;fill:#ffffff;fill-opacity:1;fill-rule:evenodd;stroke:none;stroke-width:0.132292;stroke-linecap:round;stroke-linejoin:round;stroke-miterlimit:4;stroke-dasharray:none;stroke-opacity:0.999058"
         id="ellipse12152"
         cx="16.933332"
         cy="19.049999"
         rx="13.758332"
         ry="8.4666662" />
    </mask>
    <mask
       maskUnits="userSpaceOnUse"
       id="mask12156">
      <ellipse
         style="opacity:1;fill:#ffffff;fill-opacity:1;fill-rule:evenodd;stroke:none;stroke-width:0.132292;stroke-linecap:round;stroke-linejoin:round;stroke-miterlimit:4;stroke-dasharray:none;stroke-opacity:0.999058"
         id="ellipse12158"
         cx="16.933332"
         cy="19.049999"
         rx="13.758332"
         ry="8.4666662" />
    </mask>
    <mask
       maskUnits="userSpaceOnUse"
       id="mask6806-6">
      <ellipse
         style="opacity:1;fill:#ffffff;fill-opacity:1;fill-rule:evenodd;stroke:none;stroke-width:0.132292;stroke-linecap:round;stroke-linejoin:round;stroke-miterlimit:4;stroke-dasharray:none;stroke-opacity:1"
         id="ellipse6808-2"
         cx="16.933332"
         cy="21.16667"
         rx="14.162226"
         ry="9.9288921" />
    </mask>
    <filter
       style="color-interpolation-filters:sRGB"
       id="filter13858"
       x="-0.042966911"
       y="-0.064528341"
       width="1.0859338"
       height="1.1290567">
      <feGaussianBlur
         stdDeviation="0.19014778"
         id="feGaussianBlur13860" />
    </filter>
    <mask
       maskUnits="userSpaceOnUse"
       id="mask6806-9">
      <ellipse
         style="opacity:1;fill:#ffffff;fill-opacity:1;fill-rule:evenodd;stroke:none;stroke-width:0.132292;stroke-linecap:round;stroke-linejoin:round;stroke-miterlimit:4;stroke-dasharray:none;stroke-opacity:1"
         id="ellipse6808-1"
         cx="16.933332"
         cy="21.16667"
         rx="14.162226"
         ry="9.9288921" />
    </mask>
  </defs>
  <g
     id="layer5"
     style="display:inline;opacity:0.488243;mix-blend-mode:normal;filter:url(#filter13858)">
    <ellipse
       style="display:inline;fill:#000000;fill-opacity:1;fill-rule:evenodd;stroke:none;stroke-width:0.132292;stroke-linecap:round;stroke-linejoin:round;stroke-miterlimit:4;stroke-dasharray:none;stroke-opacity:1"
       id="ellipse13572"
       cx="16.933332"
       cy="21.66522"
       rx="14.16143"
       ry="9.4295454"
       mask="url(#mask6806-6)"
       transform="matrix(0.375,0,0,0.375,0.15296267,-0.48085003)" />
  </g>
  <g
     id="layer1"
     style="display:inline">
    <ellipse
       style="opacity:1;fill:none;fill-rule:evenodd;stroke:#003266;stroke-width:0.132292;stroke-linecap:round;stroke-linejoin:round;stroke-miterlimit:4;stroke-dasharray:none;stroke-opacity:1"
       id="ellipse1758"
       clip-path="url(#clipPath7222)"
       d="M 31.095558,21.166668 A 14.162226,9.9288921 0 0 1 16.933332,31.09556 14.162226,9.9288921 0 0 1 2.7711067,21.166668 14.162226,9.9288921 0 0 1 16.933332,11.237776 14.162226,9.9288921 0 0 1 31.095558,21.166668 Z"
       transform="matrix(0.375,0,0,0.375,0.15296257,-1.2502838)" />
    <ellipse
       style="opacity:0.75;fill:#76abe2;fill-opacity:1;fill-rule:evenodd;stroke:#76abe2;stroke-width:0.0496095;stroke-linecap:round;stroke-linejoin:round;stroke-miterlimit:4;stroke-dasharray:none;stroke-opacity:1"
       id="ellipse3286"
       cx="6.5029631"
       cy="6.1910753"
       rx="5.3108349"
       ry="3.7233346" />
    <path
       d="M 0.15296257,-0.25809683"
       id="path2823"
       style="stroke:#d53d3d;stroke-width:0.0496095;stroke-miterlimit:4;stroke-dasharray:none;stroke-opacity:1" />
    <g
       id="g5750"
       transform="matrix(0.375,0,0,0.375,0.15296257,-1.2502372)"
       style="opacity:0.5;stroke:#003266;stroke-width:0.132292;stroke-miterlimit:4;stroke-dasharray:none;stroke-opacity:1">
      <path
         style="opacity:1;fill:#003266;fill-opacity:1;fill-rule:evenodd;stroke:#003266;stroke-width:0.132292;stroke-linecap:round;stroke-linejoin:round;stroke-miterlimit:4;stroke-dasharray:none;stroke-opacity:1"
         id="rect3763"
         width="28.324453"
         height="1.3230438"
         x="2.7711072"
         y="19.843626"
         ry="7.5199085e-15"
         clip-path="url(#clipPath4162)"
         d="M 2.7711072,19.843626 H 31.095561 c 0,0 0,0 0,0 v 1.323044 c 0,0 0,0 0,0 H 2.7711072 c 0,0 0,0 0,0 v -1.323044 c 0,0 0,0 0,0 z" />
      <path
         style="fill:#003266;fill-opacity:1;fill-rule:evenodd;stroke:#003266;stroke-width:0.132292;stroke-linecap:round;stroke-linejoin:round;stroke-miterlimit:4;stroke-dasharray:none;stroke-opacity:1"
         id="rect3917"
         width="28.293295"
         x="2.8022647"
         y="21.16667"
         height="10.583328"
         mask="url(#mask4084)"
         clip-path="url(#clipPath4244)"
         d="M 2.8022647,21.16667 H 31.09556 V 31.749998 H 2.8022647 Z" />
    </g>
    <path
       style="opacity:0.5;fill:#003266;fill-opacity:1;stroke:#003266;stroke-width:0.0496095;stroke-linecap:butt;stroke-linejoin:miter;stroke-miterlimit:4;stroke-dasharray:none;stroke-opacity:1"
       d="M 1.1921275,6.191075 V 6.6872172"
       id="path4289" />
    <path
       style="opacity:0.5;fill:none;stroke:#003266;stroke-width:0.0496095;stroke-linecap:butt;stroke-linejoin:miter;stroke-miterlimit:4;stroke-dasharray:none;stroke-opacity:1"
       d="M 11.813799,6.1910757 V 6.6872172"
       id="path4404" />
    <ellipse
       style="opacity:0.5;fill:#003266;fill-opacity:1;fill-rule:evenodd;stroke:#003266;stroke-width:0.132292;stroke-linecap:round;stroke-linejoin:round;stroke-miterlimit:4;stroke-dasharray:none;stroke-opacity:1"
       id="ellipse6328"
       cx="16.933332"
       cy="21.66522"
       rx="14.16143"
       ry="9.4295454"
       mask="url(#mask6806)"
       transform="matrix(0.375,0,0,0.375,0.15291547,-1.2502906)" />
  </g>
  <g
     id="layer3"
     style="display:inline;opacity:0.645986;filter:url(#filter11938)">
    <rect
       style="fill:#000000;fill-opacity:1;fill-rule:evenodd;stroke:none;stroke-width:0.326682;stroke-linecap:round;stroke-linejoin:round;stroke-miterlimit:4;stroke-dasharray:none;stroke-opacity:1"
       id="rect1839"
       width="6.1721992"
       height="4.4264045"
       x="6.3900189"
       y="22.639067"
       mask="url(#mask12144)"
       transform="matrix(0.375,0,0,0.375,0.15296257,-1.2502838)" />
    <rect
       style="fill:#000000;fill-opacity:1;fill-rule:evenodd;stroke:none;stroke-width:0.122506;stroke-linecap:round;stroke-linejoin:round;stroke-miterlimit:4;stroke-dasharray:none;stroke-opacity:1"
       id="rect1841"
       width="2.3145747"
       height="1.6599017"
       x="5.4067197"
       y="7.2393665" />
    <rect
       style="fill:#000000;fill-opacity:1;fill-rule:evenodd;stroke:none;stroke-width:0.326682;stroke-linecap:round;stroke-linejoin:round;stroke-miterlimit:4;stroke-dasharray:none;stroke-opacity:1"
       id="rect1843"
       width="6.1721992"
       height="4.4264045"
       x="21.630024"
       y="22.639067"
       mask="url(#mask12138)"
       transform="matrix(0.375,0,0,0.375,0.15296257,-1.2502838)" />
    <rect
       style="fill:#000000;fill-opacity:1;fill-rule:evenodd;stroke:none;stroke-width:0.122506;stroke-linecap:round;stroke-linejoin:round;stroke-miterlimit:4;stroke-dasharray:none;stroke-opacity:1"
       id="rect1845"
       width="2.3145747"
       height="1.6599017"
       x="8.2642212"
       y="5.1901026" />
    <rect
       style="fill:#000000;fill-opacity:1;fill-rule:evenodd;stroke:none;stroke-width:0.122506;stroke-linecap:round;stroke-linejoin:round;stroke-miterlimit:4;stroke-dasharray:none;stroke-opacity:1"
       id="rect1847"
       width="2.3145747"
       height="1.6599017"
       x="5.4067197"
       y="3.1408408" />
    <rect
       style="opacity:0.574094;fill:#ffffff;fill-opacity:1;fill-rule:evenodd;stroke:none;stroke-width:0.122506;stroke-linecap:round;stroke-linejoin:round;stroke-miterlimit:4;stroke-dasharray:none;stroke-opacity:1"
       id="rect2202"
       width="2.3145747"
       height="1.6599017"
       x="5.4067197"
       y="5.1901026" />
    <rect
       style="opacity:0.574094;fill:#ffffff;fill-opacity:1;fill-rule:evenodd;stroke:none;stroke-width:0.326682;stroke-linecap:round;stroke-linejoin:round;stroke-miterlimit:4;stroke-dasharray:none;stroke-opacity:1"
       id="rect2204"
       width="6.1721992"
       height="4.4264045"
       x="21.630024"
       y="11.709667"
       mask="url(#mask12156)"
       transform="matrix(0.375,0,0,0.375,0.15296257,-1.2502838)" />
    <rect
       style="opacity:0.574094;fill:#ffffff;fill-opacity:1;fill-rule:evenodd;stroke:none;stroke-width:0.326682;stroke-linecap:round;stroke-linejoin:round;stroke-miterlimit:4;stroke-dasharray:none;stroke-opacity:1"
       id="rect2206"
       width="6.1721992"
       height="4.4264045"
       x="6.3900189"
       y="11.709667"
       mask="url(#mask12150)"
       transform="matrix(0.375,0,0,0.375,0.15296257,-1.2502838)" />
    <rect
       style="opacity:0.574094;fill:#ffffff;fill-opacity:1;fill-rule:evenodd;stroke:none;stroke-width:0.122506;stroke-linecap:round;stroke-linejoin:round;stroke-miterlimit:4;stroke-dasharray:none;stroke-opacity:1"
       id="rect2208"
       width="2.3145747"
       height="1.6599017"
       x="2.5492194"
       y="5.1901026" />
  </g>
  <g
     id="layer4"
     style="display:inline">
    <path
       style="fill:#000000;fill-opacity:1;stroke:#000000;stroke-width:0.0992183px;stroke-linecap:butt;stroke-linejoin:miter;stroke-opacity:1"
       d="m 7.6935873,3.9090912 c -0.05727,-0.1658115 -0.085118,-0.322971 -0.1605061,-0.474357 -0.011167,-0.022425 -0.015578,-0.052635 -0.03438,-0.070762 -0.039128,-0.037702 -0.010252,0.01353 -0.048345,-0.02439 -0.00622,-0.00623 -0.00592,-0.017295 -0.01224,-0.023378 -0.0219,-0.02097 -0.1458465,-0.091388 -0.169731,-0.096941 C 7.2226882,3.208635 7.2628352,3.24078 7.2007582,3.207016 7.1906332,3.201546 7.1866282,3.187704 7.1763152,3.182573 7.1430982,3.166043 7.0996932,3.165068 7.0646755,3.158003 c -0.00375,-7.5e-4 -0.070538,-0.024345 -0.07449,-0.024998 -0.036293,-0.006 -0.075555,0.00593 -0.1118768,0 -0.118029,-0.0192 -0.2396985,-0.018922 -0.3558172,0.00248 -0.06807,0.012562 -0.1519148,0 -0.2214353,0 -0.06402,0 -0.1419,-0.01056 -0.2049435,0 -0.045405,0.0076 -0.090562,0.021292 -0.1362757,0.027802 -0.099722,0.01422 -0.2630723,-0.01716 -0.3270458,0.087767 -0.016628,0.027277 -0.015652,0.05946 -0.024645,0.086857 -0.011362,0.034582 -0.038332,0.061253 -0.045772,0.1023128 -0.00533,0.029348 0.00868,0.06795 0,0.096527 -0.02748,0.090494 -0.01485,0.1963365 -0.01485,0.2933355 0,0.049373 0.01002,0.1109722 0,0.1595527 -0.016252,0.078835 -0.089656,0.3325253 -0.064485,0.4067288 0.016275,0.047985 0.099089,0.082544 0.1352273,0.1046655 0.026573,0.01626 0.048847,0.040687 0.07359,0.059228 0.043357,0.032482 0.1889077,0.088025 0.2375692,0.1027012 0.047025,0.014183 0.080565,0.00683 0.1268895,0.012638 0.1959293,0.02457 0.3985485,0.012405 0.5967713,0.012405 0.1278735,0 0.4743502,0.026962 0.5795017,-0.026813 0.010523,-0.0054 0.01515,-0.018615 0.024975,-0.025193 0.096208,-0.064402 0.188718,-0.1254292 0.2586023,-0.219159 0.050723,-0.068032 0.112617,-0.1259805 0.1654328,-0.1922932 0.013965,-0.017527 0.021127,-0.055133 0.036772,-0.070815 0.003,-0.00307 0.018727,-0.017812 0.021262,-0.025927 0.00934,-0.029842 0,-0.082436 0,-0.1135875 0,-0.06279 0.00899,-0.0693 -0.046035,-0.105153 z"
       id="path12647" />
    <path
       style="fill:#000000;fill-opacity:1;stroke:#000000;stroke-width:0.0992183px;stroke-linecap:butt;stroke-linejoin:miter;stroke-opacity:1"
       d="M 10.471713,5.758499 C 10.416143,5.3857805 10.345948,5.38955 10.027152,5.336417 c -0.03837,-0.00638 -0.08034,-0.01737 -0.1187243,-0.02445 -0.03901,-0.0072 -0.08625,0.00472 -0.125151,0 -0.129539,-0.01584 0.04941,-0.012105 -0.07468,-0.012105 -0.195039,0 -0.445013,-0.030068 -0.621605,0.059625 -0.03033,0.015405 -0.04634,0.00488 -0.07312,0.014572 -0.06323,0.02283 -0.130565,0.026535 -0.197165,0.046043 -0.03947,0.011557 -0.08827,-0.0076 -0.128892,0 -0.03689,0.0069 -0.0771,0.025027 -0.112834,0.036682 -0.126498,0.041258 -0.154631,0.153741 -0.173454,0.2636812 -0.0065,0.03762 -0.03194,0.072727 -0.03721,0.110598 0,0.1383135 0.0076,-0.00345 -0.01175,0.076222 -0.01763,0.07257 0,0.2436472 0,0.3210862 0,0.070102 0.02678,0.075268 0.05743,0.134322 0.02624,0.050565 0.02681,0.118815 0.04594,0.15768 0.0053,0.010635 0.02378,0.00277 0.03488,0.0069 0.03832,0.01437 0.06804,0.040635 0.106045,0.056722 0.07641,0.03234 0.148376,0.077177 0.229246,0.099219 0.139633,0.038055 0.403411,0.05835 0.548144,0.037403 0.06011,-0.0087 0.145929,-0.028785 0.205982,-0.04704 0.04977,-0.015128 0.09368,-0.052095 0.144886,-0.061792 0.09942,-0.018825 0.21703,-0.040643 0.3117573,-0.084747 0.08085,-0.037643 0.128586,-0.096511 0.195555,-0.1540732 0.08032,-0.069045 0.169281,-0.1288185 0.23675,-0.21273 0.01702,-0.021165 0.0063,-0.028755 0.01,-0.053385 0.01558,-0.1040963 0.002,0.015652 0.02161,-0.06099 0.01834,-0.071707 -1.98e-4,-0.2189865 -0.02909,-0.2873708 z"
       id="path12649" />
    <path
       style="fill:#000000;fill-opacity:1;stroke:#000000;stroke-width:0.0992183px;stroke-linecap:butt;stroke-linejoin:miter;stroke-opacity:1"
       d="m 10.471713,7.4809663 c -0.07888,-0.02262 -0.129761,-0.087402 -0.196437,-0.1282658 -0.04647,-0.028485 -0.106997,-0.014085 -0.15728,-0.021217 -0.1393103,-0.019778 -0.2757803,-0.02505 -0.4184373,-0.02505 -0.013,0 -0.02601,0 -0.03901,0 -0.0078,-0.00413 -0.01471,-0.01113 -0.02347,-0.012405 -0.07942,-0.01152 -0.299683,-0.011182 -0.379135,0 -0.10965,0.015435 -0.212913,0.06237 -0.320365,0.078578 -0.120236,0.018135 -0.249383,-0.00868 -0.368163,0.012398 -0.01059,0.00188 -0.0574,0.037305 -0.06351,0.045367 -0.0082,0.010808 -0.0063,0.026993 -0.01386,0.03822 -0.03199,0.047355 -0.04066,0.022837 -0.06173,0.07437 -0.04678,0.1144043 -0.04034,0.2546175 -0.02495,0.3740543 0.0081,0.062985 0.0487,0.1200592 0.05949,0.1819612 0.0206,0.1181717 -0.0061,0.2440127 0.01411,0.3629497 0.0064,0.03728 -0.01016,0.08137 0,0.117596 0.0051,0.01811 0.02157,0.03801 0.02877,0.05518 0.0067,0.01584 0.0052,0.03502 0.01452,0.04944 0.0077,0.01186 0.03004,0.004 0.03994,0.0067 0.14168,0.03904 0.296481,-0.03756 0.435682,-0.07215 0.08238,-0.02047 0.15459,-0.06876 0.218637,-0.120626 0.03602,-0.02918 0.05342,-0.06324 0.09561,-0.08574 0.08582,-0.04577 0.17982,-0.07842 0.265125,-0.125238 0.203978,-0.111957 0.41509,-0.2345307 0.6015343,-0.3734487 0.09355,-0.069698 0.254893,-0.1976355 0.284023,-0.3210375 0.0056,-0.023512 0.0076,-0.101334 0.0089,-0.1116277 z"
       id="path12651" />
    <path
       style="fill:#000000;fill-opacity:1;stroke:#000000;stroke-width:0.0992183px;stroke-linecap:butt;stroke-linejoin:miter;stroke-opacity:1"
       d="M 7.6935873,7.4809663 C 7.6266798,7.4324488 7.5650425,7.3756902 7.4928752,7.3354175 c -0.028118,-0.01569 -0.2868495,0.00367 -0.3301237,0.012405 -0.03729,0.0075 -0.073537,0.020895 -0.1113615,0.024878 -0.022455,0.0024 -0.045502,-0.0039 -0.06774,0 -0.037463,0.0066 -0.074295,0.01857 -0.1086405,0.034928 -0.00999,0.00472 -0.013875,0.019125 -0.024412,0.022507 -0.01452,0.00465 -0.030705,-0.00255 -0.045743,0 -0.020917,0.00345 -0.037005,0.02235 -0.05778,0.02661 -0.012908,0.0027 -0.026798,-0.00338 -0.039518,0 -0.037567,0.010035 -0.06402,0.027727 -0.103059,0.0345 -0.06633,0.011505 -0.240258,-7.73e-5 -0.2997218,-0.011857 -0.021817,-0.00435 -0.040658,-0.018435 -0.06204,-0.024585 -0.064447,-0.01854 -0.1259047,-0.0189 -0.19083,-0.02643 -0.1067325,-0.012375 -0.2158335,-0.03198 -0.2942925,0.062445 -0.04908,0.05907 -0.070845,0.305859 -0.049222,0.3734775 0.0033,0.010335 0.018713,0.013702 0.021885,0.024075 0.00585,0.01929 0.029505,0.1966012 0.024405,0.2214975 -0.010905,0.05319 -0.04017,0.1051692 -0.047175,0.1610412 -0.00782,0.06238 -0.038077,0.278393 0.011527,0.330646 0.037628,0.03964 0.1073093,0.02362 0.1555568,0.03674 0.2243565,0.06098 0.4125082,0.0054 0.6320437,-0.03457 0.1184003,-0.02154 0.1970993,-0.01453 0.310125,-0.02481 0.062077,-0.0056 0.12084,-0.01833 0.1848563,-0.01241 0.1078747,0.01 0.2563222,0.04204 0.355545,-0.024 0.074033,-0.04927 0.1348387,-0.144653 0.172959,-0.22141 0.012945,-0.02607 0.00956,-0.05858 0.023648,-0.08405 0.00826,-0.01493 0.027645,-0.02189 0.035145,-0.03721 0.0243,-0.04965 0.029895,-0.1296065 0.037867,-0.1842912 0.00995,-0.068198 0.00956,-0.1344953 0.023948,-0.2016525 0.00958,-0.044783 -0.01287,-0.00143 0,-0.055252 0.00901,-0.037695 0.02271,-0.079262 0.035467,-0.1167285 0.00352,-0.010455 0.0021,-0.056152 0.00778,-0.063593 0.00465,-0.00607 0.01533,-0.00285 0.021802,-0.00682 0.013267,-0.00822 -0.00806,-0.060705 -0.022177,-0.090533 z"
       id="path12653" />
    <path
       style="fill:#000000;fill-opacity:1;stroke:#000000;stroke-width:0.0992183px;stroke-linecap:butt;stroke-linejoin:miter;stroke-opacity:1"
       d="m 4.8637945,8.2747157 c -0.1269023,-0.1558369 0.124188,-0.3611209 0.076979,-0.5327756 -0.010403,-0.037838 -0.036608,-0.073177 -0.045968,-0.11313 -0.0042,-0.017842 0.00225,-0.036787 0,-0.054975 -0.00285,-0.023543 -0.041685,-0.1203451 -0.06576,-0.1333696 -0.034755,-0.01881 -0.2590605,-0.0345 -0.2853083,-0.037463 -0.2425725,-0.027382 -0.4847287,-0.00308 -0.721374,0.036563 -0.15963,0.02676 -0.3236977,0.073072 -0.488982,0.049282 -0.1247932,-0.01797 -0.256074,-0.076758 -0.3866122,-0.049657 -0.084242,0.01749 -0.1569158,0.061845 -0.2041395,0.1330418 -0.01842,0.027772 -0.014505,0.077846 -0.020557,0.1077443 -0.00277,0.013875 -0.042142,0.064695 -0.023347,0.082684 0.00465,0.00443 0.011872,0.00495 0.017805,0.00743 0.015413,0.01152 0.03267,0.020917 0.04623,0.034567 0.020798,0.020932 0.036412,0.058507 0.055462,0.081865 0.1119645,0.137283 0.1660417,0.11616 0.3232342,0.193941 0.045075,0.022305 0.083328,0.059482 0.1277108,0.082023 0.037395,0.01899 0.08468,0.01668 0.124374,0.03504 0.1437097,0.06647 0.272319,0.162066 0.4185217,0.224241 0.060938,0.02592 0.1307625,0.03717 0.194337,0.05443 0.06858,0.01862 0.00563,0.005 0.083954,0.03403 0.04467,0.01658 0.088434,0.01705 0.1333305,0.02539 0.032857,0.0061 0.066367,0.03092 0.098458,0.03618 0.05193,0.0085 0.107118,0.01942 0.161253,0.01942 0.069068,0 0.3480233,-0.121635 0.377106,-0.190896 0.00608,-0.0094 -0.0039,-0.02179 0,-0.03156 0.016095,-0.04026 0.013455,-0.04677 0.0033,-0.09403 z"
       id="path12655" />
    <path
       style="opacity:0.250239;fill:#ffffff;fill-opacity:1;stroke:#ffffff;stroke-width:0.0992183px;stroke-linecap:butt;stroke-linejoin:miter;stroke-opacity:1"
       d="M 4.863712,3.5107572 C 4.797982,3.4481097 4.7339027,3.3836862 4.6665235,3.3228177 4.639861,3.2987352 4.5700112,3.2985177 4.539778,3.2924277 4.2735617,3.2388102 4.0969165,3.3340752 3.8571422,3.443654 3.8036147,3.4681115 3.7257152,3.5058665 3.6684317,3.516854 3.5469152,3.5401715 3.419257,3.5513915 3.2980472,3.581699 3.090259,3.633644 3.043804,3.6922715 2.923522,3.8523237 c -0.00547,0.00735 -0.00826,0.016335 -0.012405,0.024503 -0.0048,0.00892 -0.00832,0.018682 -0.014445,0.026752 -0.087004,0.1147313 -0.1861373,0.1447688 -0.1861373,0.322047 0,0.014558 -0.023347,0.2709098 -0.00472,0.2778465 0.044828,0.01668 0.097714,0.025867 0.1439288,0.03624 0.02859,0.00645 0.021907,0.020348 0.048135,0.02736 0.015923,0.00428 0.031665,-0.00397 0.047588,0 0.1081132,0.027045 0.2362732,0.038108 0.3507517,0.024098 0.077879,-0.00953 0.1445993,-0.04131 0.2178743,-0.06093 0.037275,-0.00998 0.091813,0 0.1304385,0 0.172386,0 0.2269837,0.030907 0.374835,0.06123 0.055005,0.01128 0.3246277,0.00933 0.3817687,0 0.035407,-0.00577 0.161532,-0.05076 0.1884908,-0.07113 0.0321,-0.024263 0.043185,-0.059003 0.06483,-0.089639 0.093586,-0.1324575 0.152313,-0.2647027 0.190248,-0.421533 0.00989,-0.040882 -0.01218,-0.081059 -0.01218,-0.1224262 0,-0.041362 -0.014902,-0.1557675 0,-0.1916633 0.036233,-0.087275 0.082847,-0.084728 0.03117,-0.18432 z"
       id="path13260" />
    <path
       style="opacity:0.250239;fill:#ffffff;fill-opacity:1;stroke:#ffffff;stroke-width:0.0992183px;stroke-linecap:butt;stroke-linejoin:miter;stroke-opacity:1"
       d="m 4.7277145,5.4965907 c -0.032325,-0.045533 -0.059887,-0.094851 -0.096972,-0.1365982 -0.042262,-0.04758 -0.127317,-0.038805 -0.1839143,-0.038805 -0.05019,0 -0.1095945,-0.00982 -0.158943,0 -0.03834,0.00763 -0.078017,0.02724 -0.1149877,0.032813 -0.1298303,0.01959 0.018045,-0.022733 -0.1035473,0.012405 -0.077208,0.022312 -0.1447822,0.064695 -0.2251837,0.081491 -0.095262,0.019905 -0.1949625,-0.022177 -0.2858273,-0.040027 -0.05838,-0.011468 -0.1083232,-0.018 -0.1627335,-0.037702 -0.04077,-0.014768 -0.2301165,-0.0057 -0.2722987,0 -0.03831,0.00517 -0.072353,0.019522 -0.108135,0.02694 -0.010725,0.00225 -0.022703,-0.00413 -0.03285,0 -0.03228,0.01308 -0.072383,0.05277 -0.09188,0.078877 -0.018428,0.024675 -0.05292,0.035827 -0.069757,0.056415 C 2.791397,5.5682045 2.769542,5.6400403 2.76034,5.682992 2.74369,5.760709 2.76815,5.8523233 2.748985,5.9285818 2.718715,6.0490378 2.6413562,6.100355 2.665346,6.2430958 2.681283,6.3379328 2.816123,6.448631 2.8993745,6.47909 c 0.044227,0.016178 0.04104,0.00368 0.07329,0.02436 0.062348,0.040087 0.073297,0.1321013 0.1455218,0.1575045 0.2604045,0.091591 0.5386627,0.085672 0.7902562,-0.03009 0.05406,-0.024877 0.095568,-0.074407 0.1490363,-0.101601 0.055193,-0.028073 0.119826,-0.062423 0.1775715,-0.086395 0.04311,-0.017902 0.060893,-0.00592 0.1079685,-0.012105 0.164373,-0.021562 -0.079344,-0.0021 0.074768,-0.024135 0.1172655,-0.016747 0.2225865,-0.015997 0.320871,-0.095869 0.05847,-0.047512 0.08488,-0.12081 0.098941,-0.1934723 0.00533,-0.02745 -0.00307,-0.056093 0,-0.083876 0.014145,-0.1256445 0.040703,-0.3097665 -0.012683,-0.4294485 -0.00442,-0.00995 -0.079832,-0.080597 -0.097186,-0.1073753 z"
       id="path13262" />
    <path
       style="opacity:0.250239;fill:#ffffff;fill-opacity:1;stroke:#ffffff;stroke-width:0.0992183px;stroke-linecap:butt;stroke-linejoin:miter;stroke-opacity:1"
       d="m 7.6935873,5.4965907 c -0.052485,0.00375 -0.1057561,0.021113 -0.1574506,0.011295 -0.06201,-0.011775 -0.1149247,-0.052507 -0.1741672,-0.074273 -0.019582,-0.0072 -0.04158,-0.00563 -0.061357,-0.012255 -0.0723,-0.024203 -0.1021718,-0.049493 -0.1826963,-0.059535 -0.1462065,-0.018232 -0.2113575,0.077794 -0.3395085,0.102894 -0.011985,0.0024 -0.024863,-0.00323 -0.036623,0 -0.015982,0.00442 -0.028275,0.018578 -0.0444,0.02244 -0.1187805,0.02847 -0.211911,-0.061515 -0.3186802,-0.061515 -0.1396845,0 -0.36894,0.072307 -0.4785735,0.1639568 -0.1346333,0.1125435 -0.2373758,0.4142805 -0.2624768,0.587277 -0.00713,0.048855 0,0.1069785 0,0.1558987 0,0.024038 -0.00762,0.04932 0,0.07212 0.015315,0.045832 0.060592,0.1059315 0.099206,0.1331468 0.027352,0.019275 0.088207,0.035842 0.1160993,0.049613 0.021338,0.01053 0.039075,0.02796 0.061148,0.036847 0.1516575,0.061065 0.3246225,0.037208 0.484245,0.037208 0.090144,0 0.339684,0.018247 0.4104127,0 0.034042,-0.00878 0.061508,-0.034133 0.09308,-0.049613 0.02802,-0.013732 0.059303,-0.021105 0.085561,-0.037965 0.09856,-0.063277 0.1746863,-0.186906 0.2124615,-0.295218 0.011933,-0.034215 -0.01662,-0.016935 0.011857,-0.049065 0.018953,-0.021382 0.07281,-0.032137 0.096863,-0.051345 0.026333,-0.021023 0.065317,-0.053183 0.088672,-0.076505 0.0423,-0.042247 0.07964,-0.096076 0.1252027,-0.1386435 0.02244,-0.02097 0.05328,-0.038475 0.07335,-0.059595 0.020048,-0.021097 0.02364,-0.060728 0.035977,-0.085096 0.056385,-0.111351 0.05652,-0.1963102 0.0618,-0.3220725 z"
       id="path13264" />
    <path
       style="opacity:0.250239;fill:#ffffff;fill-opacity:1;stroke:#ffffff;stroke-width:0.0992183px;stroke-linecap:butt;stroke-linejoin:miter;stroke-opacity:1"
       d="m 8.4873377,4.5501845 c 0.09446,0.010778 0.188979,0.021022 0.283374,0.032348 0.137307,0.01647 0.240849,0.043267 0.374743,0.024278 0.137048,-0.019432 0.356329,-0.094143 0.495415,-0.06402 0.09229,0.019988 0.184643,0.052935 0.279195,0.070215 0.0806,0.014737 0.1596033,0.015772 0.2397413,0.02481 0.07603,0.00857 0.158002,0.026115 0.233433,3.675e-4 0.03534,-0.012067 0.103491,-0.092726 0.128042,-0.1232025 0.01985,-0.024637 0.02122,-0.064418 0.03649,-0.09103 0.01854,-0.03234 0.02526,-0.013027 0.03373,-0.04842 0.02114,-0.088341 -0.0208,-0.1363162 -0.06135,-0.2032545 C 10.393226,3.9462328 10.371315,3.9635353 10.167812,3.839084 10.073042,3.781124 9.9758067,3.719207 9.8855577,3.6533593 c -0.08066,-0.058852 -0.120971,-0.1059008 -0.221034,-0.144951 -0.07302,-0.0285 -0.153303,-0.026445 -0.228531,-0.037208 -0.158352,-0.02265 0.07951,-0.00232 -0.113769,-0.02682 -0.07984,-0.010125 -0.02416,0.01476 -0.121956,0 -0.0973,-0.014678 -0.193113,-0.055582 -0.294933,-0.035295 -0.0057,0.00113 -0.0069,0.010395 -0.01234,0.012345 -0.04515,0.01608 -0.09849,0.026782 -0.143752,0.04944 -0.06165,0.030862 -0.01724,0.015795 -0.06439,0.063968 -0.03024,0.0309 -0.04148,0.02145 -0.06649,0.053332 -0.02437,0.031042 -0.04423,0.066397 -0.06756,0.097582 -0.002,0.00277 -0.05144,0.05157 -0.05193,0.052365 -0.01634,0.026535 -0.0256,0.07008 -0.03722,0.099155 -0.0084,0.02106 -0.02859,0.036652 -0.03476,0.05847 -0.0041,0.014603 0.0026,0.030577 0,0.04554 -0.0049,0.028538 -0.02897,0.057037 -0.03609,0.084997 -0.0079,0.031073 -0.0035,0.069465 -0.01142,0.100566 -0.009,0.035535 -0.05059,0.2757255 -0.02481,0.3152257 0.04687,0.071775 -0.01656,-0.028335 0.02323,0.01173 0.04066,0.040942 0.05333,0.062947 0.109565,0.096385 z"
       id="path13266" />
  </g>
  <g
     id="layer2"
     style="display:inline">
    <ellipse
       style="opacity:0.3;fill:#8fc6ff;fill-opacity:1;fill-rule:evenodd;stroke:none;stroke-width:0.0496095;stroke-linecap:round;stroke-linejoin:round;stroke-miterlimit:4;stroke-dasharray:none;stroke-opacity:1"
       id="ellipse7392"
       cx="6.5029631"
       cy="5.1989346"
       rx="5.5562496"
       ry="3.9687502" />
    <g
       id="g2819"
       style="opacity:0.3;stroke-width:0.132292;stroke-miterlimit:4;stroke-dasharray:none"
       transform="matrix(0.375,0,0,0.375,0.15296257,-1.2502838)">
      <path
         id="rect1788"
         clip-path="url(#clipPath2420-3)"
         d="M 2.1166666,16.933332 H 31.749998 c 0,0 0,0 0,0 v 4.233334 c 0,0 0,0 0,0 H 2.1166666 c 0,0 0,0 0,0 v -4.233334 c 0,0 0,0 0,0 z"
         style="fill:#8fc6ff;fill-opacity:1;fill-rule:evenodd;stroke:none;stroke-width:0.132292;stroke-linecap:round;stroke-linejoin:round;stroke-miterlimit:4;stroke-dasharray:none;stroke-opacity:1" />
      <path
         id="rect1790"
         clip-path="url(#clipPath2502-7)"
         mask="url(#mask2108-3)"
         d="M 2.1166666,21.166668 H 31.749998 c 0,0 0,0 0,0 v 10.583334 c 0,0 0,0 0,0 H 2.1166666 c 0,0 0,0 0,0 V 21.166668 c 0,0 0,0 0,0 z"
         style="fill:#8fc6ff;fill-opacity:1;fill-rule:evenodd;stroke:none;stroke-width:0.132292;stroke-linecap:round;stroke-linejoin:round;stroke-miterlimit:4;stroke-dasharray:none;stroke-opacity:1" />
    </g>
    <path
       style="opacity:0.803;fill:#ffffff;fill-opacity:1;fill-rule:evenodd;stroke:none;stroke-width:0.132292;stroke-linecap:round;stroke-linejoin:round;stroke-miterlimit:4;stroke-dasharray:none;stroke-opacity:0.999058"
       id="rect8744"
       width="3.1749997"
       height="7.4083328"
       x="10.583334"
       y="25.399998"
       mask="url(#mask9709)"
       clip-path="url(#clipPath9937)"
       d="m 10.583334,25.399998 h 3.175 v 7.408333 h -3.175 z"
       transform="matrix(0.375,0,0,0.375,0.15296257,-1.2502838)" />
    <path
       style="opacity:0.803;fill:#ffffff;fill-opacity:1;fill-rule:evenodd;stroke:none;stroke-width:0.132292;stroke-linecap:round;stroke-linejoin:round;stroke-miterlimit:4;stroke-dasharray:none;stroke-opacity:0.999058"
       id="rect10075"
       width="2.1166666"
       height="6.3499994"
       x="7.4083328"
       y="24.341667"
       clip-path="url(#clipPath10215)"
       d="m 7.4083328,24.341667 h 2.1166666 v 6.35 H 7.4083328 Z"
       mask="url(#mask10225)"
       transform="matrix(0.375,0,0,0.375,0.15296257,-1.2502838)" />
    <path
       style="opacity:0.803;fill:#ffffff;fill-opacity:1;fill-rule:evenodd;stroke:none;stroke-width:0.132292;stroke-linecap:round;stroke-linejoin:round;stroke-miterlimit:4;stroke-dasharray:none;stroke-opacity:0.999058"
       id="rect10323"
       width="1.0583333"
       height="6.3499994"
       x="14.816666"
       y="26.458332"
       clip-path="url(#clipPath10465)"
       d="m 14.816666,26.458332 h 1.058333 v 6.349999 h -1.058333 z"
       mask="url(#mask10475)"
       transform="matrix(0.375,0,0,0.375,0.15296257,-1.2502838)" />
    <path
       style="fill:none;fill-rule:evenodd;stroke:#000000;stroke-width:0.132292;stroke-linecap:round;stroke-linejoin:round;stroke-miterlimit:4;stroke-dasharray:none;stroke-opacity:1"
       id="path1512"
       clip-path="url(#clipPath7988)"
       d="M 31.749998,21.166668 A 14.816666,10.583334 0 0 1 16.933332,31.750002 14.816666,10.583334 0 0 1 2.1166668,21.166668 14.816666,10.583334 0 0 1 16.933332,10.583334 14.816666,10.583334 0 0 1 31.749998,21.166668 Z"
       transform="matrix(0.375,0,0,0.375,0.15296257,-1.2502838)" />
    <ellipse
       style="fill:none;fill-rule:evenodd;stroke:none;stroke-width:0.0496095;stroke-linecap:round;stroke-linejoin:round;stroke-miterlimit:4;stroke-dasharray:none;stroke-opacity:1"
       id="ellipse1760"
       cx="6.5029631"
       cy="5.1989346"
       rx="5.5562496"
       ry="3.9687502" />
    <ellipse
       style="fill:none;fill-rule:evenodd;stroke:none;stroke-width:0.0496095;stroke-linecap:round;stroke-linejoin:round;stroke-miterlimit:4;stroke-dasharray:none;stroke-opacity:1"
       id="ellipse1762"
       cx="6.5029631"
       cy="5.1989346"
       rx="5.4090004"
       ry="3.821507" />
    <path
       style="fill:none;stroke:#000000;stroke-width:0.0496095;stroke-linecap:butt;stroke-linejoin:miter;stroke-miterlimit:4;stroke-dasharray:none;stroke-opacity:1"
       d="M 0.94671247,6.687215 V 5.0997155"
       id="path2912" />
    <path
       style="fill:none;stroke:#000000;stroke-width:0.0496095;stroke-linecap:butt;stroke-linejoin:miter;stroke-miterlimit:4;stroke-dasharray:none;stroke-opacity:1"
       d="M 12.059213,6.687215 V 5.0997155"
       id="path2914" />
    <ellipse
       style="fill:#f0f8ff;fill-opacity:1;fill-rule:evenodd;stroke:#003266;stroke-width:0.132292;stroke-linecap:round;stroke-linejoin:round;stroke-miterlimit:4;stroke-dasharray:none;stroke-opacity:0.999058"
       id="ellipse7484"
       clip-path="url(#clipPath7906)"
       d="M 31.749998,17.197916 A 14.816666,10.583334 0 0 1 16.933332,27.78125 14.816666,10.583334 0 0 1 2.1166668,17.197916 14.816666,10.583334 0 0 1 16.933332,6.6145821 14.816666,10.583334 0 0 1 31.749998,17.197916 Z"
       transform="matrix(0.375,0,0,0.375,0.15296257,-1.2502838)" />
    <ellipse
       style="opacity:0.803;fill:url(#radialGradient11224);fill-opacity:1;fill-rule:evenodd;stroke:none;stroke-width:0.0496095;stroke-linecap:round;stroke-linejoin:round;stroke-miterlimit:4;stroke-dasharray:none;stroke-opacity:0.999058"
       id="path11136"
       cx="6.5029631"
       cy="6.0919032"
       rx="5.1593747"
       ry="3.3734376" />
    <path
       style="opacity:0.8;fill:#ffffff;fill-opacity:1;fill-rule:evenodd;stroke:none;stroke-width:0.132292;stroke-linecap:round;stroke-linejoin:round;stroke-miterlimit:4;stroke-dasharray:none;stroke-opacity:0.999058"
       id="path8438"
       clip-path="url(#clipPath8594)"
       transform="matrix(0.35826491,0,0,0.35826491,0.43634347,-1.3076797)"
       d="M 31.749998,21.292068 A 14.816666,10.054167 0 0 1 16.933332,31.346235 14.816666,10.054167 0 0 1 2.1166668,21.292068 14.816666,10.054167 0 0 1 16.933332,11.237902 14.816666,10.054167 0 0 1 31.749998,21.292068 Z" />
  </g>
</svg>
