<?xml version="1.0" encoding="UTF-8" standalone="no"?>
<!-- Created with Inkscape (http://www.inkscape.org/) -->

<svg
   width="64"
   height="64"
   viewBox="0 0 16.933333 16.933334"
   version="1.1"
   id="svg5"
   xmlns:xlink="http://www.w3.org/1999/xlink"
   xmlns="http://www.w3.org/2000/svg"
   xmlns:svg="http://www.w3.org/2000/svg">
  <defs
     id="defs2">
    <linearGradient
       id="linearGradient11222">
      <stop
         style="stop-color:#ffffff;stop-opacity:0.31652638"
         offset="0"
         id="stop11218" />
      <stop
         style="stop-color:#ffffff;stop-opacity:0;"
         offset="1"
         id="stop11220" />
    </linearGradient>
    <mask
       maskUnits="userSpaceOnUse"
       id="mask2108">
      <path
         id="ellipse2110"
         d="M 31.749998,21.16667 A 14.816666,10.583335 0 0 1 16.933332,31.750005 14.816666,10.583335 0 0 1 2.1166668,21.16667 14.816666,10.583335 0 0 1 16.933332,10.583335 14.816666,10.583335 0 0 1 31.749998,21.16667 Z"
         style="opacity:1;fill:#ffffff;fill-opacity:1;fill-rule:evenodd;stroke:none;stroke-width:0.264583;stroke-linecap:round;stroke-linejoin:round;stroke-miterlimit:4;stroke-dasharray:none;stroke-opacity:1" />
    </mask>
    <clipPath
       clipPathUnits="userSpaceOnUse"
       id="clipPath2420">
      <path
         id="lpe_path-effect2424"
         style="opacity:1;fill:#ffffff;fill-opacity:1;fill-rule:evenodd;stroke:none;stroke-width:0.264583;stroke-linecap:round;stroke-linejoin:round;stroke-miterlimit:4;stroke-dasharray:none;stroke-opacity:1"
         class="powerclip"
         d="M -2.8833334,11.933332 H 36.749998 V 26.166666 H -2.8833334 Z M 31.749998,17.197918 A 14.816666,10.583335 0 0 0 16.933332,6.614583 14.816666,10.583335 0 0 0 2.1166668,17.197918 14.816666,10.583335 0 0 0 16.933332,27.781253 14.816666,10.583335 0 0 0 31.749998,17.197918 Z" />
    </clipPath>
    <clipPath
       clipPathUnits="userSpaceOnUse"
       id="clipPath2502">
      <path
         id="lpe_path-effect2506"
         style="opacity:1;fill:#ffffff;fill-opacity:1;fill-rule:evenodd;stroke:none;stroke-width:0.264583;stroke-linecap:round;stroke-linejoin:round;stroke-miterlimit:4;stroke-dasharray:none;stroke-opacity:1"
         class="powerclip"
         d="M -2.8833332,16.166668 H 36.749998 V 36.750002 H -2.8833332 Z m 34.6333312,1.03125 A 14.816666,10.583335 0 0 0 16.933332,6.614583 14.816666,10.583335 0 0 0 2.1166668,17.197918 14.816666,10.583335 0 0 0 16.933332,27.781253 14.816666,10.583335 0 0 0 31.749998,17.197918 Z" />
    </clipPath>
    <clipPath
       clipPathUnits="userSpaceOnUse"
       id="clipPath2420-3">
      <path
         id="lpe_path-effect2424-6"
         style="opacity:1;fill:#ffffff;fill-opacity:1;fill-rule:evenodd;stroke:none;stroke-width:0.264583;stroke-linecap:round;stroke-linejoin:round;stroke-miterlimit:4;stroke-dasharray:none;stroke-opacity:1"
         class="powerclip"
         d="M -2.8833334,11.933332 H 36.749998 V 26.166666 H -2.8833334 Z M 31.749998,17.197918 A 14.816666,10.583335 0 0 0 16.933332,6.614583 14.816666,10.583335 0 0 0 2.1166668,17.197918 14.816666,10.583335 0 0 0 16.933332,27.781253 14.816666,10.583335 0 0 0 31.749998,17.197918 Z" />
    </clipPath>
    <clipPath
       clipPathUnits="userSpaceOnUse"
       id="clipPath2502-7">
      <path
         id="lpe_path-effect2506-5"
         style="opacity:1;fill:#ffffff;fill-opacity:1;fill-rule:evenodd;stroke:none;stroke-width:0.264583;stroke-linecap:round;stroke-linejoin:round;stroke-miterlimit:4;stroke-dasharray:none;stroke-opacity:1"
         class="powerclip"
         d="M -2.8833332,16.166668 H 36.749998 V 36.750002 H -2.8833332 Z m 34.6333312,1.03125 A 14.816666,10.583335 0 0 0 16.933332,6.614583 14.816666,10.583335 0 0 0 2.1166668,17.197918 14.816666,10.583335 0 0 0 16.933332,27.781253 14.816666,10.583335 0 0 0 31.749998,17.197918 Z" />
    </clipPath>
    <mask
       maskUnits="userSpaceOnUse"
       id="mask2108-3">
      <path
         id="ellipse2110-5"
         d="M 31.749998,21.16667 A 14.816666,10.583335 0 0 1 16.933332,31.750005 14.816666,10.583335 0 0 1 2.1166668,21.16667 14.816666,10.583335 0 0 1 16.933332,10.583335 14.816666,10.583335 0 0 1 31.749998,21.16667 Z"
         style="opacity:1;fill:#ffffff;fill-opacity:1;fill-rule:evenodd;stroke:none;stroke-width:0.264583;stroke-linecap:round;stroke-linejoin:round;stroke-miterlimit:4;stroke-dasharray:none;stroke-opacity:1" />
    </mask>
    <filter
       id="mask-powermask-path-effect4077_inverse"
       style="color-interpolation-filters:sRGB"
       height="100"
       width="100"
       x="-50"
       y="-50">
      <feColorMatrix
         id="mask-powermask-path-effect4077_primitive1"
         values="1"
         type="saturate"
         result="fbSourceGraphic" />
      <feColorMatrix
         id="mask-powermask-path-effect4077_primitive2"
         values="-1 0 0 0 1 0 -1 0 0 1 0 0 -1 0 1 0 0 0 1 0 "
         in="fbSourceGraphic" />
    </filter>
    <mask
       maskUnits="userSpaceOnUse"
       id="mask4084">
      <ellipse
         style="opacity:1;fill:#ffffff;fill-opacity:1;fill-rule:evenodd;stroke:none;stroke-width:0.132292;stroke-linecap:round;stroke-linejoin:round;stroke-miterlimit:4;stroke-dasharray:none;stroke-opacity:1"
         id="ellipse4086"
         cx="16.933332"
         cy="21.16667"
         rx="14.162226"
         ry="9.9288921"
         d="M 31.095558,21.16667 A 14.162226,9.9288921 0 0 1 16.933332,31.095562 14.162226,9.9288921 0 0 1 2.7711067,21.16667 14.162226,9.9288921 0 0 1 16.933332,11.237778 14.162226,9.9288921 0 0 1 31.095558,21.16667 Z" />
    </mask>
    <clipPath
       clipPathUnits="userSpaceOnUse"
       id="clipPath4162">
      <ellipse
         style="display:none;opacity:1;fill:#ffffff;fill-opacity:1;fill-rule:evenodd;stroke:none;stroke-width:0.132292;stroke-linecap:round;stroke-linejoin:round;stroke-miterlimit:4;stroke-dasharray:none;stroke-opacity:1"
         id="ellipse4164"
         cx="16.933332"
         cy="19.843624"
         rx="14.162226"
         ry="9.9288921"
         d="M 31.095558,19.843624 A 14.162226,9.9288921 0 0 1 16.933332,29.772516 14.162226,9.9288921 0 0 1 2.7711067,19.843624 14.162226,9.9288921 0 0 1 16.933332,9.914732 14.162226,9.9288921 0 0 1 31.095558,19.843624 Z" />
      <path
         id="lpe_path-effect4166"
         style="opacity:1;fill:#ffffff;fill-opacity:1;fill-rule:evenodd;stroke:none;stroke-width:0.132292;stroke-linecap:round;stroke-linejoin:round;stroke-miterlimit:4;stroke-dasharray:none;stroke-opacity:1"
         class="powerclip"
         d="M -2.2950388,14.77748 H 36.161707 V 26.232816 H -2.2950388 Z M 31.095558,19.843624 A 14.162226,9.9288921 0 0 0 16.933332,9.914732 14.162226,9.9288921 0 0 0 2.7711067,19.843624 14.162226,9.9288921 0 0 0 16.933332,29.772516 14.162226,9.9288921 0 0 0 31.095558,19.843624 Z" />
    </clipPath>
    <clipPath
       clipPathUnits="userSpaceOnUse"
       id="clipPath4244">
      <ellipse
         style="display:none;opacity:1;fill:#ffffff;fill-opacity:1;fill-rule:evenodd;stroke:none;stroke-width:0.132292;stroke-linecap:round;stroke-linejoin:round;stroke-miterlimit:4;stroke-dasharray:none;stroke-opacity:1"
         id="ellipse4246"
         cx="16.933332"
         cy="19.843624"
         rx="14.162226"
         ry="9.9288921"
         d="M 31.095558,19.843624 A 14.162226,9.9288921 0 0 1 16.933332,29.772516 14.162226,9.9288921 0 0 1 2.7711067,19.843624 14.162226,9.9288921 0 0 1 16.933332,9.914732 14.162226,9.9288921 0 0 1 31.095558,19.843624 Z" />
      <path
         id="lpe_path-effect4248"
         style="opacity:1;fill:#ffffff;fill-opacity:1;fill-rule:evenodd;stroke:none;stroke-width:0.132292;stroke-linecap:round;stroke-linejoin:round;stroke-miterlimit:4;stroke-dasharray:none;stroke-opacity:1"
         class="powerclip"
         d="M -2.2288933,16.100524 H 36.095558 V 36.095562 H -2.2288933 Z m 33.3244513,3.7431 A 14.162226,9.9288921 0 0 0 16.933332,9.914732 14.162226,9.9288921 0 0 0 2.7711067,19.843624 14.162226,9.9288921 0 0 0 16.933332,29.772516 14.162226,9.9288921 0 0 0 31.095558,19.843624 Z" />
    </clipPath>
    <mask
       maskUnits="userSpaceOnUse"
       id="mask6806">
      <ellipse
         style="opacity:1;fill:#ffffff;fill-opacity:1;fill-rule:evenodd;stroke:none;stroke-width:0.132292;stroke-linecap:round;stroke-linejoin:round;stroke-miterlimit:4;stroke-dasharray:none;stroke-opacity:1"
         id="ellipse6808"
         cx="16.933332"
         cy="21.16667"
         rx="14.162226"
         ry="9.9288921" />
    </mask>
    <filter
       id="mask-powermask-path-effect7182_inverse"
       style="color-interpolation-filters:sRGB"
       height="100"
       width="100"
       x="-50"
       y="-50">
      <feColorMatrix
         id="mask-powermask-path-effect7182_primitive1"
         values="1"
         type="saturate"
         result="fbSourceGraphic" />
      <feColorMatrix
         id="mask-powermask-path-effect7182_primitive2"
         values="-1 0 0 0 1 0 -1 0 0 1 0 0 -1 0 1 0 0 0 1 0 "
         in="fbSourceGraphic" />
    </filter>
    <filter
       id="mask-powermask-path-effect7216_inverse"
       style="color-interpolation-filters:sRGB"
       height="100"
       width="100"
       x="-50"
       y="-50">
      <feColorMatrix
         id="mask-powermask-path-effect7216_primitive1"
         values="1"
         type="saturate"
         result="fbSourceGraphic" />
      <feColorMatrix
         id="mask-powermask-path-effect7216_primitive2"
         values="-1 0 0 0 1 0 -1 0 0 1 0 0 -1 0 1 0 0 0 1 0 "
         in="fbSourceGraphic" />
    </filter>
    <clipPath
       clipPathUnits="userSpaceOnUse"
       id="clipPath7222">
      <ellipse
         style="display:none;opacity:1;fill:#ffffff;fill-opacity:1;fill-rule:evenodd;stroke:none;stroke-width:0.132292;stroke-linecap:round;stroke-linejoin:round;stroke-miterlimit:4;stroke-dasharray:none;stroke-opacity:1"
         id="ellipse7224"
         ry="9.9288921"
         rx="14.162226"
         cy="19.843624"
         cx="16.933332"
         d="M 31.095558,19.843624 A 14.162226,9.9288921 0 0 1 16.933332,29.772516 14.162226,9.9288921 0 0 1 2.7711067,19.843624 14.162226,9.9288921 0 0 1 16.933332,9.914732 14.162226,9.9288921 0 0 1 31.095558,19.843624 Z" />
      <path
         id="lpe_path-effect7226"
         style="opacity:1;fill:#ffffff;fill-opacity:1;fill-rule:evenodd;stroke:none;stroke-width:0.132292;stroke-linecap:round;stroke-linejoin:round;stroke-miterlimit:4;stroke-dasharray:none;stroke-opacity:1"
         class="powerclip"
         d="M -2.2950393,6.1716298 H 36.161704 V 36.161706 H -2.2950393 Z M 31.095558,19.843624 A 14.162226,9.9288921 0 0 0 16.933332,9.914732 14.162226,9.9288921 0 0 0 2.7711067,19.843624 14.162226,9.9288921 0 0 0 16.933332,29.772516 14.162226,9.9288921 0 0 0 31.095558,19.843624 Z" />
    </clipPath>
    <filter
       id="mask-powermask-path-effect7900_inverse"
       style="color-interpolation-filters:sRGB"
       height="100"
       width="100"
       x="-50"
       y="-50">
      <feColorMatrix
         id="mask-powermask-path-effect7900_primitive1"
         values="1"
         type="saturate"
         result="fbSourceGraphic" />
      <feColorMatrix
         id="mask-powermask-path-effect7900_primitive2"
         values="-1 0 0 0 1 0 -1 0 0 1 0 0 -1 0 1 0 0 0 1 0 "
         in="fbSourceGraphic" />
    </filter>
    <clipPath
       clipPathUnits="userSpaceOnUse"
       id="clipPath7906">
      <ellipse
         style="display:none;fill:#ffffff;fill-opacity:1;fill-rule:evenodd;stroke:none;stroke-width:0.132292;stroke-linecap:round;stroke-linejoin:round;stroke-miterlimit:4;stroke-dasharray:none;stroke-opacity:1"
         id="ellipse7908"
         cx="16.933332"
         cy="17.197916"
         rx="14.424001"
         ry="10.190685"
         d="M 31.357333,17.197916 A 14.424001,10.190685 0 0 1 16.933332,27.388601 14.424001,10.190685 0 0 1 2.5093317,17.197916 14.424001,10.190685 0 0 1 16.933332,7.0072308 14.424001,10.190685 0 0 1 31.357333,17.197916 Z" />
      <path
         id="lpe_path-effect7910"
         style="fill:#ffffff;fill-opacity:1;fill-rule:evenodd;stroke:none;stroke-width:0.132292;stroke-linecap:round;stroke-linejoin:round;stroke-miterlimit:4;stroke-dasharray:none;stroke-opacity:1"
         class="powerclip"
         d="M -2.9494792,1.5484361 H 36.816144 V 32.847396 H -2.9494792 Z M 31.357333,17.197916 A 14.424001,10.190685 0 0 0 16.933332,7.0072308 14.424001,10.190685 0 0 0 2.5093317,17.197916 14.424001,10.190685 0 0 0 16.933332,27.388601 14.424001,10.190685 0 0 0 31.357333,17.197916 Z" />
    </clipPath>
    <clipPath
       clipPathUnits="userSpaceOnUse"
       id="clipPath7988">
      <ellipse
         style="display:none;fill:#ffffff;fill-opacity:1;fill-rule:evenodd;stroke:none;stroke-width:0.132292;stroke-linecap:round;stroke-linejoin:round;stroke-miterlimit:4;stroke-dasharray:none;stroke-opacity:1"
         id="ellipse7990"
         cx="16.93331"
         cy="17.197916"
         rx="14.424001"
         ry="10.190685"
         d="M 31.35731,17.197916 A 14.424001,10.190685 0 0 1 16.93331,27.388601 14.424001,10.190685 0 0 1 2.5093088,17.197916 14.424001,10.190685 0 0 1 16.93331,7.0072308 14.424001,10.190685 0 0 1 31.35731,17.197916 Z" />
      <path
         id="lpe_path-effect7992"
         style="fill:#ffffff;fill-opacity:1;fill-rule:evenodd;stroke:none;stroke-width:0.132292;stroke-linecap:round;stroke-linejoin:round;stroke-miterlimit:4;stroke-dasharray:none;stroke-opacity:1"
         class="powerclip"
         d="M -2.9494792,5.517188 H 36.816144 v 31.29896 H -2.9494792 Z M 31.35731,17.197916 A 14.424001,10.190685 0 0 0 16.93331,7.0072308 14.424001,10.190685 0 0 0 2.5093088,17.197916 14.424001,10.190685 0 0 0 16.93331,27.388601 14.424001,10.190685 0 0 0 31.35731,17.197916 Z" />
    </clipPath>
    <clipPath
       clipPathUnits="userSpaceOnUse"
       id="clipPath8594">
      <ellipse
         style="display:none;opacity:1;fill:#ffffff;fill-opacity:1;fill-rule:evenodd;stroke:none;stroke-width:0.146466;stroke-linecap:round;stroke-linejoin:round;stroke-miterlimit:4;stroke-dasharray:none;stroke-opacity:0.999058"
         id="ellipse8596"
         cx="17.462498"
         cy="23.283333"
         rx="16.404167"
         ry="11.131399"
         d="M 33.866665,23.283333 A 16.404167,11.131399 0 0 1 17.462498,34.414732 16.404167,11.131399 0 0 1 1.0583305,23.283333 16.404167,11.131399 0 0 1 17.462498,12.151934 16.404167,11.131399 0 0 1 33.866665,23.283333 Z" />
      <path
         id="lpe_path-effect8598"
         style="opacity:1;fill:#ffffff;fill-opacity:1;fill-rule:evenodd;stroke:none;stroke-width:0.146466;stroke-linecap:round;stroke-linejoin:round;stroke-miterlimit:4;stroke-dasharray:none;stroke-opacity:0.999058"
         class="powerclip"
         d="M -2.8833332,6.2379017 H 36.749998 V 36.346235 H -2.8833332 Z M 33.866665,23.283333 A 16.404167,11.131399 0 0 0 17.462498,12.151934 16.404167,11.131399 0 0 0 1.0583305,23.283333 16.404167,11.131399 0 0 0 17.462498,34.414732 16.404167,11.131399 0 0 0 33.866665,23.283333 Z" />
    </clipPath>
    <clipPath
       clipPathUnits="userSpaceOnUse"
       id="clipath_lpe_path-effect8848">
      <ellipse
         style="display:none;fill:#ffffff;fill-opacity:1;fill-rule:evenodd;stroke:none;stroke-width:0.132292;stroke-linecap:round;stroke-linejoin:round;stroke-miterlimit:4;stroke-dasharray:none;stroke-opacity:1"
         id="ellipse8850"
         cx="16.93331"
         cy="17.197916"
         rx="14.424001"
         ry="10.190685" />
    </clipPath>
    <filter
       id="mask-powermask-path-effect9517_inverse"
       style="color-interpolation-filters:sRGB"
       height="100"
       width="100"
       x="-50"
       y="-50">
      <feColorMatrix
         id="mask-powermask-path-effect9517_primitive1"
         values="1"
         type="saturate"
         result="fbSourceGraphic" />
      <feColorMatrix
         id="mask-powermask-path-effect9517_primitive2"
         values="-1 0 0 0 1 0 -1 0 0 1 0 0 -1 0 1 0 0 0 1 0 "
         in="fbSourceGraphic" />
    </filter>
    <mask
       maskUnits="userSpaceOnUse"
       id="mask9709">
      <ellipse
         style="opacity:1;fill:#ffffff;fill-opacity:0.998739;fill-rule:evenodd;stroke:none;stroke-width:0.857591;stroke-linecap:round;stroke-linejoin:round;stroke-miterlimit:4;stroke-dasharray:none;stroke-opacity:0.999058"
         id="ellipse9711"
         cx="16.941353"
         cy="21.992889"
         rx="14.808645"
         ry="9.7572317"
         d="M 31.749998,21.992889 A 14.808645,9.7572317 0 0 1 16.941353,31.750121 14.808645,9.7572317 0 0 1 2.1327076,21.992889 14.808645,9.7572317 0 0 1 16.941353,12.235658 14.808645,9.7572317 0 0 1 31.749998,21.992889 Z" />
    </mask>
    <filter
       id="mask-powermask-path-effect9911_inverse"
       style="color-interpolation-filters:sRGB"
       height="100"
       width="100"
       x="-50"
       y="-50">
      <feColorMatrix
         id="mask-powermask-path-effect9911_primitive1"
         values="1"
         type="saturate"
         result="fbSourceGraphic" />
      <feColorMatrix
         id="mask-powermask-path-effect9911_primitive2"
         values="-1 0 0 0 1 0 -1 0 0 1 0 0 -1 0 1 0 0 0 1 0 "
         in="fbSourceGraphic" />
    </filter>
    <clipPath
       clipPathUnits="userSpaceOnUse"
       id="clipPath9937">
      <ellipse
         style="display:none;opacity:1;fill:#ffffff;fill-opacity:0.998739;fill-rule:evenodd;stroke:none;stroke-width:0.704427;stroke-linecap:round;stroke-linejoin:round;stroke-miterlimit:4;stroke-dasharray:none;stroke-opacity:0.999058"
         id="ellipse9939"
         ry="10.583333"
         rx="14.816089"
         cy="17.197916"
         cx="16.933912"
         d="M 31.750001,17.197916 A 14.816089,10.583333 0 0 1 16.933912,27.781249 14.816089,10.583333 0 0 1 2.1178236,17.197916 14.816089,10.583333 0 0 1 16.933912,6.614583 14.816089,10.583333 0 0 1 31.750001,17.197916 Z" />
      <path
         id="lpe_path-effect9941"
         style="opacity:1;fill:#ffffff;fill-opacity:0.998739;fill-rule:evenodd;stroke:none;stroke-width:0.704427;stroke-linecap:round;stroke-linejoin:round;stroke-miterlimit:4;stroke-dasharray:none;stroke-opacity:0.999058"
         class="powerclip"
         d="m 5.583334,20.399998 h 13.175 v 16.350123 h -13.175 z M 31.750001,17.197916 A 14.816089,10.583333 0 0 0 16.933912,6.614583 14.816089,10.583333 0 0 0 2.1178236,17.197916 14.816089,10.583333 0 0 0 16.933912,27.781249 14.816089,10.583333 0 0 0 31.750001,17.197916 Z" />
    </clipPath>
    <clipPath
       clipPathUnits="userSpaceOnUse"
       id="clipPath10215">
      <ellipse
         style="display:none;opacity:1;fill:#ffffff;fill-opacity:0.998739;fill-rule:evenodd;stroke:none;stroke-width:0.700011;stroke-linecap:round;stroke-linejoin:round;stroke-miterlimit:4;stroke-dasharray:none;stroke-opacity:0.999058"
         id="ellipse10217"
         cx="16.933813"
         cy="17.065624"
         rx="14.816089"
         ry="10.451042"
         d="M 31.749902,17.065624 A 14.816089,10.451042 0 0 1 16.933813,27.516666 14.816089,10.451042 0 0 1 2.1177244,17.065624 14.816089,10.451042 0 0 1 16.933813,6.6145821 14.816089,10.451042 0 0 1 31.749902,17.065624 Z" />
      <path
         id="lpe_path-effect10219"
         style="opacity:1;fill:#ffffff;fill-opacity:0.998739;fill-rule:evenodd;stroke:none;stroke-width:0.700011;stroke-linecap:round;stroke-linejoin:round;stroke-miterlimit:4;stroke-dasharray:none;stroke-opacity:0.999058"
         class="powerclip"
         d="M 2.4083328,19.341667 H 14.524999 v 16.35 H 2.4083328 Z M 31.749902,17.065624 A 14.816089,10.451042 0 0 0 16.933813,6.6145821 14.816089,10.451042 0 0 0 2.1177244,17.065624 14.816089,10.451042 0 0 0 16.933813,27.516666 14.816089,10.451042 0 0 0 31.749902,17.065624 Z" />
    </clipPath>
    <mask
       maskUnits="userSpaceOnUse"
       id="mask10225">
      <ellipse
         style="opacity:1;fill:#ffffff;fill-opacity:0.998739;fill-rule:evenodd;stroke:none;stroke-width:0.857591;stroke-linecap:round;stroke-linejoin:round;stroke-miterlimit:4;stroke-dasharray:none;stroke-opacity:0.999058"
         id="ellipse10227"
         cx="16.941452"
         cy="21.992889"
         rx="14.808645"
         ry="9.7572317"
         d="M 31.750097,21.992889 A 14.808645,9.7572317 0 0 1 16.941452,31.750121 14.808645,9.7572317 0 0 1 2.1328068,21.992889 14.808645,9.7572317 0 0 1 16.941452,12.235658 14.808645,9.7572317 0 0 1 31.750097,21.992889 Z" />
    </mask>
    <clipPath
       clipPathUnits="userSpaceOnUse"
       id="clipPath10465">
      <ellipse
         style="display:none;opacity:1;fill:#ffffff;fill-opacity:0.998739;fill-rule:evenodd;stroke:none;stroke-width:0.702911;stroke-linecap:round;stroke-linejoin:round;stroke-miterlimit:4;stroke-dasharray:none;stroke-opacity:0.999058"
         id="ellipse10467"
         cx="16.933813"
         cy="17.152369"
         rx="14.816089"
         ry="10.537788"
         d="M 31.749902,17.152369 A 14.816089,10.537788 0 0 1 16.933813,27.690157 14.816089,10.537788 0 0 1 2.1177244,17.152369 14.816089,10.537788 0 0 1 16.933813,6.6145802 14.816089,10.537788 0 0 1 31.749902,17.152369 Z" />
      <path
         id="lpe_path-effect10469"
         style="opacity:1;fill:#ffffff;fill-opacity:0.998739;fill-rule:evenodd;stroke:none;stroke-width:0.702911;stroke-linecap:round;stroke-linejoin:round;stroke-miterlimit:4;stroke-dasharray:none;stroke-opacity:0.999058"
         class="powerclip"
         d="M 9.8166656,21.458332 H 20.874999 V 36.750121 H 9.8166656 Z M 31.749902,17.152369 A 14.816089,10.537788 0 0 0 16.933813,6.6145802 14.816089,10.537788 0 0 0 2.1177244,17.152369 14.816089,10.537788 0 0 0 16.933813,27.690157 14.816089,10.537788 0 0 0 31.749902,17.152369 Z" />
    </clipPath>
    <mask
       maskUnits="userSpaceOnUse"
       id="mask10475">
      <ellipse
         style="opacity:1;fill:#ffffff;fill-opacity:0.998739;fill-rule:evenodd;stroke:none;stroke-width:0.857591;stroke-linecap:round;stroke-linejoin:round;stroke-miterlimit:4;stroke-dasharray:none;stroke-opacity:0.999058"
         id="ellipse10477"
         cx="16.941452"
         cy="21.992889"
         rx="14.808645"
         ry="9.7572317"
         d="M 31.750097,21.992889 A 14.808645,9.7572317 0 0 1 16.941452,31.750121 14.808645,9.7572317 0 0 1 2.1328068,21.992889 14.808645,9.7572317 0 0 1 16.941452,12.235658 14.808645,9.7572317 0 0 1 31.750097,21.992889 Z" />
    </mask>
    <radialGradient
       xlink:href="#linearGradient11222"
       id="radialGradient11224"
       cx="16.933332"
       cy="13.91397"
       fx="16.933332"
       fy="13.91397"
       r="13.758332"
       gradientTransform="matrix(0.5,0,0,0.32692311,0.01653672,1.7534746)"
       gradientUnits="userSpaceOnUse" />
    <filter
       style="color-interpolation-filters:sRGB"
       id="filter11938"
       x="-0.033779537"
       y="-0.047102343"
       width="1.0675591"
       height="1.0942047">
      <feGaussianBlur
         stdDeviation="0.30137266"
         id="feGaussianBlur11940" />
    </filter>
    <mask
       maskUnits="userSpaceOnUse"
       id="mask12138">
      <ellipse
         style="opacity:1;fill:#ffffff;fill-opacity:1;fill-rule:evenodd;stroke:none;stroke-width:0.132292;stroke-linecap:round;stroke-linejoin:round;stroke-miterlimit:4;stroke-dasharray:none;stroke-opacity:0.999058"
         id="ellipse12140"
         cx="16.933332"
         cy="19.049999"
         rx="13.758332"
         ry="8.4666662" />
    </mask>
    <mask
       maskUnits="userSpaceOnUse"
       id="mask12144">
      <ellipse
         style="opacity:1;fill:#ffffff;fill-opacity:1;fill-rule:evenodd;stroke:none;stroke-width:0.132292;stroke-linecap:round;stroke-linejoin:round;stroke-miterlimit:4;stroke-dasharray:none;stroke-opacity:0.999058"
         id="ellipse12146"
         cx="16.933332"
         cy="19.049999"
         rx="13.758332"
         ry="8.4666662" />
    </mask>
    <mask
       maskUnits="userSpaceOnUse"
       id="mask12150">
      <ellipse
         style="opacity:1;fill:#ffffff;fill-opacity:1;fill-rule:evenodd;stroke:none;stroke-width:0.132292;stroke-linecap:round;stroke-linejoin:round;stroke-miterlimit:4;stroke-dasharray:none;stroke-opacity:0.999058"
         id="ellipse12152"
         cx="16.933332"
         cy="19.049999"
         rx="13.758332"
         ry="8.4666662" />
    </mask>
    <mask
       maskUnits="userSpaceOnUse"
       id="mask12156">
      <ellipse
         style="opacity:1;fill:#ffffff;fill-opacity:1;fill-rule:evenodd;stroke:none;stroke-width:0.132292;stroke-linecap:round;stroke-linejoin:round;stroke-miterlimit:4;stroke-dasharray:none;stroke-opacity:0.999058"
         id="ellipse12158"
         cx="16.933332"
         cy="19.049999"
         rx="13.758332"
         ry="8.4666662" />
    </mask>
    <mask
       maskUnits="userSpaceOnUse"
       id="mask6806-6">
      <ellipse
         style="opacity:1;fill:#ffffff;fill-opacity:1;fill-rule:evenodd;stroke:none;stroke-width:0.132292;stroke-linecap:round;stroke-linejoin:round;stroke-miterlimit:4;stroke-dasharray:none;stroke-opacity:1"
         id="ellipse6808-2"
         cx="16.933332"
         cy="21.16667"
         rx="14.162226"
         ry="9.9288921" />
    </mask>
    <filter
       style="color-interpolation-filters:sRGB"
       id="filter13858"
       x="-0.10776028"
       y="-0.16183598"
       width="1.2155206"
       height="1.323672">
      <feGaussianBlur
         stdDeviation="0.63584992"
         id="feGaussianBlur13860" />
    </filter>
    <mask
       maskUnits="userSpaceOnUse"
       id="mask6806-9">
      <ellipse
         style="opacity:1;fill:#ffffff;fill-opacity:1;fill-rule:evenodd;stroke:none;stroke-width:0.132292;stroke-linecap:round;stroke-linejoin:round;stroke-miterlimit:4;stroke-dasharray:none;stroke-opacity:1"
         id="ellipse6808-1"
         cx="16.933332"
         cy="21.16667"
         rx="14.162226"
         ry="9.9288921" />
    </mask>
  </defs>
  <g
     id="layer5"
     style="display:inline;opacity:0.488243;filter:url(#filter13858)">
    <ellipse
       style="display:inline;fill:#000000;fill-opacity:1;fill-rule:evenodd;stroke:none;stroke-width:0.132292;stroke-linecap:round;stroke-linejoin:round;stroke-miterlimit:4;stroke-dasharray:none;stroke-opacity:1"
       id="ellipse13572"
       cx="16.933332"
       cy="21.66522"
       rx="14.16143"
       ry="9.4295454"
       mask="url(#mask6806-6)"
       transform="matrix(0.5,0,0,0.5,0.01653682,-0.60931508)" />
  </g>
  <g
     id="layer1"
     style="display:inline">
    <ellipse
       style="opacity:1;fill:none;fill-rule:evenodd;stroke:#003266;stroke-width:0.132292;stroke-linecap:round;stroke-linejoin:round;stroke-miterlimit:4;stroke-dasharray:none;stroke-opacity:1"
       id="ellipse1758"
       clip-path="url(#clipPath7222)"
       d="M 31.095558,21.166668 A 14.162226,9.9288921 0 0 1 16.933332,31.09556 14.162226,9.9288921 0 0 1 2.7711067,21.166668 14.162226,9.9288921 0 0 1 16.933332,11.237776 14.162226,9.9288921 0 0 1 31.095558,21.166668 Z"
       transform="matrix(0.5,0,0,0.5,0.01653672,-1.6352268)" />
    <ellipse
       style="opacity:0.75;fill:#76abe2;fill-opacity:1;fill-rule:evenodd;stroke:#76abe2;stroke-width:0.066146;stroke-linecap:round;stroke-linejoin:round;stroke-miterlimit:4;stroke-dasharray:none;stroke-opacity:1"
       id="ellipse3286"
       cx="8.4832039"
       cy="8.2865849"
       rx="7.0811129"
       ry="4.9644461" />
    <path
       d="M 0.01653672,-0.31231078"
       id="path2823"
       style="stroke:#d53d3d;stroke-width:0.066146;stroke-miterlimit:4;stroke-dasharray:none;stroke-opacity:1" />
    <g
       id="g5750"
       transform="matrix(0.5,0,0,0.5,0.01653672,-1.6351646)"
       style="opacity:0.5;stroke:#003266;stroke-width:0.132292;stroke-miterlimit:4;stroke-dasharray:none;stroke-opacity:1">
      <path
         style="opacity:1;fill:#003266;fill-opacity:1;fill-rule:evenodd;stroke:#003266;stroke-width:0.132292;stroke-linecap:round;stroke-linejoin:round;stroke-miterlimit:4;stroke-dasharray:none;stroke-opacity:1"
         id="rect3763"
         width="28.324453"
         height="1.3230438"
         x="2.7711072"
         y="19.843626"
         ry="7.5199085e-15"
         clip-path="url(#clipPath4162)"
         d="M 2.7711072,19.843626 H 31.095561 c 0,0 0,0 0,0 v 1.323044 c 0,0 0,0 0,0 H 2.7711072 c 0,0 0,0 0,0 v -1.323044 c 0,0 0,0 0,0 z" />
      <path
         style="fill:#003266;fill-opacity:1;fill-rule:evenodd;stroke:#003266;stroke-width:0.132292;stroke-linecap:round;stroke-linejoin:round;stroke-miterlimit:4;stroke-dasharray:none;stroke-opacity:1"
         id="rect3917"
         width="28.293295"
         x="2.8022647"
         y="21.16667"
         height="10.583328"
         mask="url(#mask4084)"
         clip-path="url(#clipPath4244)"
         d="M 2.8022647,21.16667 H 31.09556 V 31.749998 H 2.8022647 Z" />
    </g>
    <path
       style="opacity:0.5;fill:#003266;fill-opacity:1;stroke:#003266;stroke-width:0.066146;stroke-linecap:butt;stroke-linejoin:miter;stroke-miterlimit:4;stroke-dasharray:none;stroke-opacity:1"
       d="m 1.40209,8.2865849 v 0.661523"
       id="path4289" />
    <path
       style="opacity:0.5;fill:none;stroke:#003266;stroke-width:0.066146;stroke-linecap:butt;stroke-linejoin:miter;stroke-miterlimit:4;stroke-dasharray:none;stroke-opacity:1"
       d="m 15.564318,8.2865859 v 0.661522"
       id="path4404" />
    <ellipse
       style="opacity:0.5;fill:#003266;fill-opacity:1;fill-rule:evenodd;stroke:#003266;stroke-width:0.132292;stroke-linecap:round;stroke-linejoin:round;stroke-miterlimit:4;stroke-dasharray:none;stroke-opacity:1"
       id="ellipse6328"
       cx="16.933332"
       cy="21.66522"
       rx="14.16143"
       ry="9.4295454"
       mask="url(#mask6806)"
       transform="matrix(0.5,0,0,0.5,0.01647392,-1.6352359)" />
  </g>
  <g
     id="layer3"
     style="display:inline;opacity:0.645986;filter:url(#filter11938)">
    <rect
       style="fill:#000000;fill-opacity:1;fill-rule:evenodd;stroke:none;stroke-width:0.326682;stroke-linecap:round;stroke-linejoin:round;stroke-miterlimit:4;stroke-dasharray:none;stroke-opacity:1"
       id="rect1839"
       width="6.1721992"
       height="4.4264045"
       x="6.3900189"
       y="22.639067"
       mask="url(#mask12144)"
       transform="matrix(0.5,0,0,0.5,0.01653672,-1.6352268)" />
    <rect
       style="fill:#000000;fill-opacity:1;fill-rule:evenodd;stroke:none;stroke-width:0.163341;stroke-linecap:round;stroke-linejoin:round;stroke-miterlimit:4;stroke-dasharray:none;stroke-opacity:1"
       id="rect1841"
       width="3.0860996"
       height="2.2132022"
       x="7.0215464"
       y="9.6843071" />
    <rect
       style="fill:#000000;fill-opacity:1;fill-rule:evenodd;stroke:none;stroke-width:0.326682;stroke-linecap:round;stroke-linejoin:round;stroke-miterlimit:4;stroke-dasharray:none;stroke-opacity:1"
       id="rect1843"
       width="6.1721992"
       height="4.4264045"
       x="21.630024"
       y="22.639067"
       mask="url(#mask12138)"
       transform="matrix(0.5,0,0,0.5,0.01653672,-1.6352268)" />
    <rect
       style="fill:#000000;fill-opacity:1;fill-rule:evenodd;stroke:none;stroke-width:0.163341;stroke-linecap:round;stroke-linejoin:round;stroke-miterlimit:4;stroke-dasharray:none;stroke-opacity:1"
       id="rect1845"
       width="3.0860996"
       height="2.2132022"
       x="10.831549"
       y="6.9519548" />
    <rect
       style="fill:#000000;fill-opacity:1;fill-rule:evenodd;stroke:none;stroke-width:0.163341;stroke-linecap:round;stroke-linejoin:round;stroke-miterlimit:4;stroke-dasharray:none;stroke-opacity:1"
       id="rect1847"
       width="3.0860996"
       height="2.2132022"
       x="7.0215464"
       y="4.2196064" />
    <rect
       style="opacity:0.574094;fill:#ffffff;fill-opacity:1;fill-rule:evenodd;stroke:none;stroke-width:0.163341;stroke-linecap:round;stroke-linejoin:round;stroke-miterlimit:4;stroke-dasharray:none;stroke-opacity:1"
       id="rect2202"
       width="3.0860996"
       height="2.2132022"
       x="7.0215464"
       y="6.9519548" />
    <rect
       style="opacity:0.574094;fill:#ffffff;fill-opacity:1;fill-rule:evenodd;stroke:none;stroke-width:0.326682;stroke-linecap:round;stroke-linejoin:round;stroke-miterlimit:4;stroke-dasharray:none;stroke-opacity:1"
       id="rect2204"
       width="6.1721992"
       height="4.4264045"
       x="21.630024"
       y="11.709667"
       mask="url(#mask12156)"
       transform="matrix(0.5,0,0,0.5,0.01653672,-1.6352268)" />
    <rect
       style="opacity:0.574094;fill:#ffffff;fill-opacity:1;fill-rule:evenodd;stroke:none;stroke-width:0.326682;stroke-linecap:round;stroke-linejoin:round;stroke-miterlimit:4;stroke-dasharray:none;stroke-opacity:1"
       id="rect2206"
       width="6.1721992"
       height="4.4264045"
       x="6.3900189"
       y="11.709667"
       mask="url(#mask12150)"
       transform="matrix(0.5,0,0,0.5,0.01653672,-1.6352268)" />
    <rect
       style="opacity:0.574094;fill:#ffffff;fill-opacity:1;fill-rule:evenodd;stroke:none;stroke-width:0.163341;stroke-linecap:round;stroke-linejoin:round;stroke-miterlimit:4;stroke-dasharray:none;stroke-opacity:1"
       id="rect2208"
       width="3.0860996"
       height="2.2132022"
       x="3.2115459"
       y="6.9519548" />
  </g>
  <g
     id="layer4"
     style="display:inline">
    <path
       style="fill:#000000;fill-opacity:1;stroke:#000000;stroke-width:0.132291px;stroke-linecap:butt;stroke-linejoin:miter;stroke-opacity:1"
       d="m 10.070703,5.2439399 c -0.07636,-0.221082 -0.1134911,-0.430628 -0.2140081,-0.632476 -0.01489,-0.0299 -0.02077,-0.07018 -0.04584,-0.09435 -0.05217,-0.05027 -0.01367,0.01804 -0.06446,-0.03252 -0.0083,-0.0083 -0.0079,-0.02306 -0.01632,-0.03117 -0.0292,-0.02796 -0.194462,-0.12185 -0.226308,-0.129255 -0.06093,-0.01417 -0.0074,0.02869 -0.09017,-0.01633 -0.0135,-0.0073 -0.01884,-0.02575 -0.03259,-0.03259 -0.04429,-0.02204 -0.102163,-0.02334 -0.148853,-0.03276 -0.005,-10e-4 -0.09405,-0.03246 -0.09932,-0.03333 -0.04839,-0.008 -0.10074,0.0079 -0.149169,0 -0.157372,-0.0256 -0.319598,-0.02523 -0.474423,0.0033 -0.09076,0.01675 -0.202553,0 -0.295247,0 -0.08536,0 -0.1892,-0.01408 -0.273258,0 -0.06054,0.01014 -0.120749,0.02839 -0.181701,0.03707 -0.132963,0.01896 -0.350763,-0.02288 -0.436061,0.117023 -0.02217,0.03637 -0.02087,0.07928 -0.03286,0.11581 -0.01515,0.04611 -0.05111,0.08167 -0.06103,0.136417 -0.0071,0.03913 0.01157,0.0906 0,0.128702 -0.03664,0.120659 -0.0198,0.261782 -0.0198,0.391114 0,0.06583 0.01336,0.147963 0,0.212737 -0.02167,0.105113 -0.119541,0.443367 -0.08598,0.542305 0.0217,0.06398 0.132119,0.110059 0.180303,0.139554 0.03543,0.02168 0.06513,0.05425 0.09812,0.07897 0.05781,0.04331 0.251877,0.117367 0.316759,0.136935 0.0627,0.01891 0.10742,0.0091 0.169186,0.01685 0.261239,0.03276 0.531398,0.01654 0.795695,0.01654 0.170498,0 0.632467,0.03595 0.772669,-0.03575 0.01403,-0.0072 0.0202,-0.02482 0.0333,-0.03359 0.128278,-0.08587 0.251624,-0.167239 0.344803,-0.292212 0.06763,-0.09071 0.150156,-0.167974 0.2205771,-0.256391 0.01862,-0.02337 0.02817,-0.07351 0.04903,-0.09442 0.004,-0.0041 0.02497,-0.02375 0.02835,-0.03457 0.01245,-0.03979 0,-0.109915 0,-0.15145 0,-0.08372 0.01199,-0.0924 -0.06138,-0.140204 z"
       id="path12647" />
    <path
       style="fill:#000000;fill-opacity:1;stroke:#000000;stroke-width:0.132291px;stroke-linecap:butt;stroke-linejoin:miter;stroke-opacity:1"
       d="m 13.77487,7.7098169 c -0.0741,-0.496958 -0.167687,-0.491932 -0.592748,-0.562776 -0.05116,-0.0085 -0.107126,-0.02316 -0.158299,-0.0326 -0.05201,-0.0096 -0.114996,0.0063 -0.166868,0 -0.172718,-0.02112 0.06588,-0.01614 -0.09957,-0.01614 -0.260052,0 -0.593351,-0.04009 -0.828807,0.0795 -0.04044,0.02054 -0.06179,0.0065 -0.0975,0.01943 -0.08431,0.03044 -0.174086,0.03538 -0.262886,0.06139 -0.05263,0.01541 -0.1177,-0.01013 -0.171857,0 -0.04919,0.0092 -0.102799,0.03337 -0.150445,0.04891 -0.168664,0.05501 -0.206175,0.204988 -0.231272,0.351575 -0.0086,0.05016 -0.04258,0.09697 -0.04961,0.147464 0,0.184418 0.01013,-0.0046 -0.01567,0.101629 -0.02351,0.09676 0,0.324863 0,0.428115 0,0.09347 0.03571,0.100357 0.07658,0.179096 0.03499,0.06742 0.03575,0.15842 0.06125,0.21024 0.007,0.01418 0.03171,0.0037 0.04651,0.0092 0.05109,0.01916 0.09072,0.05418 0.141393,0.07563 0.101882,0.04312 0.197835,0.102902 0.305662,0.132292 0.186177,0.05074 0.537881,0.0778 0.730858,0.04987 0.08015,-0.0116 0.194573,-0.03838 0.274643,-0.06272 0.06636,-0.02017 0.124902,-0.06946 0.193182,-0.08239 0.132563,-0.0251 0.289373,-0.05419 0.415676,-0.112996 0.107802,-0.05019 0.171448,-0.128681 0.260739,-0.205431 0.107098,-0.09206 0.225709,-0.171758 0.315667,-0.28364 0.02269,-0.02822 0.0084,-0.03834 0.01332,-0.07118 0.02077,-0.138795 0.0027,0.02087 0.02882,-0.08132 0.02445,-0.09561 -2.64e-4,-0.291982 -0.03878,-0.383161 z"
       id="path12649" />
    <path
       style="fill:#000000;fill-opacity:1;stroke:#000000;stroke-width:0.132291px;stroke-linecap:butt;stroke-linejoin:miter;stroke-opacity:1"
       d="m 13.77487,10.00644 c -0.105174,-0.03016 -0.173015,-0.1165361 -0.261916,-0.1710211 -0.06196,-0.03798 -0.142662,-0.01878 -0.209707,-0.02829 -0.185746,-0.02637 -0.367706,-0.0334 -0.557916,-0.0334 -0.01734,0 -0.03468,0 -0.05202,0 -0.01043,-0.0055 -0.01961,-0.01484 -0.03129,-0.01654 -0.105895,-0.01536 -0.399577,-0.01491 -0.505513,0 -0.1462,0.02058 -0.283885,0.08316 -0.427154,0.104771 -0.160315,0.02418 -0.332511,-0.01157 -0.490884,0.01653 -0.01412,0.0025 -0.07653,0.04974 -0.08468,0.06049 -0.01091,0.01441 -0.0084,0.03599 -0.01848,0.05096 -0.04266,0.06314 -0.05421,0.03045 -0.08231,0.09916 -0.06237,0.152539 -0.05379,0.33949 -0.03327,0.498739 0.01083,0.08398 0.06493,0.160079 0.07932,0.242615 0.02747,0.157562 -0.0082,0.32535 0.01881,0.483933 0.0085,0.0497 -0.01355,0.108496 0,0.156795 0.0068,0.02414 0.02876,0.05068 0.03836,0.07357 0.0089,0.02112 0.0069,0.04669 0.01936,0.06592 0.01023,0.01582 0.04006,0.0053 0.05325,0.0089 0.188907,0.05205 0.395308,-0.05008 0.58091,-0.0962 0.109839,-0.02729 0.20612,-0.09168 0.291515,-0.160834 0.04803,-0.0389 0.07123,-0.08432 0.12748,-0.11432 0.11443,-0.06103 0.23976,-0.104556 0.353501,-0.166984 0.27197,-0.149276 0.553453,-0.312708 0.802045,-0.497932 0.124726,-0.09293 0.339857,-0.263514 0.378697,-0.42805 0.0074,-0.03135 0.01012,-0.135112 0.01189,-0.148837 z"
       id="path12651" />
    <path
       style="fill:#000000;fill-opacity:1;stroke:#000000;stroke-width:0.132291px;stroke-linecap:butt;stroke-linejoin:miter;stroke-opacity:1"
       d="m 10.070703,10.00644 c -0.08921,-0.06469 -0.1713931,-0.1403681 -0.2676161,-0.1940651 -0.03749,-0.02092 -0.382466,0.0049 -0.440165,0.01654 -0.04972,0.01 -0.09805,0.02786 -0.148482,0.03317 -0.02994,0.0032 -0.06067,-0.0052 -0.09032,0 -0.04995,0.0088 -0.09906,0.02476 -0.144854,0.04657 -0.01332,0.0063 -0.0185,0.0255 -0.03255,0.03001 -0.01936,0.0062 -0.04094,-0.0034 -0.06099,0 -0.02789,0.0046 -0.04934,0.0298 -0.07704,0.03548 -0.01721,0.0036 -0.03573,-0.0045 -0.05269,0 -0.05009,0.01338 -0.08536,0.03697 -0.137412,0.046 -0.08844,0.01534 -0.320344,-1.03e-4 -0.399629,-0.01581 -0.02909,-0.0058 -0.05421,-0.02458 -0.08272,-0.03278 -0.08593,-0.02472 -0.167873,-0.0252 -0.25444,-0.03524 -0.14231,-0.0165 -0.287778,-0.04264 -0.39239,0.08326 -0.06544,0.07876 -0.09446,0.407812 -0.06563,0.49797 0.0044,0.01378 0.02495,0.01827 0.02918,0.0321 0.0078,0.02572 0.03934,0.262135 0.03254,0.29533 -0.01454,0.07092 -0.05356,0.140225 -0.0629,0.214721 -0.01042,0.08317 -0.05077,0.371191 0.01537,0.440862 0.05017,0.05285 0.143079,0.03149 0.207409,0.04898 0.299142,0.08131 0.550011,0.0072 0.842725,-0.04609 0.157867,-0.02872 0.262799,-0.01937 0.4135,-0.03308 0.08277,-0.0075 0.16112,-0.02444 0.246475,-0.01654 0.143833,0.01331 0.341763,0.05605 0.47406,-0.032 0.09871,-0.0657 0.179785,-0.19287 0.230612,-0.295213 0.01726,-0.03476 0.01275,-0.07811 0.03153,-0.112068 0.01101,-0.0199 0.03686,-0.02918 0.04686,-0.04961 0.0324,-0.0662 0.03986,-0.172809 0.05049,-0.245722 0.01326,-0.09093 0.01275,-0.179327 0.03193,-0.26887 0.01278,-0.05971 -0.01716,-0.0019 0,-0.07367 0.01202,-0.05026 0.03028,-0.105683 0.04729,-0.155638 0.0047,-0.01394 0.0028,-0.07487 0.01037,-0.08479 0.0062,-0.0081 0.02044,-0.0038 0.02907,-0.0091 0.01769,-0.01096 -0.01075,-0.08094 -0.02957,-0.12071 z"
       id="path12653" />
    <path
       style="fill:#000000;fill-opacity:1;stroke:#000000;stroke-width:0.132291px;stroke-linecap:butt;stroke-linejoin:miter;stroke-opacity:1"
       d="m 6.2976459,11.064772 c -0.169203,-0.207782 0.165584,-0.481494 0.102638,-0.710367 -0.01387,-0.05045 -0.04881,-0.09757 -0.06129,-0.15084 -0.0056,-0.02379 0.003,-0.04905 0,-0.0733 -0.0038,-0.03139 -0.05558,-0.1604601 -0.08768,-0.1778261 -0.04634,-0.02508 -0.345414,-0.046 -0.380411,-0.04995 -0.32343,-0.03651 -0.646305,-0.0041 -0.961832,0.04875 -0.21284,0.03568 -0.431597,0.09743 -0.651976,0.06571 -0.166391,-0.02396 -0.341432,-0.1023441 -0.515483,-0.06621 -0.112322,0.02332 -0.209221,0.08246 -0.272186,0.1773891 -0.02456,0.03703 -0.01934,0.103794 -0.02741,0.143659 -0.0037,0.0185 -0.05619,0.08626 -0.03113,0.110246 0.0062,0.0059 0.01583,0.0066 0.02374,0.0099 0.02055,0.01536 0.04356,0.02789 0.06164,0.04609 0.02773,0.02791 0.04855,0.07801 0.07395,0.109154 0.149286,0.183044 0.221389,0.15488 0.430979,0.258588 0.0601,0.02974 0.111104,0.07931 0.170281,0.109364 0.04986,0.02532 0.112907,0.02224 0.165832,0.04672 0.191613,0.08863 0.363092,0.216087 0.558029,0.298988 0.08125,0.03456 0.17435,0.04956 0.259116,0.07257 0.09144,0.02482 0.0075,0.0066 0.111939,0.04537 0.05956,0.02211 0.117912,0.02273 0.177774,0.03385 0.04381,0.0081 0.08849,0.04122 0.131277,0.04824 0.06924,0.01135 0.142824,0.02589 0.215004,0.02589 0.09209,0 0.464031,-0.162181 0.502808,-0.254528 0.0081,-0.01247 -0.0052,-0.02905 0,-0.04208 0.02146,-0.05368 0.01794,-0.06236 0.0044,-0.125368 z"
       id="path12655" />
    <path
       style="opacity:0.250239;fill:#ffffff;fill-opacity:1;stroke:#ffffff;stroke-width:0.132291px;stroke-linecap:butt;stroke-linejoin:miter;stroke-opacity:1"
       d="m 6.2975359,4.7128279 c -0.08764,-0.08353 -0.173079,-0.169428 -0.262918,-0.250586 -0.03555,-0.03211 -0.128683,-0.0324 -0.168994,-0.04052 -0.354955,-0.07149 -0.590482,0.05553 -0.910181,0.201635 -0.07137,0.03261 -0.175236,0.08295 -0.251614,0.0976 -0.162022,0.03109 -0.332233,0.04605 -0.493846,0.08646 -0.277051,0.06926 -0.338991,0.14743 -0.499367,0.360833 -0.0073,0.0098 -0.01102,0.02178 -0.01654,0.03267 -0.0064,0.01189 -0.01109,0.02491 -0.01926,0.03567 -0.116006,0.152975 -0.248183,0.193025 -0.248183,0.429396 0,0.01941 -0.03113,0.361213 -0.0063,0.370462 0.05977,0.02224 0.130285,0.03449 0.191905,0.04832 0.03812,0.0086 0.02921,0.02713 0.06418,0.03648 0.02123,0.0057 0.04222,-0.0053 0.06345,0 0.144151,0.03606 0.315031,0.05081 0.467669,0.03213 0.103839,-0.0127 0.192799,-0.05508 0.290499,-0.08124 0.0497,-0.01331 0.122417,0 0.173918,0 0.229848,0 0.302645,0.04121 0.49978,0.08164 0.07334,0.01504 0.432837,0.01244 0.509025,0 0.04721,-0.0077 0.215376,-0.06768 0.251321,-0.09484 0.0428,-0.03235 0.05758,-0.07867 0.08644,-0.119518 0.124782,-0.17661 0.203084,-0.352937 0.253664,-0.562044 0.01319,-0.05451 -0.01624,-0.108079 -0.01624,-0.163235 0,-0.05515 -0.01987,-0.20769 0,-0.255551 0.04831,-0.116367 0.110463,-0.11297 0.04156,-0.24576 z"
       id="path13260" />
    <path
       style="opacity:0.250239;fill:#ffffff;fill-opacity:1;stroke:#ffffff;stroke-width:0.132291px;stroke-linecap:butt;stroke-linejoin:miter;stroke-opacity:1"
       d="m 6.1162059,7.3606059 c -0.0431,-0.06071 -0.07985,-0.126468 -0.129296,-0.182131 -0.05635,-0.06344 -0.169756,-0.05174 -0.245219,-0.05174 -0.06692,0 -0.146126,-0.01309 -0.211924,0 -0.05112,0.01017 -0.104022,0.03632 -0.153317,0.04375 -0.173107,0.02612 0.02406,-0.03031 -0.138063,0.01654 -0.102944,0.02975 -0.193043,0.08626 -0.300245,0.108655 -0.127016,0.02654 -0.25995,-0.02957 -0.381103,-0.05337 -0.07784,-0.01529 -0.144431,-0.024 -0.216978,-0.05027 -0.05436,-0.01969 -0.306822,-0.0076 -0.363065,0 -0.05108,0.0069 -0.09647,0.02603 -0.14418,0.03592 -0.0143,0.003 -0.03027,-0.0055 -0.0438,0 -0.04304,0.01744 -0.09651,0.07036 -0.122506,0.10517 -0.02457,0.0329 -0.07056,0.04777 -0.09301,0.07522 -0.03905,0.04774 -0.06819,0.143521 -0.08046,0.20079 -0.0222,0.103623 0.01041,0.225775 -0.01514,0.327453 -0.04036,0.160608 -0.143505,0.229031 -0.111519,0.419352 0.02125,0.126449 0.201036,0.274047 0.312038,0.314659 0.05897,0.02157 0.05472,0.0049 0.09772,0.03248 0.08313,0.05345 0.09773,0.176135 0.194029,0.210006 0.347206,0.122122 0.718217,0.114229 1.053675,-0.04012 0.07208,-0.03317 0.127424,-0.09921 0.198715,-0.135468 0.07359,-0.03743 0.159768,-0.08323 0.236762,-0.115193 0.05748,-0.02387 0.08119,-0.0079 0.143958,-0.01614 0.219164,-0.02875 -0.105792,-0.0028 0.09969,-0.03218 0.156354,-0.02233 0.296782,-0.02133 0.427828,-0.127826 0.07796,-0.06335 0.113173,-0.16108 0.131921,-0.257963 0.0071,-0.0366 -0.0041,-0.07479 0,-0.111835 0.01886,-0.167526 0.05427,-0.413022 -0.01691,-0.572598 -0.0059,-0.01326 -0.106443,-0.107463 -0.129581,-0.143167 z"
       id="path13262" />
    <path
       style="opacity:0.250239;fill:#ffffff;fill-opacity:1;stroke:#ffffff;stroke-width:0.132291px;stroke-linecap:butt;stroke-linejoin:miter;stroke-opacity:1"
       d="m 10.070703,7.3606059 c -0.06998,0.005 -0.1410081,0.02815 -0.2099341,0.01506 -0.08268,-0.0157 -0.153233,-0.07001 -0.232223,-0.09903 -0.02611,-0.0096 -0.05544,-0.0075 -0.08181,-0.01634 -0.0964,-0.03227 -0.136229,-0.06599 -0.243595,-0.07938 -0.194942,-0.02431 -0.28181,0.103725 -0.452678,0.137192 -0.01598,0.0032 -0.03315,-0.0043 -0.04883,0 -0.02131,0.0059 -0.0377,0.02477 -0.0592,0.02992 -0.158374,0.03796 -0.282548,-0.08202 -0.424907,-0.08202 -0.186246,0 -0.49192,0.09641 -0.638098,0.218609 -0.179511,0.150058 -0.316501,0.552374 -0.349969,0.783036 -0.0095,0.06514 0,0.142638 0,0.207865 0,0.03205 -0.01016,0.06576 0,0.09616 0.02042,0.06111 0.08079,0.141242 0.132274,0.177529 0.03647,0.0257 0.11761,0.04779 0.154799,0.06615 0.02845,0.01404 0.0521,0.03728 0.08153,0.04913 0.20221,0.08142 0.43283,0.04961 0.64566,0.04961 0.120192,0 0.452912,0.02433 0.547217,0 0.04539,-0.01171 0.08201,-0.04551 0.124107,-0.06615 0.03736,-0.01831 0.07907,-0.02814 0.114081,-0.05062 0.131413,-0.08437 0.232915,-0.249208 0.283282,-0.393624 0.01591,-0.04562 -0.02216,-0.02258 0.01581,-0.06542 0.02527,-0.02851 0.09708,-0.04285 0.129151,-0.06846 0.03511,-0.02803 0.08709,-0.07091 0.11823,-0.102006 0.0564,-0.05633 0.106187,-0.128102 0.166937,-0.184858 0.02992,-0.02796 0.07104,-0.0513 0.0978,-0.07946 0.02673,-0.02813 0.03152,-0.08097 0.04797,-0.113461 0.07518,-0.148468 0.07536,-0.261747 0.0824,-0.42943 z"
       id="path13264" />
    <path
       style="opacity:0.250239;fill:#ffffff;fill-opacity:1;stroke:#ffffff;stroke-width:0.132291px;stroke-linecap:butt;stroke-linejoin:miter;stroke-opacity:1"
       d="m 11.129037,6.0987309 c 0.125944,0.01437 0.251972,0.02803 0.377832,0.04313 0.183076,0.02196 0.321132,0.05769 0.499657,0.03237 0.182731,-0.02591 0.475105,-0.125524 0.660553,-0.08536 0.123047,0.02665 0.246191,0.07058 0.372261,0.09362 0.107463,0.01965 0.212804,0.02103 0.319654,0.03308 0.101374,0.01143 0.21067,0.03482 0.311244,4.9e-4 0.04712,-0.01609 0.137988,-0.123634 0.170723,-0.16427 0.02646,-0.03285 0.0283,-0.08589 0.04865,-0.121373 0.02472,-0.04312 0.03368,-0.01737 0.04497,-0.06456 0.02818,-0.117788 -0.02773,-0.181755 -0.0818,-0.271006 -0.182567,-0.301391 -0.211781,-0.278321 -0.483119,-0.444256 -0.12636,-0.07728 -0.256007,-0.159836 -0.376338,-0.247633 -0.107547,-0.07847 -0.161295,-0.141201 -0.294712,-0.193268 -0.09736,-0.038 -0.204404,-0.03526 -0.304709,-0.04961 -0.211136,-0.0302 0.106017,-0.0031 -0.151691,-0.03576 -0.106455,-0.0135 -0.03221,0.01968 -0.162609,0 -0.129733,-0.01957 -0.257483,-0.07411 -0.393244,-0.04706 -0.0076,0.0015 -0.0092,0.01386 -0.01646,0.01646 -0.0602,0.02144 -0.131318,0.03571 -0.191669,0.06592 -0.0822,0.04115 -0.02299,0.02106 -0.08585,0.08529 -0.04032,0.0412 -0.0553,0.0286 -0.08866,0.07111 -0.03249,0.04139 -0.05897,0.08853 -0.09008,0.13011 -0.0027,0.0037 -0.06859,0.06876 -0.06924,0.06982 -0.02179,0.03538 -0.03413,0.09344 -0.04963,0.132207 -0.01122,0.02808 -0.03812,0.04887 -0.04635,0.07796 -0.0055,0.01947 0.0034,0.04077 0,0.06072 -0.0065,0.03805 -0.03863,0.07605 -0.04812,0.113329 -0.01056,0.04143 -0.0047,0.09262 -0.01523,0.134088 -0.01202,0.04738 -0.06746,0.367634 -0.03308,0.420301 0.06249,0.0957 -0.02208,-0.03778 0.03098,0.01564 0.05421,0.05459 0.07111,0.08393 0.146087,0.128514 z"
       id="path13266" />
  </g>
  <g
     id="layer2"
     style="display:inline">
    <ellipse
       style="opacity:0.3;fill:#8fc6ff;fill-opacity:1;fill-rule:evenodd;stroke:none;stroke-width:0.066146;stroke-linecap:round;stroke-linejoin:round;stroke-miterlimit:4;stroke-dasharray:none;stroke-opacity:1"
       id="ellipse7392"
       cx="8.4832039"
       cy="6.9637308"
       rx="7.4083328"
       ry="5.291667" />
    <g
       id="g2819"
       style="opacity:0.3;stroke-width:0.132292;stroke-miterlimit:4;stroke-dasharray:none"
       transform="matrix(0.5,0,0,0.5,0.01653672,-1.6352268)">
      <path
         id="rect1788"
         clip-path="url(#clipPath2420-3)"
         d="M 2.1166666,16.933332 H 31.749998 c 0,0 0,0 0,0 v 4.233334 c 0,0 0,0 0,0 H 2.1166666 c 0,0 0,0 0,0 v -4.233334 c 0,0 0,0 0,0 z"
         style="fill:#8fc6ff;fill-opacity:1;fill-rule:evenodd;stroke:none;stroke-width:0.132292;stroke-linecap:round;stroke-linejoin:round;stroke-miterlimit:4;stroke-dasharray:none;stroke-opacity:1" />
      <path
         id="rect1790"
         clip-path="url(#clipPath2502-7)"
         mask="url(#mask2108-3)"
         d="M 2.1166666,21.166668 H 31.749998 c 0,0 0,0 0,0 v 10.583334 c 0,0 0,0 0,0 H 2.1166666 c 0,0 0,0 0,0 V 21.166668 c 0,0 0,0 0,0 z"
         style="fill:#8fc6ff;fill-opacity:1;fill-rule:evenodd;stroke:none;stroke-width:0.132292;stroke-linecap:round;stroke-linejoin:round;stroke-miterlimit:4;stroke-dasharray:none;stroke-opacity:1" />
    </g>
    <path
       style="opacity:0.803;fill:#ffffff;fill-opacity:1;fill-rule:evenodd;stroke:none;stroke-width:0.132292;stroke-linecap:round;stroke-linejoin:round;stroke-miterlimit:4;stroke-dasharray:none;stroke-opacity:0.999058"
       id="rect8744"
       width="3.1749997"
       height="7.4083328"
       x="10.583334"
       y="25.399998"
       mask="url(#mask9709)"
       clip-path="url(#clipPath9937)"
       d="m 10.583334,25.399998 h 3.175 v 7.408333 h -3.175 z"
       transform="matrix(0.5,0,0,0.5,0.01653672,-1.6352268)" />
    <path
       style="opacity:0.803;fill:#ffffff;fill-opacity:1;fill-rule:evenodd;stroke:none;stroke-width:0.132292;stroke-linecap:round;stroke-linejoin:round;stroke-miterlimit:4;stroke-dasharray:none;stroke-opacity:0.999058"
       id="rect10075"
       width="2.1166666"
       height="6.3499994"
       x="7.4083328"
       y="24.341667"
       clip-path="url(#clipPath10215)"
       d="m 7.4083328,24.341667 h 2.1166666 v 6.35 H 7.4083328 Z"
       mask="url(#mask10225)"
       transform="matrix(0.5,0,0,0.5,0.01653672,-1.6352268)" />
    <path
       style="opacity:0.803;fill:#ffffff;fill-opacity:1;fill-rule:evenodd;stroke:none;stroke-width:0.132292;stroke-linecap:round;stroke-linejoin:round;stroke-miterlimit:4;stroke-dasharray:none;stroke-opacity:0.999058"
       id="rect10323"
       width="1.0583333"
       height="6.3499994"
       x="14.816666"
       y="26.458332"
       clip-path="url(#clipPath10465)"
       d="m 14.816666,26.458332 h 1.058333 v 6.349999 h -1.058333 z"
       mask="url(#mask10475)"
       transform="matrix(0.5,0,0,0.5,0.01653672,-1.6352268)" />
    <path
       style="fill:none;fill-rule:evenodd;stroke:#000000;stroke-width:0.132292;stroke-linecap:round;stroke-linejoin:round;stroke-miterlimit:4;stroke-dasharray:none;stroke-opacity:1"
       id="path1512"
       clip-path="url(#clipPath7988)"
       d="M 31.749998,21.166668 A 14.816666,10.583334 0 0 1 16.933332,31.750002 14.816666,10.583334 0 0 1 2.1166668,21.166668 14.816666,10.583334 0 0 1 16.933332,10.583334 14.816666,10.583334 0 0 1 31.749998,21.166668 Z"
       transform="matrix(0.5,0,0,0.5,0.01653672,-1.6352268)" />
    <ellipse
       style="fill:none;fill-rule:evenodd;stroke:none;stroke-width:0.066146;stroke-linecap:round;stroke-linejoin:round;stroke-miterlimit:4;stroke-dasharray:none;stroke-opacity:1"
       id="ellipse1760"
       cx="8.4832039"
       cy="6.9637308"
       rx="7.4083328"
       ry="5.291667" />
    <ellipse
       style="fill:none;fill-rule:evenodd;stroke:none;stroke-width:0.066146;stroke-linecap:round;stroke-linejoin:round;stroke-miterlimit:4;stroke-dasharray:none;stroke-opacity:1"
       id="ellipse1762"
       cx="8.4832039"
       cy="6.9637308"
       rx="7.2120004"
       ry="5.0953426" />
    <path
       style="fill:none;stroke:#000000;stroke-width:0.066146;stroke-linecap:butt;stroke-linejoin:miter;stroke-miterlimit:4;stroke-dasharray:none;stroke-opacity:1"
       d="M 1.07487,8.9481049 V 6.8314389"
       id="path2912" />
    <path
       style="fill:none;stroke:#000000;stroke-width:0.066146;stroke-linecap:butt;stroke-linejoin:miter;stroke-miterlimit:4;stroke-dasharray:none;stroke-opacity:1"
       d="M 15.891537,8.9481049 V 6.8314389"
       id="path2914" />
    <ellipse
       style="fill:#f0f8ff;fill-opacity:1;fill-rule:evenodd;stroke:#003266;stroke-width:0.132292;stroke-linecap:round;stroke-linejoin:round;stroke-miterlimit:4;stroke-dasharray:none;stroke-opacity:0.999058"
       id="ellipse7484"
       clip-path="url(#clipPath7906)"
       d="M 31.749998,17.197916 A 14.816666,10.583334 0 0 1 16.933332,27.78125 14.816666,10.583334 0 0 1 2.1166668,17.197916 14.816666,10.583334 0 0 1 16.933332,6.6145821 14.816666,10.583334 0 0 1 31.749998,17.197916 Z"
       transform="matrix(0.5,0,0,0.5,0.01653672,-1.6352268)" />
    <ellipse
       style="opacity:0.803;fill:url(#radialGradient11224);fill-opacity:1;fill-rule:evenodd;stroke:none;stroke-width:0.066146;stroke-linecap:round;stroke-linejoin:round;stroke-miterlimit:4;stroke-dasharray:none;stroke-opacity:0.999058"
       id="path11136"
       cx="8.4832039"
       cy="8.154356"
       rx="6.8791661"
       ry="4.4979167" />
    <path
       style="opacity:0.8;fill:#ffffff;fill-opacity:1;fill-rule:evenodd;stroke:none;stroke-width:0.132292;stroke-linecap:round;stroke-linejoin:round;stroke-miterlimit:4;stroke-dasharray:none;stroke-opacity:0.999058"
       id="path8438"
       clip-path="url(#clipPath8594)"
       transform="matrix(0.47768655,0,0,0.47768655,0.39437792,-1.7117547)"
       d="M 31.749998,21.292068 A 14.816666,10.054167 0 0 1 16.933332,31.346235 14.816666,10.054167 0 0 1 2.1166668,21.292068 14.816666,10.054167 0 0 1 16.933332,11.237902 14.816666,10.054167 0 0 1 31.749998,21.292068 Z" />
  </g>
</svg>
