<?xml version="1.0" encoding="UTF-8" standalone="no"?>
<!-- Created with Inkscape (http://www.inkscape.org/) -->

<svg
   width="64"
   height="64"
   viewBox="0 0 16.933333 16.933333"
   version="1.1"
   id="svg5"
   sodipodi:docname="64.svg"
   inkscape:version="1.2 (dc2aedaf03, 2022-05-15)"
   xmlns:inkscape="http://www.inkscape.org/namespaces/inkscape"
   xmlns:sodipodi="http://sodipodi.sourceforge.net/DTD/sodipodi-0.dtd"
   xmlns:xlink="http://www.w3.org/1999/xlink"
   xmlns="http://www.w3.org/2000/svg"
   xmlns:svg="http://www.w3.org/2000/svg">
  <sodipodi:namedview
     id="namedview94"
     pagecolor="#505050"
     bordercolor="#ffffff"
     borderopacity="1"
     inkscape:showpageshadow="0"
     inkscape:pageopacity="0"
     inkscape:pagecheckerboard="1"
     inkscape:deskcolor="#505050"
     showgrid="false"
     inkscape:zoom="13.625"
     inkscape:cx="21.834862"
     inkscape:cy="32.036697"
     inkscape:window-width="1920"
     inkscape:window-height="1019"
     inkscape:window-x="0"
     inkscape:window-y="1110"
     inkscape:window-maximized="1"
     inkscape:current-layer="svg5" />
  <defs
     id="defs2">
    <linearGradient
       id="linearGradient2240">
      <stop
         style="stop-color:#000000;stop-opacity:1;"
         offset="0"
         id="stop2234" />
      <stop
         style="stop-color:#000000;stop-opacity:0.6"
         offset="0.65591156"
         id="stop2242" />
      <stop
         style="stop-color:#000000;stop-opacity:0;"
         offset="1"
         id="stop2238" />
    </linearGradient>
    <linearGradient
       id="linearGradient1398">
      <stop
         style="stop-color:#acacac;stop-opacity:1;"
         offset="0"
         id="stop1380" />
      <stop
         style="stop-color:#c6c6c6;stop-opacity:1;"
         offset="0.10158287"
         id="stop1382" />
      <stop
         style="stop-color:#ffffff;stop-opacity:1;"
         offset="0.11513653"
         id="stop1384" />
      <stop
         style="stop-color:#ffffff;stop-opacity:1;"
         offset="0.17769848"
         id="stop1386" />
      <stop
         style="stop-color:#c6c6c6;stop-opacity:1;"
         offset="0.21213067"
         id="stop1388" />
      <stop
         style="stop-color:#c6c6c6;stop-opacity:1;"
         offset="0.7011807"
         id="stop1390" />
      <stop
         style="stop-color:#ffffff;stop-opacity:1;"
         offset="0.76391858"
         id="stop1392" />
      <stop
         style="stop-color:#ffffff;stop-opacity:1;"
         offset="0.95664978"
         id="stop1394" />
      <stop
         style="stop-color:#e1e1e1;stop-opacity:1;"
         offset="1"
         id="stop1396" />
    </linearGradient>
    <linearGradient
       id="linearGradient1200">
      <stop
         style="stop-color:#d9eaf6;stop-opacity:1"
         offset="0"
         id="stop1194" />
      <stop
         style="stop-color:#cfd6dc;stop-opacity:1"
         offset="0.75246203"
         id="stop1196" />
      <stop
         style="stop-color:#eff0f0;stop-opacity:1"
         offset="1"
         id="stop1198" />
    </linearGradient>
    <linearGradient
       id="linearGradient81653">
      <stop
         style="stop-color:#000000;stop-opacity:1"
         offset="0"
         id="stop81635" />
      <stop
         style="stop-color:#000000;stop-opacity:1"
         offset="0.10158287"
         id="stop81637" />
      <stop
         style="stop-color:#d3eaff;stop-opacity:1"
         offset="0.11513653"
         id="stop81639" />
      <stop
         style="stop-color:#d3eaff;stop-opacity:1"
         offset="0.17769848"
         id="stop81641" />
      <stop
         style="stop-color:#000000;stop-opacity:1"
         offset="0.21213067"
         id="stop81643" />
      <stop
         style="stop-color:#000000;stop-opacity:1"
         offset="0.7011807"
         id="stop81645" />
      <stop
         style="stop-color:#d3eaff;stop-opacity:1"
         offset="0.76391858"
         id="stop81647" />
      <stop
         style="stop-color:#000000;stop-opacity:1"
         offset="0.95664978"
         id="stop81649" />
      <stop
         style="stop-color:#000000;stop-opacity:1"
         offset="1"
         id="stop81651" />
    </linearGradient>
    <linearGradient
       id="linearGradient79583">
      <stop
         style="stop-color:#ffffff;stop-opacity:0.2121458"
         offset="0"
         id="stop79579" />
      <stop
         style="stop-color:#dbe8ff;stop-opacity:0.58039218"
         offset="0.9486351"
         id="stop80699" />
      <stop
         style="stop-color:#ffffff;stop-opacity:0.74108984"
         offset="1"
         id="stop79581" />
    </linearGradient>
    <linearGradient
       id="linearGradient78809-3">
      <stop
         style="stop-color:#334756;stop-opacity:1"
         offset="0"
         id="stop78805" />
      <stop
         style="stop-color:#2f4759;stop-opacity:1"
         offset="0.75246203"
         id="stop79389" />
      <stop
         style="stop-color:#1a3548;stop-opacity:1"
         offset="1"
         id="stop78807" />
    </linearGradient>
    <linearGradient
       id="linearGradient8999">
      <stop
         style="stop-color:#3a77ad;stop-opacity:1"
         offset="0"
         id="stop8981" />
      <stop
         style="stop-color:#5f96c6;stop-opacity:1"
         offset="0.09020152"
         id="stop8983" />
      <stop
         style="stop-color:#d3eaff;stop-opacity:1"
         offset="0.10706306"
         id="stop8985" />
      <stop
         style="stop-color:#d3eaff;stop-opacity:1"
         offset="0.15467562"
         id="stop8987" />
      <stop
         style="stop-color:#5f96c6;stop-opacity:1"
         offset="0.18391864"
         id="stop8989" />
      <stop
         style="stop-color:#5f96c6;stop-opacity:1"
         offset="0.7820763"
         id="stop8991" />
      <stop
         style="stop-color:#d3eaff;stop-opacity:1"
         offset="0.82140368"
         id="stop8993" />
      <stop
         style="stop-color:#d3eaff;stop-opacity:1;"
         offset="0.89811748"
         id="stop8995" />
      <stop
         style="stop-color:#a5c4e1;stop-opacity:1"
         offset="1"
         id="stop8997" />
    </linearGradient>
    <linearGradient
       id="linearGradient4154-3-6">
      <stop
         style="stop-color:#3a77ad;stop-opacity:1"
         offset="0"
         id="stop4150" />
      <stop
         style="stop-color:#5f96c6;stop-opacity:1"
         offset="0.10158287"
         id="stop5696" />
      <stop
         style="stop-color:#d3eaff;stop-opacity:1"
         offset="0.11513653"
         id="stop4670" />
      <stop
         style="stop-color:#d3eaff;stop-opacity:1"
         offset="0.17769848"
         id="stop6532" />
      <stop
         style="stop-color:#5f96c6;stop-opacity:1"
         offset="0.21213067"
         id="stop5826" />
      <stop
         style="stop-color:#5f96c6;stop-opacity:1"
         offset="0.7011807"
         id="stop7368" />
      <stop
         style="stop-color:#d3eaff;stop-opacity:1"
         offset="0.76391858"
         id="stop7174" />
      <stop
         style="stop-color:#d3eaff;stop-opacity:1;"
         offset="0.95664978"
         id="stop7882" />
      <stop
         style="stop-color:#a5c4e1;stop-opacity:1"
         offset="1"
         id="stop4152" />
    </linearGradient>
    <linearGradient
       xlink:href="#linearGradient4154-3-6"
       id="linearGradient4156"
       x1="2.3812494"
       y1="18.644768"
       x2="31.485415"
       y2="18.644768"
       gradientUnits="userSpaceOnUse"
       spreadMethod="pad"
       gradientTransform="matrix(0.5045044,0,0,0.5045044,-0.26920214,2.6087)" />
    <linearGradient
       xlink:href="#linearGradient8999"
       id="linearGradient8704"
       x1="2.3812494"
       y1="13.088506"
       x2="31.485415"
       y2="13.088506"
       gradientUnits="userSpaceOnUse"
       gradientTransform="matrix(0.5045044,0,0,0.5045044,-0.26920214,2.6087)" />
    <radialGradient
       xlink:href="#linearGradient78809-3"
       id="radialGradient78811"
       cx="19.055696"
       cy="10.071988"
       fx="19.055696"
       fy="10.071988"
       r="4.4022655"
       gradientTransform="matrix(0.36533421,0,0,0.14812277,1.5088715,5.954607)"
       gradientUnits="userSpaceOnUse" />
    <radialGradient
       xlink:href="#linearGradient78809-3"
       id="radialGradient79507"
       cx="24.610537"
       cy="13.584182"
       fx="24.610537"
       fy="13.584182"
       r="3.9421437"
       gradientTransform="matrix(0.5045044,0,0,0.28894892,0.37892466,5.474744)"
       gradientUnits="userSpaceOnUse" />
    <radialGradient
       xlink:href="#linearGradient78809-3"
       id="radialGradient79561"
       cx="24.99049"
       cy="18.957243"
       fx="24.99049"
       fy="18.957243"
       r="4.4165626"
       gradientTransform="matrix(0.5045044,0,0,0.35299947,-0.26920214,5.480816)"
       gradientUnits="userSpaceOnUse" />
    <radialGradient
       xlink:href="#linearGradient78809-3"
       id="radialGradient79569"
       cx="16.083118"
       cy="19.564526"
       fx="16.083118"
       fy="19.564526"
       r="4.3811769"
       gradientTransform="matrix(0.5045044,0,0,0.35956411,-0.26920214,5.444388)"
       gradientUnits="userSpaceOnUse" />
    <radialGradient
       xlink:href="#linearGradient78809-3"
       id="radialGradient79577"
       cx="7.9869537"
       cy="18.380051"
       fx="7.9869537"
       fy="18.380051"
       r="3.6670899"
       gradientTransform="matrix(0.5045044,0,0,0.3449879,-0.26920214,5.540622)"
       gradientUnits="userSpaceOnUse" />
    <radialGradient
       xlink:href="#linearGradient79583"
       id="radialGradient79585"
       cx="16.933332"
       cy="15.010931"
       fx="16.933332"
       fy="15.010931"
       r="14.552083"
       gradientTransform="matrix(0.5045044,0,0,0.25196204,-0.26920214,6.399596)"
       gradientUnits="userSpaceOnUse" />
    <linearGradient
       xlink:href="#linearGradient81653"
       id="linearGradient81392"
       x1="9.0878906"
       y1="63.703125"
       x2="118.91211"
       y2="63.703125"
       gradientUnits="userSpaceOnUse"
       gradientTransform="scale(0.26458333)" />
    <radialGradient
       xlink:href="#linearGradient1200"
       id="radialGradient82387"
       gradientUnits="userSpaceOnUse"
       gradientTransform="matrix(0.5162362,0,0,0.28060781,-1.4147556,6.754808)"
       cx="19.055696"
       cy="10.071988"
       fx="19.055696"
       fy="10.071988"
       r="4.4022655" />
    <radialGradient
       xlink:href="#linearGradient1200"
       id="radialGradient82391"
       gradientUnits="userSpaceOnUse"
       gradientTransform="matrix(0.44170421,0,0,0.22761967,-4.4940961,7.209262)"
       cx="19.055696"
       cy="10.071988"
       fx="19.055696"
       fy="10.071988"
       r="4.4022655" />
    <radialGradient
       xlink:href="#linearGradient1200"
       id="radialGradient82395"
       gradientUnits="userSpaceOnUse"
       gradientTransform="matrix(0.35797068,0,0,0.13030067,-1.7090418,6.563763)"
       cx="19.055696"
       cy="10.071988"
       fx="19.055696"
       fy="10.071988"
       r="4.4022655" />
    <radialGradient
       xlink:href="#linearGradient1200"
       id="radialGradient899"
       gradientUnits="userSpaceOnUse"
       gradientTransform="matrix(0.3083461,0,0,0.11415337,5.7739685,6.630559)"
       cx="19.055696"
       cy="10.071988"
       fx="19.055696"
       fy="10.071988"
       r="4.4022655" />
    <linearGradient
       xlink:href="#linearGradient1398"
       id="linearGradient1378"
       x1="2.2489579"
       y1="16.788601"
       x2="31.617714"
       y2="16.788601"
       gradientUnits="userSpaceOnUse"
       gradientTransform="matrix(0.5045044,0,0,0.5045044,-0.26920214,2.675442)" />
    <radialGradient
       xlink:href="#linearGradient2240"
       id="radialGradient2231"
       gradientUnits="userSpaceOnUse"
       gradientTransform="matrix(0.5045044,3.1510739e-7,-1.6865555e-8,0.25196206,-0.26920214,9.167255)"
       cx="16.933332"
       cy="15.010931"
       fx="16.933332"
       fy="15.010931"
       r="14.552083" />
    <linearGradient
       xlink:href="#linearGradient1398"
       id="linearGradient7523"
       gradientUnits="userSpaceOnUse"
       gradientTransform="matrix(0.5045044,0,0,0.5045044,-0.26920414,2.7409927)"
       x1="2.2489579"
       y1="16.788601"
       x2="31.617714"
       y2="16.788601" />
  </defs>
  <path
     style="display:none;mix-blend-mode:multiply;fill:none;stroke:url(#linearGradient1378);stroke-width:0.133483px;stroke-linecap:butt;stroke-linejoin:miter;stroke-opacity:1"
     d="m 0.93214866,9.278662 c 0,0 3e-7,3.666663 7.34158984,3.666663 7.3415905,0 7.3415935,-3.666599 7.3415935,-3.666599"
     id="path1403" />
  <path
     id="path1163"
     style="display:none;fill:#000000;fill-opacity:1;fill-rule:evenodd;stroke:none;stroke-width:0.0471665;stroke-linecap:round;stroke-linejoin:round"
     d="m 8.2737385,5.545336 c -3.076737,4.74e-4 -5.826413,0.959025 -6.888215,2.401138 -2.55e-4,3.46e-4 -5.3e-4,7.06e-4 -7.82e-4,0.0011 -7.42e-4,0.0011 -0.0013,0.0023 -0.0021,0.0034 -0.02012,0.03086 -0.03952,0.06143 -0.057877,0.09177 -5.549e-4,9.08e-4 -0.00101,0.002 -0.00156,0.0029 -0.017542,0.02905 -0.034314,0.05753 -0.050317,0.08603 -9.485e-4,0.0017 -0.00192,0.0033 -0.00287,0.0049 -0.00375,0.0067 -0.00702,0.01339 -0.010689,0.02007 -0.013543,0.02464 -0.026663,0.04936 -0.039107,0.07352 -0.00203,0.0039 -0.004,0.0078 -0.006,0.01173 -0.012471,0.02447 -0.024326,0.04856 -0.035717,0.07248 -0.00324,0.0068 -0.00649,0.01358 -0.00965,0.02034 -0.00732,0.01567 -0.014241,0.031 -0.021118,0.0464 -0.017758,0.03981 -0.034589,0.07893 -0.049535,0.116798 -3.103e-4,8.07e-4 -4.729e-4,0.0016 -7.819e-4,0.0024 -0.00275,0.007 -0.00516,0.01367 -0.00782,0.02059 -0.01399,0.03637 -0.026717,0.07184 -0.038324,0.106109 -0.00197,0.0058 -0.0041,0.01173 -0.006,0.01747 -0.00579,0.01749 -0.010429,0.03344 -0.015643,0.05031 -0.00974,0.03153 -0.018982,0.06281 -0.026853,0.09203 -0.00408,0.01514 -0.0076,0.02958 -0.011211,0.04406 -0.00663,0.02658 -0.01278,0.05243 -0.017989,0.07665 -0.00273,0.01271 -0.00545,0.02526 -0.00782,0.03728 -0.00532,0.02696 -0.010082,0.05231 -0.013818,0.07561 -0.00109,0.0068 -0.00242,0.01436 -0.00339,0.02086 -0.00423,0.02826 -0.00761,0.05421 -0.00991,0.07587 -0.00299,0.03162 -0.00517,0.06325 -0.00652,0.0949 v 1.939681 c 0,0 7.6e-6,3.666623 7.3415889,3.666623 7.3415835,0 7.3415905,-3.666623 7.3415905,-3.666623 V 9.212051 c 0,0 -5.55e-4,-0.01514 -0.0011,-0.02659 -4.5e-5,-8.58e-4 -2.12e-4,-0.0028 -2.61e-4,-0.0036 -9.08e-4,-0.01622 -0.0026,-0.03919 -0.0057,-0.06779 -4.31e-4,-0.004 -0.0011,-0.0091 -0.0016,-0.0133 -0.0037,-0.03162 -0.0087,-0.06816 -0.01643,-0.111584 -0.0031,-0.01744 -0.007,-0.03661 -0.01095,-0.05579 -0.0023,-0.01112 -0.0045,-0.02221 -0.007,-0.03389 -0.0033,-0.01497 -0.0069,-0.03055 -0.01069,-0.04641 -0.0043,-0.01783 -0.0093,-0.03663 -0.01434,-0.05553 -0.0045,-0.01717 -0.0089,-0.03414 -0.01408,-0.05214 -0.005,-0.01737 -0.0108,-0.03586 -0.01643,-0.05397 C 15.50615,8.657467 15.49424,8.622267 15.48126,8.58587 15.47426,8.56621 15.46764,8.54674 15.45988,8.52643 15.45098,8.50324 15.44085,8.47923 15.43094,8.45526 15.42324,8.43656 15.41535,8.41784 15.40696,8.39869 15.39298,8.36681 15.37882,8.33473 15.3629,8.30171 15.34421,8.26294 15.32398,8.22324 15.30242,8.183087 c -8.07e-4,-0.0015 -0.0016,-0.003 -0.0024,-0.0044 -8.08e-4,-0.0015 -0.0018,-0.0032 -0.0026,-0.0047 -0.04403,-0.08133 -0.09413,-0.165145 -0.151211,-0.250803 -4.55e-4,-7.06e-4 -8.58e-4,-0.0014 -0.0013,-0.0021 -1.45e-4,-1.93e-4 -3.76e-4,-3.28e-4 -5.05e-4,-5.04e-4 -1.05219,-1.395815 -3.692425,-2.334314 -6.6778225,-2.373503 -0.06419,-5.75e-4 -0.127577,-0.0016 -0.192926,-0.0016 z" />
  <ellipse
     style="display:inline;fill:url(#radialGradient2231);fill-opacity:1;fill-rule:evenodd;stroke-width:0.0471665;stroke-linecap:round;stroke-linejoin:round"
     id="ellipse2229"
     cx="8.2737389"
     cy="12.949447"
     rx="7.3415899"
     ry="3.6665726" />
  <path
     id="ellipse1560"
     style="display:inline;fill:url(#linearGradient8704);fill-rule:evenodd;stroke-width:0.0471665;stroke-linecap:round;stroke-linejoin:round"
     d="M 8.2737385,5.545336 A 7.3415899,3.6665725 0 0 0 1.3847415,7.947517 C 1.0420055,8.47194 0.9587897,8.927137 0.93866666,9.117061 a 7.3415899,3.6665725 0 0 0 -0.00652,0.0949 7.3415899,3.6665725 0 0 0 7.34158984,3.666623 7.3415899,3.6665725 0 0 0 7.3415905,-3.666623 c 0,0 -4.11e-4,-0.58702 -0.47032,-1.291035 A 7.3415899,3.6665725 0 0 0 8.4666645,5.5469 C 8.4024745,5.546325 8.3390875,5.5453 8.2737385,5.5453 Z" />
  <path
     id="path1334"
     style="display:inline;fill:#9abbd9;fill-rule:evenodd;stroke-width:0.0471665;stroke-linecap:round;stroke-linejoin:round"
     d="m 8.2737385,7.485018 a 7.3415899,3.6665725 0 0 0 -7.34158954,3.666623 7.3415899,3.6665725 0 0 0 0.00652,0.0949 c 0.020143,0.190112 0.10352554,0.645769 0.44711754,1.170849 a 7.3415899,3.6665725 0 0 0 6.887954,2.400876 c 0.06535,0 0.128736,-10e-4 0.192926,-0.0016 a 7.3415899,3.6665725 0 0 0 6.6765195,-2.371677 c 0.471683,-0.705192 0.472145,-1.293382 0.472145,-1.293382 A 7.3415899,3.6665725 0 0 0 8.2737405,7.484984 Z" />
  <ellipse
     style="display:inline;fill:url(#radialGradient79585);fill-opacity:1;fill-rule:evenodd;stroke-width:0.0471665;stroke-linecap:round;stroke-linejoin:round"
     id="ellipse3978"
     cx="8.2737389"
     cy="10.181782"
     rx="7.3415899"
     ry="3.6665726" />
  <ellipse
     style="display:inline;opacity:0.6;fill:url(#radialGradient79561);fill-opacity:1;stroke:none;stroke-width:0;stroke-linecap:round;stroke-linejoin:round"
     id="path75607"
     cx="12.33861"
     cy="12.172712"
     rx="2.2281752"
     ry="1.5590442" />
  <ellipse
     style="display:inline;opacity:0.6;fill:url(#radialGradient79569);fill-opacity:1;stroke-width:0;stroke-linecap:round;stroke-linejoin:round"
     id="path75609"
     cx="7.8448009"
     cy="12.47909"
     rx="2.2103231"
     ry="1.575314" />
  <ellipse
     style="display:inline;opacity:0.6;fill:url(#radialGradient79577);fill-opacity:1;stroke-width:0;stroke-linecap:round;stroke-linejoin:round"
     id="path75611"
     cx="3.760251"
     cy="11.881517"
     rx="1.850063"
     ry="1.2651017" />
  <ellipse
     style="display:inline;opacity:0.6;fill:url(#radialGradient79507);fill-opacity:1;stroke-width:0;stroke-linecap:round;stroke-linejoin:round"
     id="path75605"
     cx="12.795048"
     cy="9.3998795"
     rx="1.9888288"
     ry="1.1390781" />
  <ellipse
     style="display:inline;opacity:0.600317;fill:url(#radialGradient82387);fill-opacity:1;stroke-width:0;stroke-linecap:round;stroke-linejoin:round"
     id="ellipse82385"
     cx="8.4224854"
     cy="9.5810852"
     rx="2.2726088"
     ry="1.23531" />
  <ellipse
     style="display:inline;opacity:0.600317;fill:url(#radialGradient82391);fill-opacity:1;stroke-width:0;stroke-linecap:round;stroke-linejoin:round"
     id="ellipse82389"
     cx="3.9228859"
     cy="9.5018444"
     rx="1.9444993"
     ry="1.0020422" />
  <ellipse
     style="display:inline;opacity:0.600317;fill:url(#radialGradient899);fill-opacity:1;stroke-width:0;stroke-linecap:round;stroke-linejoin:round"
     id="ellipse897"
     cx="11.649719"
     cy="7.7803092"
     rx="1.3574214"
     ry="0.5025335" />
  <ellipse
     style="display:inline;opacity:0.6;fill:url(#radialGradient78811);fill-opacity:1;stroke-width:0;stroke-linecap:round;stroke-linejoin:round"
     id="path75603"
     cx="8.4705715"
     cy="7.4464965"
     rx="1.6082982"
     ry="0.65207577" />
  <ellipse
     style="display:inline;opacity:0.600317;fill:url(#radialGradient82395);fill-opacity:1;stroke-width:0;stroke-linecap:round;stroke-linejoin:round"
     id="ellipse82393"
     cx="5.11234"
     cy="7.8761497"
     rx="1.575882"
     ry="0.57361811" />
  <path
     id="rect2827"
     style="fill:url(#linearGradient4156);fill-opacity:1;fill-rule:evenodd;stroke:none;stroke-width:0.0667419;stroke-linecap:round;stroke-linejoin:round"
     d="m 0.93214866,9.21192 c 0,0 3e-7,3.666561 7.34158984,3.666561 7.3415905,0 7.3415905,-3.666561 7.3415905,-3.666561 v 1.939721 c 0,0 0,3.666572 -7.3415905,3.666573 -7.34158954,0 -7.34158984,-3.666573 -7.34158984,-3.666573 z" />
  <path
     id="path7516"
     style="display:inline;opacity:0.6;fill:#000000;fill-opacity:1;fill-rule:evenodd;stroke:#000000;stroke-width:0.02645833;stroke-linecap:round;stroke-linejoin:round;stroke-opacity:1;stroke-dasharray:none"
     d="m 8.2739134,5.5453978 c -3.0767339,4.74e-4 -5.8266673,0.9587755 -6.8884683,2.400887 -2.55e-4,3.46e-4 -2.647e-4,6.396e-4 -5.167e-4,0.00103 -7.42e-4,0.0011 -0.00127,0.00252 -0.00207,0.00362 -0.02012,0.03086 -0.039521,0.061644 -0.057878,0.091984 -5.549e-4,9.08e-4 -0.001,0.00168 -0.00155,0.00258 -0.017542,0.02905 -0.03464,0.0578 -0.050643,0.0863 -9.485e-4,0.0017 -0.00163,0.00305 -0.00258,0.00465 -0.00375,0.0067 -0.00718,0.013474 -0.010852,0.020154 -0.013543,0.02464 -0.02683,0.049221 -0.039274,0.073381 -0.00203,0.0039 -0.00368,0.00796 -0.00568,0.011886 -0.012471,0.02447 -0.024266,0.048427 -0.035657,0.072347 -0.00324,0.0068 -0.00666,0.013911 -0.00982,0.020671 -0.00732,0.01567 -0.01431,0.030592 -0.021187,0.045992 -0.017758,0.03981 -0.034663,0.078921 -0.049609,0.1167888 -3.103e-4,8.07e-4 -2.078e-4,0.00178 -5.168e-4,0.00258 -0.00275,0.007 -0.00509,0.013751 -0.00775,0.020671 -0.01399,0.03637 -0.02715,0.071668 -0.038757,0.1059366 -0.00197,0.0058 -0.00378,0.01183 -0.00568,0.01757 -0.00579,0.01749 -0.010806,0.033256 -0.01602,0.050126 -0.00974,0.03153 -0.019001,0.063281 -0.026872,0.092501 -0.00408,0.01514 -0.007241,0.029445 -0.0108521,0.043925 -0.00663,0.02658 -0.0128778,0.052261 -0.0180868,0.076481 -0.00273,0.01271 -0.005381,0.025187 -0.007751,0.037207 -0.00532,0.02696 -0.0102166,0.052664 -0.0139526,0.075964 -0.00109,0.0068 -0.002131,0.014171 -0.003101,0.020671 -0.00423,0.02826 -0.008035,0.054304 -0.0103353,0.075964 -0.00299,0.03162 -0.004851,0.062918 -0.006201,0.094568 v 1.9399338 c 0,0 9.663e-5,3.666443 7.3416706,3.666443 7.3415766,0 7.3411536,-3.666443 7.3411536,-3.666443 V 9.2118406 c 0,0 -4.88e-4,-0.014905 -10e-4,-0.026355 -4.5e-5,-8.58e-4 4.9e-5,-0.00282 0,-0.00362 -9.08e-4,-0.01622 -0.0026,-0.039096 -0.0057,-0.067696 -4.31e-4,-0.004 -0.0011,-0.00924 -0.0015,-0.013436 -0.0037,-0.03162 -0.0088,-0.068197 -0.01654,-0.1116211 -0.0031,-0.01744 -0.0069,-0.036631 -0.01085,-0.05581 -0.0023,-0.01112 -0.0047,-0.02191 -0.0072,-0.03359 -0.0033,-0.01497 -0.0071,-0.030649 -0.01085,-0.046509 -0.0043,-0.01783 -0.0089,-0.036911 -0.01395,-0.055811 -0.0045,-0.01717 -0.0093,-0.034193 -0.01447,-0.052193 -0.005,-0.01737 -0.01039,-0.035633 -0.01602,-0.053743 -0.01057,-0.03399 -0.02268,-0.069023 -0.03566,-0.1054199 -0.007,-0.01966 -0.01343,-0.039118 -0.02119,-0.059428 -0.0089,-0.02319 -0.01903,-0.047344 -0.02894,-0.071314 -0.0077,-0.0187 -0.0159,-0.037694 -0.02429,-0.056844 -0.01398,-0.03188 -0.028,-0.063615 -0.04392,-0.096635 -0.01869,-0.03877 -0.0389,-0.078703 -0.06046,-0.1188558 -8.07e-4,-0.0015 -0.0018,-0.00273 -0.0026,-0.00413 -8.08e-4,-0.0015 -0.0018,-0.00315 -0.0026,-0.00465 -0.04403,-0.08133 -0.09381,-0.1654895 -0.150895,-0.2511475 -4.55e-4,-7.06e-4 -0.0011,-0.00137 -0.0015,-0.00207 l -5.17e-4,-5.168e-4 C 14.092106,6.524633 11.452061,5.5861371 8.4666665,5.5469481 c -0.06419,-5.75e-4 -0.1274042,-0.00155 -0.1927531,-0.00155 z m 0,0.2645834 c 0.062993,0 0.1236424,0.00101 0.1855184,0.00155 2.8777782,0.036953 5.4230352,0.9219241 6.4373332,2.2381062 l 5.17e-4,5.168e-4 c 4.72e-4,6.6e-4 5.94e-4,0.0014 10e-4,0.00207 0.05502,0.080771 0.103804,0.1594714 0.146244,0.2361613 8e-4,0.00141 0.0013,0.00324 0.0021,0.00465 8e-4,0.00132 0.0018,0.00272 0.0026,0.00413 0.02078,0.037862 0.04037,0.075063 0.05839,0.1116211 0.01534,0.031136 0.02889,0.061406 0.04237,0.091467 0.0081,0.018057 0.01586,0.03611 0.02326,0.053743 0.0096,0.022602 0.0193,0.044796 0.0279,0.066663 0.0075,0.019151 0.01345,0.037789 0.02015,0.056327 0.01251,0.034321 0.02443,0.067684 0.03462,0.099735 0.0054,0.017077 0.0107,0.034264 0.0155,0.050643 0.005,0.016973 0.0091,0.032903 0.01344,0.049093 0.0048,0.017822 0.0099,0.035897 0.01395,0.05271 0.0036,0.014955 0.0071,0.029292 0.01034,0.043408 0.0024,0.011013 0.0045,0.021554 0.0067,0.032039 0.0038,0.018086 0.0079,0.036265 0.01085,0.05271 0.0074,0.040947 0.0119,0.075087 0.0155,0.1049032 4e-4,0.00396 0.0011,0.00915 0.0015,0.012919 0.003,0.026968 0.0048,0.048267 0.0057,0.063562 4.7e-5,7.5e-4 -4.4e-5,0.00281 0,0.00362 5.65e-4,0.010797 10e-4,0.024805 10e-4,0.024805 V 11.09648 c 0,0 3.59e-4,3.457153 -7.0765706,3.457153 -7.0769273,0 -7.0770873,-3.457153 -7.0770873,-3.457153 V 9.2671344 c 0.0013,-0.029845 0.00332,-0.059584 0.0062,-0.0894 0.00221,-0.020424 0.00574,-0.044665 0.00982,-0.071314 9.4e-4,-0.00613 0.00205,-0.013227 0.0031,-0.019637 0.0036,-0.02197 0.00831,-0.045891 0.013436,-0.071314 0.00229,-0.011334 0.0046,-0.023155 0.00723,-0.03514 0.00502,-0.022838 0.01118,-0.047284 0.01757,-0.072347 0.00348,-0.013654 0.00692,-0.027065 0.010852,-0.041341 0.00759,-0.027553 0.016448,-0.057085 0.025838,-0.086816 0.00503,-0.015908 0.00941,-0.03105 0.014986,-0.047542 0.00183,-0.00541 0.00378,-0.011067 0.00568,-0.016537 0.011189,-0.032314 0.023721,-0.065957 0.037207,-0.1002523 0.00257,-0.00652 0.00458,-0.01252 0.00723,-0.01912 2.979e-4,-7.5e-4 7.344e-4,-0.00182 0.00103,-0.00258 0.014407,-0.035707 0.030424,-0.072532 0.047542,-0.1100708 0.00663,-0.014522 0.013611,-0.028632 0.020671,-0.043408 0.00304,-0.00638 0.00567,-0.013227 0.00879,-0.019637 0.010981,-0.022556 0.022601,-0.045139 0.034623,-0.068213 0.00192,-0.00371 0.00372,-0.00717 0.00568,-0.010852 0.011995,-0.022781 0.024669,-0.046012 0.037724,-0.069246 0.00353,-0.0063 0.00673,-0.0128 0.010335,-0.01912 9.2e-4,-0.00151 0.00219,-0.00305 0.0031,-0.00465 0.015426,-0.026874 0.031149,-0.053739 0.048059,-0.081132 5.264e-4,-8.4e-4 0.00102,-0.00173 0.00155,-0.00258 0.017696,-0.028609 0.036416,-0.057717 0.055811,-0.086816 7.7e-4,-0.00104 0.00135,-0.00206 0.00207,-0.0031 2.43e-4,-3.743e-4 7.877e-4,-7.073e-4 0.00103,-0.00103 1.0236321,-1.359846 3.6741865,-2.2635112 6.6400113,-2.2639581 z" />
  <path
     id="path7521"
     style="color:#000000;mix-blend-mode:multiply;fill:url(#linearGradient7523);-inkscape-stroke:none"
     d="M 0.93224282 9.3436155 L 0.93224282 9.9880206 C 1.0554838 10.345061 1.293715 10.809934 1.7559651 11.271663 C 2.7048609 12.219491 4.5805855 13.14235 8.2733966 13.14235 C 11.966207 13.14235 13.841931 12.219475 14.790828 11.271663 C 15.251535 10.811483 15.49136 10.348204 15.615067 9.991638 L 15.615067 9.3436155 L 15.482259 9.3436155 C 15.482259 9.3436155 15.483894 9.5478533 15.374772 9.8748493 C 15.265648 10.201845 15.047008 10.641336 14.603759 11.084078 C 13.71726 11.969563 11.922161 12.8788 8.2733966 12.8788 C 4.6246329 12.8788 2.8300486 11.969578 1.9435506 11.084078 C 1.5003015 10.641328 1.2811451 10.201851 1.1720215 9.8748493 C 1.0628979 9.5478471 1.0645345 9.3436155 1.0645345 9.3436155 L 0.93224282 9.3436155 z " />
</svg>
