<?xml version="1.0" encoding="UTF-8" standalone="no"?>
<!-- Created with Inkscape (http://www.inkscape.org/) -->

<svg
   width="24"
   height="24"
   viewBox="0 0 24 24"
   version="1.1"
   id="svg1123"
   xmlns:xlink="http://www.w3.org/1999/xlink"
   xmlns="http://www.w3.org/2000/svg"
   xmlns:svg="http://www.w3.org/2000/svg">
  <defs
     id="defs1120">
    <linearGradient
       id="linearGradient5915">
      <stop
         style="stop-color:#ffffff;stop-opacity:1;"
         offset="0"
         id="stop5911" />
      <stop
         style="stop-color:#ffffff;stop-opacity:0.19684525"
         offset="1"
         id="stop5913" />
    </linearGradient>
    <marker
       orient="auto"
       refY="0"
       refX="0"
       id="DistanceStart"
       style="overflow:visible">
      <g
         id="g2300">
        <path
           id="path2306"
           d="M 0,0 H 2"
           style="fill:none;stroke:context-fill;stroke-width:1.15;stroke-linecap:square" />
        <path
           id="path2302"
           d="M 0,0 13,4 9,0 13,-4 Z"
           style="fill:context-stroke;fill-rule:evenodd;stroke:none" />
        <path
           id="path2304"
           d="M 0,-4 V 40"
           style="fill:none;stroke:context-stroke;stroke-width:1;stroke-linecap:square" />
      </g>
    </marker>
    <clipPath
       clipPathUnits="userSpaceOnUse"
       id="clipPath1992">
      <rect
         style="fill:#3689e6;fill-opacity:1;fill-rule:evenodd;stroke-linecap:round;stroke-linejoin:round"
         id="rect1994"
         width="20"
         height="18"
         x="14"
         y="2"
         ry="0" />
    </clipPath>
    <mask
       maskUnits="userSpaceOnUse"
       id="mask2227">
      <rect
         style="display:inline;fill:#ffffff;fill-opacity:1;fill-rule:evenodd;stroke-width:1.04881;stroke-linecap:round;stroke-linejoin:round"
         id="rect2229"
         width="16"
         height="44"
         x="16"
         y="-6"
         ry="2.1999998" />
    </mask>
    <mask
       maskUnits="userSpaceOnUse"
       id="mask-powermask-path-effect2285">
      <rect
         style="display:inline;fill:#ffffff;fill-opacity:1;fill-rule:evenodd;stroke-width:1.04881;stroke-linecap:round;stroke-linejoin:round"
         id="rect2283"
         width="16"
         height="44"
         x="16"
         y="-6"
         ry="2.1999998"
         d="m 18.2,-6 h 11.6 c 1.2188,0 2.2,0.9811999 2.2,2.1999998 V 35.8 C 32,37.0188 31.0188,38 29.8,38 H 18.2 C 16.9812,38 16,37.0188 16,35.8 V -3.8000002 C 16,-5.0188001 16.9812,-6 18.2,-6 Z" />
    </mask>
    <filter
       id="mask-powermask-path-effect2285_inverse"
       style="color-interpolation-filters:sRGB"
       height="100"
       width="100"
       x="-50"
       y="-50">
      <feColorMatrix
         id="mask-powermask-path-effect2285_primitive1"
         values="1"
         type="saturate"
         result="fbSourceGraphic" />
      <feColorMatrix
         id="mask-powermask-path-effect2285_primitive2"
         values="-1 0 0 0 1 0 -1 0 0 1 0 0 -1 0 1 0 0 0 1 0 "
         in="fbSourceGraphic" />
    </filter>
    <filter
       id="mask-powermask-path-effect2336_inverse"
       style="color-interpolation-filters:sRGB"
       height="100"
       width="100"
       x="-50"
       y="-50">
      <feColorMatrix
         id="mask-powermask-path-effect2336_primitive1"
         values="1"
         type="saturate"
         result="fbSourceGraphic" />
      <feColorMatrix
         id="mask-powermask-path-effect2336_primitive2"
         values="-1 0 0 0 1 0 -1 0 0 1 0 0 -1 0 1 0 0 0 1 0 "
         in="fbSourceGraphic" />
    </filter>
    <filter
       id="mask-powermask-path-effect2363_inverse"
       style="color-interpolation-filters:sRGB"
       height="100"
       width="100"
       x="-50"
       y="-50">
      <feColorMatrix
         id="mask-powermask-path-effect2363_primitive1"
         values="1"
         type="saturate"
         result="fbSourceGraphic" />
      <feColorMatrix
         id="mask-powermask-path-effect2363_primitive2"
         values="-1 0 0 0 1 0 -1 0 0 1 0 0 -1 0 1 0 0 0 1 0 "
         in="fbSourceGraphic" />
    </filter>
    <filter
       id="mask-powermask-path-effect2557_inverse"
       style="color-interpolation-filters:sRGB"
       height="100"
       width="100"
       x="-50"
       y="-50">
      <feColorMatrix
         id="mask-powermask-path-effect2557_primitive1"
         values="1"
         type="saturate"
         result="fbSourceGraphic" />
      <feColorMatrix
         id="mask-powermask-path-effect2557_primitive2"
         values="-1 0 0 0 1 0 -1 0 0 1 0 0 -1 0 1 0 0 0 1 0 "
         in="fbSourceGraphic" />
    </filter>
    <clipPath
       clipPathUnits="userSpaceOnUse"
       id="clipPath2564">
      <rect
         style="display:none;fill:#ffffff;fill-opacity:1;fill-rule:evenodd;stroke-width:1.04881;stroke-linecap:round;stroke-linejoin:round"
         id="rect2566"
         width="16"
         height="44"
         x="16"
         y="-1"
         ry="2.1999998"
         d="m 18.2,-1 h 11.6 c 1.2188,0 2.2,0.98119991 2.2,2.1999998 V 40.8 C 32,42.0188 31.0188,43 29.8,43 H 18.2 C 16.9812,43 16,42.0188 16,40.8 V 1.1999998 C 16,-0.01880009 16.9812,-1 18.2,-1 Z" />
      <path
         id="lpe_path-effect2568"
         style="display:inline;fill:#ffffff;fill-opacity:1;fill-rule:evenodd;stroke-width:1.04881;stroke-linecap:round;stroke-linejoin:round"
         class="powerclip"
         d="M 11,-5 H 37 V 50 H 11 Z m 7.2,4 C 16.9812,-1 16,-0.01880009 16,1.1999998 V 40.8 c 0,1.2188 0.9812,2.2 2.2,2.2 H 29.8 C 31.0188,43 32,42.0188 32,40.8 V 1.1999998 C 32,-0.01880009 31.0188,-1 29.8,-1 Z" />
    </clipPath>
    <filter
       id="mask-powermask-path-effect5209_inverse"
       style="color-interpolation-filters:sRGB"
       height="100"
       width="100"
       x="-50"
       y="-50">
      <feColorMatrix
         id="mask-powermask-path-effect5209_primitive1"
         values="1"
         type="saturate"
         result="fbSourceGraphic" />
      <feColorMatrix
         id="mask-powermask-path-effect5209_primitive2"
         values="-1 0 0 0 1 0 -1 0 0 1 0 0 -1 0 1 0 0 0 1 0 "
         in="fbSourceGraphic" />
    </filter>
    <mask
       maskUnits="userSpaceOnUse"
       id="mask5215">
      <rect
         style="display:inline;fill:#ffffff;fill-opacity:1;fill-rule:evenodd;stroke-width:1.04881;stroke-linecap:round;stroke-linejoin:round"
         id="rect5217"
         width="16"
         height="44"
         x="16"
         y="2"
         ry="2.1999998"
         mask="url(#mask2227)" />
    </mask>
    <linearGradient
       xlink:href="#linearGradient5915"
       id="linearGradient5917"
       x1="19"
       y1="35"
       x2="30"
       y2="44"
       gradientUnits="userSpaceOnUse"
       gradientTransform="matrix(0.42476399,0,0,0.38936699,5.3063817,-5.8153472)" />
    <filter
       id="mask-powermask-path-effect6923_inverse"
       style="color-interpolation-filters:sRGB"
       height="100"
       width="100"
       x="-50"
       y="-50">
      <feColorMatrix
         id="mask-powermask-path-effect6923_primitive1"
         values="1"
         type="saturate"
         result="fbSourceGraphic" />
      <feColorMatrix
         id="mask-powermask-path-effect6923_primitive2"
         values="-1 0 0 0 1 0 -1 0 0 1 0 0 -1 0 1 0 0 0 1 0 "
         in="fbSourceGraphic" />
    </filter>
    <radialGradient
       cx="38"
       cy="69"
       r="20"
       fx="28.603323"
       fy="69"
       id="radialGradient6025"
       xlink:href="#linearGradient6019"
       gradientUnits="userSpaceOnUse"
       gradientTransform="matrix(0.42476399,0,0,0.12742922,-5.6457518,10.693959)" />
    <linearGradient
       id="linearGradient6019">
      <stop
         id="stop6021"
         style="stop-color:#000000;stop-opacity:1"
         offset="0" />
      <stop
         id="stop6023"
         style="stop-color:#000000;stop-opacity:0"
         offset="1" />
    </linearGradient>
  </defs>
  <g
     id="g1418"
     style="display:inline">
    <path
       style="opacity:0.25;fill:url(#radialGradient6025);fill-opacity:1;stroke:none;stroke-width:1;stroke-miterlimit:4;stroke-dasharray:none"
       id="path6017"
       d="m 18.99056,19.486575 a 8.49528,2.5485845 0 1 1 -16.99056,0 8.49528,2.5485845 0 1 1 16.99056,0 z" />
    <rect
       style="display:inline;fill:#c6262e;fill-opacity:1;fill-rule:evenodd;stroke-width:1;stroke-linecap:round;stroke-linejoin:round;stroke-miterlimit:4;stroke-dasharray:none"
       id="rect3627-5"
       width="6.7962236"
       height="18.689615"
       x="12.102606"
       y="-6.5940804"
       ry="0.93448067"
       transform="rotate(36.869898)" />
    <path
       style="display:inline;fill:#c6262e;fill-opacity:1;fill-rule:evenodd;stroke-width:2.35424852;stroke-linecap:round;stroke-linejoin:round;stroke-miterlimit:4;stroke-dasharray:none"
       id="rect1996"
       width="16"
       height="44"
       x="16"
       y="2"
       ry="2.1999998"
       mask="url(#mask-powermask-path-effect2285)"
       transform="matrix(0.33981119,0.2548584,-0.2548584,0.33981119,8.711272,-2.7710582)"
       d="M 18.2,2 H 29.8 C 31.0188,2 32,2.9811999 32,4.1999998 V 43.8 C 32,45.0188 31.0188,46 29.8,46 H 18.2 C 16.9812,46 16,45.0188 16,43.8 V 4.1999998 C 16,2.9811999 16.9812,2 18.2,2 Z" />
    <path
       style="opacity:0.302115;mix-blend-mode:color-dodge;fill:url(#linearGradient5917);fill-opacity:1;fill-rule:evenodd;stroke:none;stroke-width:1;stroke-linecap:round;stroke-linejoin:round;stroke-miterlimit:4;stroke-dasharray:none;stroke-opacity:1;paint-order:normal"
       id="rect5781"
       width="6.7962236"
       height="4.6724038"
       x="12.102606"
       y="7.423131"
       ry="0"
       d="m 12.102606,7.423131 h 6.796223 v 4.672404 h -6.796223 z"
       transform="rotate(36.869898)" />
    <path
       style="display:inline;fill:#fafafa;fill-opacity:1;fill-rule:evenodd;stroke-width:2.35424852;stroke-linecap:round;stroke-linejoin:round;stroke-miterlimit:4;stroke-dasharray:none"
       id="rect1230-3"
       width="16"
       height="45"
       x="16"
       y="0"
       ry="2.1999998"
       clip-path="url(#clipPath2564)"
       transform="matrix(0.33981119,0.2548584,-0.2548584,0.33981119,9.220988,-3.4506806)"
       d="M 18.2,0 H 29.8 C 31.0188,0 32,0.98119991 32,2.1999998 V 42.8 C 32,44.0188 31.0188,45 29.8,45 H 18.2 C 16.9812,45 16,44.0188 16,42.8 V 2.1999998 C 16,0.98119991 16.9812,0 18.2,0 Z" />
    <rect
       style="display:inline;fill:#ed5353;fill-opacity:1;fill-rule:evenodd;stroke-width:2.35424852;stroke-linecap:round;stroke-linejoin:round;stroke-miterlimit:4;stroke-dasharray:none"
       id="rect2225"
       width="16"
       height="44"
       x="16"
       y="2"
       ry="2.1999998"
       mask="url(#mask2227)"
       transform="matrix(0.33981119,0.2548584,-0.2548584,0.33981119,8.711272,-2.7710582)" />
    <rect
       style="fill:#3689e6;fill-opacity:1;fill-rule:evenodd;stroke-width:2.35424852;stroke-linecap:round;stroke-linejoin:round;stroke-miterlimit:4;stroke-dasharray:none"
       id="rect1416"
       width="16"
       height="44"
       x="16"
       y="2"
       ry="2.1999998"
       clip-path="url(#clipPath1992)"
       transform="matrix(0.33981119,0.2548584,-0.2548584,0.33981119,8.711272,-2.7710582)" />
    <rect
       style="display:inline;opacity:0.2;fill:none;fill-opacity:1;fill-rule:evenodd;stroke:#fafafa;stroke-width:1;stroke-linecap:round;stroke-linejoin:round;stroke-miterlimit:4;stroke-dasharray:none;stroke-opacity:1"
       id="rect4527"
       width="5.9466958"
       height="14.481091"
       x="12.52737"
       y="-6.1693163"
       ry="0.81932747"
       mask="none"
       transform="rotate(36.869898)" />
    <path
       style="display:inline;opacity:0.2;mix-blend-mode:normal;fill:none;fill-opacity:1;fill-rule:evenodd;stroke:#1a1a1a;stroke-width:2.35424852;stroke-linecap:round;stroke-linejoin:round;stroke-miterlimit:4;stroke-dasharray:none;stroke-opacity:1"
       id="rect4983"
       width="16"
       height="36"
       x="16"
       y="2"
       ry="3"
       mask="url(#mask5215)"
       d="m 19,2 h 10 c 1.662,0 3,1.338 3,3 v 30 c 0,1.662 -1.338,3 -3,3 H 19 c -1.662,0 -3,-1.338 -3,-3 V 5 c 0,-1.662 1.338,-3 3,-3 z"
       transform="matrix(0.33981119,0.2548584,-0.2548584,0.33981119,8.711272,-2.7710582)" />
  </g>
</svg>
